<svg xmlns="http://www.w3.org/2000/svg" width="219" height="146" viewBox="0 0 219 146">
  <path fill="#FFF" fill-rule="evenodd" d="M65.7660029,80.6998573 L65.8858814,80.7110971 C66.0457298,80.7399935 66.2056416,80.8202263 66.3658698,80.9001427 C78.8656511,88.1999239 94.3657557,92.5997718 110.365832,92.5997718 L110.365832,92.5997718 L111.220678,92.5949942 C121.791032,92.4771485 133.352169,90.1791436 143.965299,85.7000666 C144.248666,85.5833571 144.523694,85.5361019 144.777421,85.543948 L144.884819,85.5506423 C146.08636,85.6637964 146.74167,87.0285198 145.365318,88.0001331 C135.665575,95.200019 121.565489,99 109.365394,99 C92.3658698,99 76.9656606,92.7001617 65.3659269,82.1997718 C64.6656701,81.5000095 65.0657462,80.6998573 65.7660029,80.6998573 L65.7660029,80.6998573 Z M147.76528,79.0001522 C150.765604,79.0001522 153.165565,79.600019 153.665537,80.1998859 C154.765375,81.5999049 153.365356,90.6997813 148.165356,95.1001236 C147.902842,95.2750848 147.657367,95.3734794 147.44877,95.4027678 L147.361687,95.4111108 L147.361687,95.4111108 L147.279468,95.4111222 C146.881104,95.3905682 146.678114,95.0624774 146.865727,94.5002568 C148.065461,91.6003233 150.665214,84.9998098 149.46548,83.4 C148.887647,82.6889734 147.183992,82.4519157 145.197212,82.4430942 L144.897177,82.443452 C142.481594,82.4595173 139.718987,82.78655 138.065537,82.9999239 L138.065537,82.9999239 L137.956707,83.0078052 C137.15075,83.0335272 137.003201,82.2751466 137.865746,81.6998003 C140.76568,79.6999144 144.565661,79.0001522 147.76528,79.0001522 Z M122.165356,53.9001997 C123.665765,53.9001997 125.16568,54.2003804 126.665594,54.6998573 C126.96528,54.8002473 127.165565,54.9001427 127.265461,55.0999334 C127.365356,55.3002187 127.465252,55.5000095 127.465252,55.8001902 L127.465252,55.8001902 L127.465252,56.8001331 C127.465252,57.2002092 127.265461,57.4 126.96528,57.4 C126.865385,57.4 126.565699,57.3001046 126.165623,57.2002092 C124.965394,56.8001331 123.665765,56.5998478 122.365642,56.5998478 L122.365642,56.5998478 L122.123794,56.6029051 C119.988418,56.6578941 118.965737,57.4535684 118.965737,58.8999144 C118.965737,59.6001712 119.165527,60.0002473 119.565604,60.3998288 C119.86529,60.7999049 120.665442,61.199981 121.76528,61.6000571 L121.76528,61.6000571 L124.565318,62.6998954 C125.965337,63.1998669 126.965775,63.9001236 127.565642,64.5998859 C128.165508,65.400038 128.465689,66.3000856 128.465689,67.5003138 C128.465689,69.200019 127.865328,70.5001427 126.565699,71.5000856 C125.265575,72.5000285 123.665765,73 121.565489,73 C119.565604,73 117.765508,72.6998193 116.165699,72.0000571 C115.865518,71.9001617 115.665727,71.6998764 115.565337,71.599981 C115.465442,71.4001997 115.365546,71.1999049 115.365546,70.9002187 L115.365546,70.9002187 L115.365546,69.8997813 C115.365546,69.5001997 115.465442,69.2999144 115.765623,69.2999144 L115.765623,69.2999144 L115.857392,69.3057407 C116.053218,69.328466 116.322748,69.4141512 116.66567,69.5001997 C118.26548,70.0001712 119.865784,70.199962 121.565489,70.199962 L121.565489,70.199962 L121.836333,70.1938244 C122.81367,70.1492416 123.615405,69.8664828 124.165737,69.5001997 C124.765604,69.1001236 125.06529,68.3998669 125.06529,67.6002092 C125.06529,66.9998478 124.965394,66.5997718 124.565318,66.2001902 C124.165242,65.8001141 123.565375,65.4999334 122.565432,65.0998573 L122.565432,65.0998573 L119.565604,64.000019 C116.965356,63.0000761 115.665233,61.2998764 115.665233,58.9998098 C115.665233,57.4998954 116.265594,56.1997718 117.465328,55.3002187 C118.665556,54.4001712 120.265366,53.9001997 122.165356,53.9001997 Z M99.5657557,54.4001712 C100.065727,54.4001712 100.265518,54.599962 100.265518,55.0999334 L100.265518,55.0999334 L100.265518,66.399981 C100.265518,67.7001046 100.465803,68.6001522 100.965775,69.200019 C101.465746,69.7998859 102.265404,70.1000666 103.365737,70.1000666 L103.365737,70.1000666 L103.684437,70.0930611 C105.277965,70.0231283 106.871873,69.4314289 108.465347,68.3998669 L108.465347,68.3998669 L108.465347,55.0999334 C108.465347,54.6998573 108.665632,54.4001712 109.265499,54.4001712 L109.265499,54.4001712 L111.365775,54.4001712 C111.865746,54.4001712 112.065537,54.599962 112.065537,55.0999334 L112.065537,55.0999334 L112.065537,71.599981 C112.065537,72.0999524 111.865746,72.3002378 111.365775,72.3002378 L111.365775,72.3002378 L109.865366,72.3002378 C109.56568,72.3002378 109.365889,72.3002378 109.265499,72.1998478 C109.065708,72.0999524 108.965813,72.0000571 108.965813,71.6998764 L108.965813,71.6998764 L108.765527,70.5001427 L108.765527,70.5001427 L108.41739,70.7460988 C106.323739,72.1819625 104.144728,72.9001046 101.965718,72.9001046 C100.265518,72.9001046 98.9658888,72.4001331 98.0653467,71.5000856 C97.1657937,70.600038 96.7657176,69.200019 96.7657176,67.5003138 L96.7657176,67.5003138 L96.7657176,55.0999334 C96.7657176,54.599962 96.9655084,54.4001712 97.4654799,54.4001712 L97.4654799,54.4001712 Z M147.465594,54.0000951 L147.869086,54.0108005 C148.954244,54.0667958 150.10991,54.3335743 151.265575,54.599962 C151.465366,54.6998573 151.665157,54.9001427 151.765546,55.000038 C151.865442,55.0999334 151.965337,55.4001141 151.965337,55.7002948 L151.965337,55.7002948 L151.965337,56.7002378 C151.965337,57.2002092 151.765546,57.4 151.465366,57.4 L151.465366,57.4 L151.384982,57.3997088 C151.232946,57.3979613 151.122797,57.3857292 150.865499,57.3001046 C149.965451,56.9999239 148.965508,56.9000285 147.965565,56.9000285 L147.965565,56.9000285 L147.637715,56.9046579 C145.811224,56.957124 144.515658,57.4555524 143.665613,58.3999429 C142.765565,59.3998859 142.365489,61.0001902 142.265594,63.1998669 L142.265594,63.1998669 L142.265594,63.6998383 C142.265594,65.8001141 142.66567,67.3999239 143.565718,68.3998669 C144.465765,69.3998098 145.865784,69.8997813 147.76528,69.8997813 L147.76528,69.8997813 L148.144909,69.8906102 C149.040677,69.848265 150.003036,69.6624679 150.965394,69.3998098 C151.16568,69.2999144 151.36547,69.2999144 151.465366,69.2999144 L151.465366,69.2999144 L151.54467,69.3049437 C151.800221,69.3387249 151.965337,69.5452021 151.965337,70.0001712 L151.965337,70.0001712 L151.965046,71.127996 C151.963299,71.3814787 151.951066,71.6142517 151.865442,71.6998764 C151.765546,71.9001617 151.565756,72.0000571 151.265575,72.0999524 C150.165737,72.5999239 148.765223,72.7997147 147.265309,72.7997147 C144.465271,72.7997147 142.365489,72.0000571 140.865575,70.4002473 C139.365661,68.7999429 138.665404,66.4998764 138.665404,63.5000476 C138.665404,60.5002187 139.465556,58.1002568 140.96547,56.4999524 C142.56528,54.8002473 144.665556,54.0000951 147.465594,54.0000951 L147.465594,54.0000951 Z M87.1653753,53.9001997 C88.865575,53.9001997 90.0658032,54.4001712 90.9658508,55.3002187 C91.8654038,56.1997718 92.2654799,57.4998954 92.2654799,59.2000951 L92.2654799,59.2000951 L92.2654799,71.6998764 C92.2654799,72.1998478 92.0656891,72.4001331 91.5657176,72.4001331 L91.5657176,72.4001331 L89.4654418,72.4001331 C88.9654704,72.4001331 88.7656796,72.1998478 88.7656796,71.6998764 L88.7656796,71.6998764 L88.7656796,60.200038 C88.7656796,59.0003043 88.4659934,58.2001522 88.0659174,57.6002853 C87.6658413,56.9999239 86.9655845,56.7002378 85.9656416,56.7002378 L85.9656416,56.7002378 L85.6468353,56.7061212 C84.0525865,56.7650774 82.4532307,57.2689491 80.7656416,58.3000476 L80.7656416,58.3000476 L80.7656416,71.6998764 C80.7656416,72.1998478 80.5658508,72.4001331 80.0658793,72.4001331 L80.0658793,72.4001331 L77.9656035,72.4001331 C77.465632,72.4001331 77.2658413,72.1998478 77.2658413,71.6998764 L77.2658413,71.6998764 L77.2658413,60.200038 C77.2658413,58.9998098 76.9656606,58.2001522 76.5655845,57.6002853 C76.1660029,56.9999239 75.4657462,56.7002378 74.4658032,56.7002378 L74.4658032,56.7002378 L74.1070867,56.7081768 C72.439017,56.7819981 70.8521947,57.3667675 69.2658032,58.3000476 L69.2658032,58.3000476 L69.2658032,71.8002663 C69.2658032,72.3002378 69.0655179,72.5000285 68.5655465,72.5000285 L68.5655465,72.5000285 L66.4657652,72.5000285 C65.9657937,72.5000285 65.7660029,72.3002378 65.7660029,71.8002663 L65.7660029,71.8002663 L65.7660029,55.2003233 C65.7660029,54.6998573 65.9657937,54.5000666 66.4657652,54.5000666 L66.4657652,54.5000666 L68.1652162,54.5005291 C68.3296823,54.5028414 68.4823003,54.5167158 68.5655465,54.599962 C68.7658318,54.6998573 68.8657271,54.8002473 68.8657271,55.0999334 L68.8657271,55.0999334 L69.0655179,56.1997718 L69.0655179,56.1997718 L69.4129133,55.968777 C71.4972847,54.617898 73.5816327,53.9001997 75.6655369,53.9001997 L75.6655369,53.9001997 L75.9369112,53.9043719 C77.9894861,53.9684013 79.3989622,54.770699 80.1657747,56.4000571 L80.1657747,56.4000571 L80.5115089,56.1517686 C82.7055865,54.6218907 84.9807818,53.9001997 87.1653753,53.9001997 Z M134.265556,54.4001712 C134.765527,54.4001712 134.965318,54.6998573 134.965318,55.0999334 L134.965318,55.0999334 L134.965318,71.6998764 C134.965318,72.1998478 134.765527,72.4001331 134.265556,72.4001331 L134.265556,72.4001331 L132.16528,72.4001331 C131.665803,72.4001331 131.465518,72.1998478 131.465518,71.6998764 L131.465518,71.6998764 L131.465518,55.0999334 C131.465518,54.599962 131.665803,54.4001712 132.16528,54.4001712 L132.16528,54.4001712 Z M133.165718,47 L133.37255,47.0060076 C133.983455,47.04205 134.505354,47.2402435 134.865423,47.5998669 C135.265499,47.9000476 135.365394,48.4999144 135.365394,49.1002758 C135.365394,49.7001427 135.165604,50.2001141 134.765527,50.6001902 C134.365451,51.0002663 133.86548,51.2000571 133.165718,51.2000571 C132.465461,51.2000571 131.965489,51.0002663 131.565413,50.6001902 C131.165337,50.3000095 130.965546,49.7001427 130.965546,49.1002758 C130.965546,48.4999144 131.165337,48.0004375 131.565413,47.5998669 C131.965489,47.2002853 132.465461,47 133.165718,47 L133.165718,47 Z"/>
</svg>
