<svg width="43" height="26" viewBox="0 0 43 26" fill="none" xmlns="http://www.w3.org/2000/svg">
<path fill-rule="evenodd" clip-rule="evenodd" d="M27.3245 11.6475C27.8561 11.6475 28.2906 11.5025 28.5806 11.3094C28.8704 11.1162 29.0152 10.7779 29.0152 10.3916C29.0152 10.1016 28.9669 9.90836 28.7736 9.71534C28.5804 9.52208 28.2906 9.37707 27.8076 9.18381L26.3585 8.65252C25.1024 8.16949 24.4744 7.34819 24.4744 6.23712C24.4744 5.51257 24.7644 4.88453 25.3439 4.44999C25.9237 4.01521 26.6965 3.77369 27.6143 3.77369C28.3391 3.77369 29.0637 3.9187 29.7882 4.15998C29.933 4.20847 30.0297 4.25673 30.078 4.35324L30.0782 4.35371C30.1264 4.4503 30.1745 4.54673 30.1745 4.69151V5.17454C30.1745 5.3678 30.078 5.46431 29.933 5.46431C29.9032 5.46431 29.8366 5.44593 29.7446 5.42051C29.6876 5.40475 29.6207 5.38627 29.5467 5.3678C28.9669 5.17454 28.3391 5.07779 27.7111 5.07779C26.6 5.07779 26.0687 5.46431 26.0687 6.18886C26.0687 6.52713 26.1652 6.72039 26.3585 6.91341C26.5032 7.10667 26.8898 7.29993 27.4211 7.4932L28.7736 8.02448C29.4499 8.266 29.9332 8.60427 30.223 8.9423C30.5128 9.32882 30.6578 9.7636 30.6578 10.3434C30.6578 11.1644 30.3678 11.7925 29.74 12.2755C29.1119 12.7585 28.3391 13.0001 27.3245 13.0001C26.3585 13.0001 25.4889 12.8551 24.7161 12.517C24.5722 12.4691 24.476 12.3734 24.4272 12.3248L24.4261 12.3238C24.3779 12.2273 24.3296 12.1305 24.3296 11.9857V11.5025C24.3296 11.3094 24.3779 11.2127 24.5229 11.2127C24.5938 11.2127 24.6909 11.2388 24.8141 11.2718L24.8141 11.2718L24.8141 11.2718L24.8142 11.2719C24.8586 11.2838 24.9064 11.2966 24.9576 11.3094C25.7304 11.551 26.5035 11.6475 27.3245 11.6475ZM32.9279 0.44043C33.2659 0.44043 33.5557 0.53718 33.7489 0.730202C33.9422 0.875208 33.9904 1.16498 33.9904 1.45499C33.9904 1.74476 33.8939 1.98628 33.7007 2.17954C33.5074 2.3728 33.2659 2.46931 32.9279 2.46931C32.5896 2.46931 32.3481 2.3728 32.1548 2.17954C31.9616 2.03454 31.865 1.74476 31.865 1.45499C31.865 1.16498 31.9616 0.923702 32.1548 0.730202C32.3481 0.53718 32.5896 0.44043 32.9279 0.44043ZM32.1069 4.35319C32.1069 4.11168 32.2036 4.01517 32.4449 4.01517H33.4595C33.701 4.01517 33.7975 4.15993 33.7975 4.35319V12.372C33.7975 12.6135 33.701 12.7102 33.4595 12.7102H32.4449C32.2036 12.7102 32.1069 12.6135 32.1069 12.372V4.35319ZM40.0774 5.22283C39.1111 5.22283 38.435 5.46435 38.0003 5.94738C37.5655 6.43042 37.3722 7.20346 37.324 8.26604V8.50756C37.324 9.52212 37.5172 10.2949 37.952 10.778C38.3868 11.261 39.0631 11.5025 39.9806 11.5025C40.4639 11.5025 40.9952 11.406 41.5265 11.261C41.6232 11.2127 41.7198 11.2127 41.768 11.2127C41.913 11.2127 42.0095 11.3092 42.0095 11.551V12.034C42.0095 12.1788 42.0095 12.3238 41.9613 12.3721C41.913 12.4688 41.8165 12.5171 41.6715 12.5653C41.1402 12.8068 40.4637 12.9034 39.7391 12.9034C38.3865 12.9034 37.3722 12.5171 36.6477 11.7443C35.9231 10.9712 35.5849 9.86015 35.5849 8.41105C35.5849 6.96195 35.9714 5.80262 36.6959 5.02957C37.4687 4.20851 38.4833 3.82199 39.8359 3.82199C40.4144 3.82199 41.0412 3.96648 41.6681 4.11098L41.6715 4.11176C41.7666 4.15933 41.8618 4.25402 41.9109 4.30293L41.913 4.30502C41.9613 4.35328 42.0095 4.49828 42.0095 4.64329V5.12632C42.0095 5.36784 41.913 5.46435 41.768 5.46435C41.6715 5.46435 41.6232 5.46435 41.4782 5.4161C41.0435 5.27109 40.5604 5.22283 40.0774 5.22283ZM13.1707 12.372C13.1707 12.6135 13.0742 12.7103 12.8327 12.7103H11.8181C11.5766 12.7103 11.4801 12.6135 11.4801 12.372V6.8169C11.4801 6.23736 11.3354 5.85083 11.1421 5.56106C10.9488 5.27105 10.6106 5.12628 10.1275 5.12628C9.30623 5.12628 8.48517 5.3678 7.61561 5.89909V6.14061V12.372C7.61561 12.6135 7.5191 12.7103 7.27759 12.7103H6.26302C6.02151 12.7103 5.925 12.6135 5.925 12.372V6.8169C5.925 6.23712 5.77999 5.85083 5.58673 5.56106C5.39371 5.27105 5.05544 5.12628 4.57241 5.12628C3.70285 5.12628 2.88155 5.41606 2.06049 5.89909V12.4205C2.06049 12.662 1.96374 12.7585 1.72222 12.7585H0.707901C0.466384 12.7585 0.369873 12.662 0.369873 12.4205V4.40173C0.369873 4.15998 0.466384 4.06347 0.707901 4.06347H1.48071C1.57746 4.06347 1.67397 4.06347 1.72222 4.11172C1.81897 4.15998 1.86723 4.20847 1.86723 4.35324L1.96374 4.88453C3.02656 4.15998 4.08937 3.77369 5.15195 3.77369C6.21477 3.77369 6.93932 4.15998 7.32584 4.98128C8.43691 4.15998 9.59624 3.77369 10.7071 3.77369C11.5284 3.77369 12.1082 4.01521 12.5429 4.44999C12.9775 4.88453 13.1707 5.51257 13.1707 6.33387V12.372ZM18.5328 11.5992C19.3538 11.5992 20.1751 11.3094 20.9962 10.7779V4.35319C20.9962 4.15993 21.0929 4.01517 21.3827 4.01517H22.3973C22.6388 4.01517 22.7353 4.11168 22.7353 4.35319V12.3237C22.7353 12.5652 22.6388 12.662 22.3973 12.662H21.6725C21.5277 12.662 21.4312 12.662 21.3827 12.6135C21.2862 12.5652 21.2379 12.517 21.2379 12.372L21.1412 11.7924C20.0786 12.5652 18.9675 12.9518 17.8565 12.9518C17.0352 12.9518 16.4074 12.7102 15.9724 12.2755C15.5378 11.8407 15.3446 11.1644 15.3446 10.3433V4.35319C15.3446 4.11168 15.4411 4.01517 15.6826 4.01517H16.6971C16.9387 4.01517 17.0352 4.11168 17.0352 4.35319V9.81181C17.0352 10.4398 17.1319 10.8746 17.3734 11.1644C17.615 11.4542 18.0012 11.5992 18.5328 11.5992ZM40.1739 23.6757C42.6859 21.5501 43.3621 17.1543 42.8309 16.478C42.5893 16.1882 41.43 15.8984 39.9807 15.8984C38.4351 15.8984 36.5994 16.2365 35.1986 17.2025C34.7638 17.4925 34.8603 17.8788 35.2951 17.8306C36.7927 17.6373 40.1739 17.251 40.802 18.0238C41.3815 18.7966 40.1257 21.9851 39.5461 23.3859C39.4011 23.8205 39.7392 23.9655 40.1739 23.6757ZM38.1451 19.1348C32.8797 21.357 27.1313 22.4678 21.9145 22.4678C14.1855 22.4678 6.69796 20.3424 0.659798 16.8162L0.657663 16.8151C0.561628 16.7672 0.465827 16.7194 0.370026 16.7194C0.0317594 16.7194 -0.161502 17.106 0.176765 17.444C5.78014 22.5163 13.2194 25.5595 21.4312 25.5595C27.3246 25.5595 34.1358 23.7239 38.8214 20.2459C39.6427 19.6661 38.9664 18.7966 38.1451 19.1348Z" fill="white"/>
</svg>
