<svg width="68" height="16" viewBox="0 0 68 16" fill="none" xmlns="http://www.w3.org/2000/svg">
<path fill-rule="evenodd" clip-rule="evenodd" d="M9.47462 0.319996C9.47462 1.12019 9.19872 1.86685 8.64694 2.56038C7.97084 3.39216 7.2008 3.7657 6.33681 3.68057C6.32655 3.62683 6.32122 3.57636 6.32122 3.52795V3.37637C6.32122 2.60817 6.60245 1.88859 7.16408 1.21598C7.44551 0.875271 7.80182 0.592198 8.2334 0.36779C8.6656 0.144203 9.0738 0.0213331 9.45903 0C9.46928 0.0533326 9.47462 0.10646 9.47462 0.160203V0.319996ZM10.614 8.48062C10.5927 7.17889 11.1549 6.16557 12.2995 5.44025C11.654 4.50159 10.702 3.97401 9.44316 3.85606C8.99537 3.81401 8.42287 3.91986 7.72647 4.17626C6.97735 4.454 6.55561 4.59205 6.46207 4.59205C6.26433 4.59205 5.88464 4.47534 5.32198 4.24006C4.76055 4.00539 4.28159 3.88806 3.8861 3.88806C3.22027 3.89893 2.60079 4.08293 2.02869 4.44006C1.45639 4.79759 0.998756 5.28599 0.655581 5.90404C0.218049 6.67244 0 7.58996 0 8.65641C0 9.6164 0.160818 10.5762 0.483276 11.5368C0.785016 12.4543 1.17065 13.2596 1.63834 13.9523C2.05413 14.5819 2.41966 15.0405 2.73084 15.3289C3.17883 15.7767 3.63606 15.9905 4.10497 15.9687C4.40651 15.9577 4.80158 15.8459 5.2908 15.6319C5.74823 15.4303 6.20648 15.3287 6.66453 15.3287C7.09099 15.3287 7.53283 15.4297 7.99128 15.6319C8.50081 15.8459 8.91742 15.9523 9.23988 15.9523C9.71864 15.9314 10.1658 15.7232 10.5826 15.3289C10.7277 15.2003 10.8866 15.0245 11.0581 14.8005C11.2561 14.5396 11.4462 14.2729 11.6282 14.0005C11.7798 13.7657 11.923 13.5256 12.0575 13.2806C12.2018 13.0167 12.3295 12.7441 12.4398 12.4644C12.4913 12.347 12.5381 12.2272 12.5801 12.1046C12.6216 11.9819 12.6632 11.857 12.7049 11.7288C12.3198 11.5585 11.9711 11.3175 11.6591 11.008C10.9732 10.3263 10.6245 9.48327 10.614 8.48062ZM21.9322 11.3331H21.8565L18.6867 4.08927H16.1975V15.7767H18.3669V8.20737H18.4676L21.1166 14.218H22.638L25.2786 8.20737H25.3798V15.7767H27.5742V4.08927H25.102L21.9322 11.3331ZM52.9293 4.08927H55.3676V15.7769H52.9293V4.08927ZM64.9431 8.25908C64.9431 7.06033 64.1784 5.94711 62.7323 5.94711C61.2777 5.94711 60.3272 7.05151 60.3272 9.29599V10.6137C60.3272 12.866 61.2691 13.9193 62.7495 13.9193C64.1952 13.9193 64.9433 12.9177 64.9433 11.7099H67.2813V11.9667C67.2813 14.0898 65.6245 15.9999 62.7066 15.9999C59.6544 15.9999 57.8552 14.0213 57.8552 10.6057V9.28696C57.8552 5.87039 59.6712 3.86693 62.7152 3.86693C65.5575 3.86693 67.2813 5.75039 67.2813 8.01067V8.25908H64.9431ZM36.9001 11.4697C36.9001 13.0371 35.9836 13.9015 34.6384 13.9015C33.2846 13.9015 32.3683 13.0453 32.3683 11.4697V4.08927H29.9464V11.8122C29.9464 14.3045 31.7119 15.9997 34.638 15.9997C37.5559 15.9997 39.3298 14.3045 39.3298 11.8122V4.08927H36.9001V11.4697ZM45.6569 8.57648L47.3971 8.96991C49.079 9.3375 50.5001 10.1681 50.5009 12.2915C50.5009 14.5871 48.7432 15.9998 45.9014 15.9998C42.5211 15.9998 41.4282 14.0732 41.3939 12.4205H43.7318C43.7986 13.2855 44.5639 14.0564 46.0187 14.0564C47.3721 14.0564 48.0954 13.4398 48.0954 12.5315C48.0954 11.7358 47.5069 11.3502 46.3465 11.0848L44.623 10.6827C43.0087 10.3307 41.6631 9.40662 41.6631 7.42019C41.6631 5.12565 43.5804 3.84957 46.0101 3.84957C48.575 3.84957 50.2984 5.28791 50.3237 7.35168H48.0533C47.9947 6.52953 47.3305 5.76749 46.0021 5.76749C44.8243 5.76749 44.093 6.33282 44.093 7.23147C44.093 7.90818 44.6312 8.36171 45.6569 8.57648Z" fill="white"/>
</svg>
