<svg xmlns="http://www.w3.org/2000/svg" width="219" height="146" viewBox="0 0 219 146">
  <g fill="none" fill-rule="evenodd">
    <rect width="219" height="145"/>
    <path fill="#FFF" fill-rule="nonzero" d="M21.2280355,16.9614236 C21.1853694,14.3579698 22.3098678,12.3313291 24.5990692,10.880681 C23.3080089,9.00337175 21.4040333,7.94820579 18.886322,7.71231138 C17.9907437,7.62820989 16.8457327,7.83989949 15.4529301,8.35271343 C13.9546929,8.90819348 13.1112165,9.18429251 12.924142,9.18429251 C12.5286599,9.18429251 11.769285,8.9508596 10.6439661,8.48030153 C9.5211087,8.01097422 8.56317227,7.77631056 7.77220805,7.77631056 C6.44053281,7.79805387 5.20157434,8.16604915 4.05738388,8.88029641 C2.91278317,9.59536416 1.99751285,10.5721722 1.31116268,11.8082589 C0.436096973,13.3450597 1.98951966e-13,15.1801131 1.98951966e-13,17.3130088 C1.98951966e-13,19.2329842 0.321636902,21.1525493 0.966551711,23.0737555 C1.57003115,24.9088089 2.34130332,26.5194549 3.27667594,27.904873 C4.10825502,29.1639338 4.83932257,30.0812554 5.46167357,30.6580685 C6.35766208,31.5536467 7.2721119,31.9811284 8.20994603,31.9376418 C8.81301522,31.9154883 9.60315893,31.6919014 10.5816079,31.2640094 C11.496468,30.8607326 12.4129691,30.6576582 13.3290599,30.6576582 C14.181972,30.6576582 15.065653,30.8595018 15.9825643,31.2640094 C17.0016282,31.6919014 17.8348483,31.9048217 18.4797631,31.9048217 C19.4372893,31.8629761 20.3316368,31.4465712 21.1652671,30.6580685 C21.4553147,30.400841 21.7732593,30.0492558 22.1162293,29.6012615 C22.5121671,29.0794516 22.8923673,28.5458853 23.2563172,28.001282 C23.5595855,27.5316623 23.8459865,27.0513624 24.1149729,26.5613005 C24.4035283,26.0335795 24.6589257,25.4883937 24.879681,24.9289112 C24.9826541,24.6942475 25.0761913,24.4546608 25.1602928,24.2093306 C25.2431635,23.9640005 25.3264445,23.7141575 25.4097255,23.4577505 C24.6396841,23.1172421 23.9422572,22.635197 23.3182652,22.016128 C21.9463853,20.6528634 21.2489583,18.9667312 21.2280355,16.9614236 L21.2280355,16.9614236 Z M43.8644633,22.6663761 L43.7130806,22.6663761 L37.3734696,8.17876694 L32.3950719,8.17876694 L32.3950719,31.5536467 L36.733888,31.5536467 L36.733888,16.414969 L36.9353213,16.414969 L42.2333047,28.4361483 L45.2761375,28.4361483 L50.5573005,16.414969 L50.7595544,16.414969 L50.7595544,31.5536467 L55.1484212,31.5536467 L55.1484212,8.17876694 L50.2040743,8.17876694 L43.8644633,22.6663761 Z M17.293727,5.12075486 C18.3973026,3.73369572 18.9490904,2.24038153 18.9490904,0.639991795 L18.9490904,0.320406149 C18.9490904,0.212920347 18.9384239,0.106665299 18.9179113,0 C18.1474596,0.0426661197 17.3310599,0.288406559 16.4666607,0.735580313 C15.6034923,1.18439507 14.890886,1.75054166 14.3280214,2.43196882 C13.2047538,3.77718234 12.6422995,5.21634338 12.6422995,6.75273394 L12.6422995,7.05590954 C12.6422995,7.15272881 12.652966,7.25365059 12.6734785,7.3611364 C14.4014564,7.53139062 15.9415392,6.78432328 17.293727,5.12075486 Z M105.858745,8.17876694 L110.735401,8.17876694 L110.735401,31.554057 L105.858745,31.554057 L105.858745,8.17876694 Z M125.464238,11.8944116 C128.356508,11.8944116 129.885925,14.1208446 129.885925,16.5183523 L134.562377,16.5183523 L134.562377,16.0215382 C134.562377,11.5009808 131.114627,7.73405469 125.430187,7.73405469 C119.34206,7.73405469 115.710106,11.7409777 115.710106,18.5741208 L115.710106,21.2116255 C115.710106,28.0427174 119.308419,32 125.412956,32 C131.248779,32 134.562377,28.1797413 134.562377,23.9336419 L134.562377,23.4200074 L129.886335,23.4200074 C129.886335,25.8355662 128.390149,27.8388226 125.498699,27.8388226 C122.537916,27.8388226 120.654043,25.7321829 120.654043,21.2276253 L120.654043,18.5921719 C120.654043,14.1032038 122.555147,11.8944116 125.464238,11.8944116 L125.464238,11.8944116 Z M73.8000795,22.9396033 C73.8000795,26.0743324 71.9670773,27.8031307 69.2766503,27.8031307 C66.5689927,27.8031307 64.7364008,26.0907424 64.7364008,22.9396033 L64.7364008,8.17876694 L59.8925655,8.17876694 L59.8925655,23.6247228 C59.8925655,28.6092742 63.4235971,31.9995897 69.2758298,31.9995897 C75.1116524,31.9995897 78.6595044,28.6092742 78.6595044,23.6247228 L78.6595044,8.17876694 L73.8000795,8.17876694 L73.8000795,22.9396033 Z M94.7942719,17.9398726 L91.3137011,17.1530109 C89.2624454,16.7234779 88.1859463,15.8164126 88.1859463,14.4629941 C88.1859463,12.6656838 89.6484917,11.5350316 92.0041538,11.5350316 C94.6609402,11.5350316 95.9893335,13.0591146 96.1066653,14.7034012 L100.647325,14.7034012 C100.596864,10.5758644 97.149934,7.69918334 92.0201536,7.69918334 C87.1607287,7.69918334 83.3261112,10.2513558 83.3261112,14.8404251 C83.3261112,18.8132973 86.0173588,20.6614787 89.2460353,21.3654697 L92.6929655,22.1695619 C95.0137562,22.7004269 96.1907668,23.4716991 96.1907668,25.0630633 C96.1907668,26.8796554 94.7442212,28.1128703 92.0373841,28.1128703 C89.127883,28.1128703 87.5972359,26.5711465 87.4634941,24.8411174 L82.7878617,24.8411174 C82.8563736,28.1465109 85.0421918,31.9995897 91.8027205,31.9995897 C97.4863399,31.9995897 101.001782,29.1741901 101.001782,24.5830694 C101.000141,20.3361495 98.1579211,18.6750426 94.7942719,17.9398726 Z" transform="translate(42 56)"/>
  </g>
</svg>
