<svg xmlns="http://www.w3.org/2000/svg" width="219" height="146" viewBox="0 0 219 146">
  <g fill="none" fill-rule="evenodd">
    <rect width="219" height="145"/>
    <path fill="#FFF" fill-rule="nonzero" d="M121.677582,66.4344888 C127.398961,66.4344888 131.285858,70.0593164 131.285858,75.7393164 C131.286777,76.4490635 131.222563,77.1571057 131.094491,77.8545827 L131.009996,78.2717302 L116.94103,78.2717302 C116.985168,81.4165578 119.429306,83.2069026 122.40034,83.2069026 C124.84543,83.2069026 126.436731,82.1088076 127.134516,79.9175834 L127.205858,79.6786268 L131.986547,81.546213 C130.543789,85.5655233 127.18103,88.0124199 122.331375,88.0124199 C115.912065,88.0124199 111.368616,83.6427647 111.368616,77.0910406 C111.368616,71.1958681 115.56172,66.4344888 121.677582,66.4344888 Z M89.241168,57 L89.241168,87.5737992 L83.8701335,87.5737992 L83.8701335,84.6055233 C82.5156508,86.7434543 80.1570301,88.0124199 77.2301335,88.0124199 C71.379099,88.0124199 67.2715128,83.7310406 67.2715128,77.3117302 C67.2715128,70.804144 71.4204783,66.4344888 77.1004783,66.4344888 C79.9237839,66.4344888 82.219901,67.738316 83.5170647,69.7550225 L83.6522025,69.9737992 L83.6522025,57 L89.241168,57 Z M161.497996,66.4344888 C167.219375,66.4344888 171.106271,70.0593164 171.106271,75.7393164 C171.107191,76.4490635 171.043168,77.1571057 170.915001,77.8545827 L170.830409,78.2717302 L156.761444,78.2717302 C156.805582,81.4165578 159.24972,83.2069026 162.220754,83.2069026 C164.668507,83.2069026 166.257328,82.1088076 166.952456,79.9175834 L167.023513,79.6786268 L171.806961,81.546213 C170.364202,85.5655233 167.001444,88.0124199 162.151789,88.0124199 C155.732478,88.0124199 151.18903,83.6427647 151.18903,77.0910406 C151.18903,71.1958681 155.382134,66.4344888 161.497996,66.4344888 Z M101.020754,66.4344888 C106.742134,66.4344888 110.62903,70.0593164 110.62903,75.7393164 C110.634777,76.4486957 110.574816,77.1567724 110.449784,77.8544467 L110.366961,78.2717302 L96.2979956,78.2717302 C96.3421335,81.4165578 98.7862714,83.2069026 101.757306,83.2069026 C104.202395,83.2069026 105.793696,82.1088076 106.491481,79.9175834 L106.562823,79.6786268 L111.32972,81.546213 C109.886961,85.5655233 106.524202,88.0124199 101.674547,88.0124199 C95.255237,88.0124199 90.7117887,83.6427647 90.7117887,77.0910406 C90.7117887,71.1958681 94.9048921,66.4344888 101.020754,66.4344888 Z M150.612478,66.8703509 L150.612478,71.4579371 L139.211099,82.5503509 L150.918685,82.5503509 L150.918685,87.5737992 L132.223513,87.5737992 L132.223513,82.7710406 L143.580754,71.6758681 L132.573858,71.6758681 L132.573858,66.8703509 L150.612478,66.8703509 Z M183.779375,66.4344888 C187.492478,66.4344888 189.718685,69.0110406 189.718685,72.5503509 C189.72332,73.0989854 189.684699,73.6469137 189.603106,74.189051 L189.533858,74.5944888 L184.234547,74.5944888 C184.281996,74.2498819 184.305168,73.9023509 184.303513,73.5544888 C184.303513,72.026213 183.255237,70.9779371 181.682823,70.9779371 C179.998981,70.9779371 178.882024,72.0732327 178.80439,74.0313163 L178.800065,74.2524199 L178.800065,87.5627647 L173.211099,87.5627647 L173.211099,66.8731095 L178.800065,66.8731095 L178.800065,69.5351785 C179.674547,67.6151785 181.376616,66.4344888 183.779375,66.4344888 Z M36.8496646,83.5544888 L36.8496646,87.5517302 L30,87.5517302 L30,83.5544888 L36.8496646,83.5544888 Z M45.1255266,83.5544888 L45.1255266,87.5517302 L38.2758714,87.5517302 L38.2758714,83.5544888 L45.1255266,83.5544888 Z M53.4040646,83.5544888 L53.4040646,87.5517302 L46.5544094,87.5517302 L46.5544094,83.5544888 L53.4040646,83.5544888 Z M61.6800646,83.5544888 L61.6800646,87.5517302 L54.8302714,87.5517302 L54.8302714,83.5544888 L61.6800646,83.5544888 Z M78.3639266,71.2565578 C75.2494439,71.2565578 72.8466852,73.6124199 72.8466852,77.3255233 C72.8466852,80.9944888 75.263237,83.2648337 78.3639266,83.2648337 C81.3763404,83.2648337 83.8673749,80.9806957 83.8673749,77.3255233 C83.8673749,73.6151785 81.3763404,71.2565578 78.3639266,71.2565578 Z M61.6800646,77.9875923 L61.6800646,81.9848337 L54.8302714,81.9848337 L54.8302714,77.9875923 L61.6800646,77.9875923 Z M53.4040646,77.9875923 L53.4040646,81.9848337 L46.5544094,81.9848337 L46.5544094,77.9875923 L53.4040646,77.9875923 Z M45.1255266,77.9875923 L45.1255266,81.9848337 L38.2758714,81.9848337 L38.2758714,77.9875923 L45.1255266,77.9875923 Z M61.6800646,72.4234543 L61.6800646,76.4206957 L54.8302714,76.4206957 L54.8302714,72.4234543 L61.6800646,72.4234543 Z M45.1255266,72.4234543 L45.1255266,76.4206957 L38.2758714,76.4206957 L38.2758714,72.4234543 L45.1255266,72.4234543 Z M121.658271,70.9337992 C119.463605,70.9337992 117.593738,72.1994881 116.998067,74.3346614 L116.94103,74.5586268 L125.807237,74.5586268 L125.851375,74.3848337 C125.851375,72.2882819 124.14103,70.9337992 121.658271,70.9337992 Z M161.478685,70.9337992 C159.281352,70.9337992 157.413974,72.1994881 156.813488,74.3346614 L156.755927,74.5586268 L165.627651,74.5586268 L165.671789,74.3848337 C165.671789,72.2882819 163.961444,70.9337992 161.478685,70.9337992 Z M101.015237,70.9337992 C98.8205703,70.9337992 96.9507036,72.1994881 96.3550325,74.3346614 L96.2979956,74.5586268 L105.164202,74.5586268 L105.20834,74.3848337 C105.20834,72.2882819 103.497996,70.9337992 101.015237,70.9337992 Z M61.6800646,66.8565578 L61.6800646,70.8537992 L54.8302714,70.8537992 L54.8302714,66.8565578 L61.6800646,66.8565578 Z"/>
  </g>
</svg>
