<svg width="77" height="10" viewBox="0 0 77 10" fill="none" xmlns="http://www.w3.org/2000/svg">
<g clip-path="url(#clip0)">
<path d="M5.9991 2.9198C5.9991 3.89355 5.46083 4.70103 4.30131 4.70103H3.12091V1.09804H4.30131C5.46091 1.09804 5.9991 1.92624 5.9991 2.9198ZM3.12091 6.48196V5.46752H4.30131C6.43435 5.46752 7.61452 4.34892 7.61452 2.91972C7.61452 1.44961 6.43435 0.352425 4.30131 0.352425H0.0146484V0.766721C1.40201 0.766721 1.65057 1.09804 1.65057 3.16828V6.48196C1.65057 8.55267 1.40201 8.90463 0.0146484 8.90463V9.3187H4.75659V8.90463C3.36924 8.90471 3.12091 8.55267 3.12091 6.48196ZM11.5547 6.3576H14.9511L15.3652 7.31001C15.883 8.53179 15.7379 8.88398 14.2466 8.88398V9.31885H18.8853V8.88398C17.7879 8.88398 17.5398 8.63565 16.8562 7.08256L13.8119 0H13.5222L10.4782 7.08256C9.79464 8.63565 9.60841 8.88398 8.34495 8.88398V9.31885H12.2589V8.88398C10.6232 8.88398 10.6232 8.53187 11.1403 7.31001L11.5547 6.3576ZM14.6196 5.5918H11.8862L13.2532 2.42344L14.6196 5.5918ZM21.9285 3.16844V6.48188C21.9285 8.55275 21.6802 8.90471 20.2924 8.90471V9.31885H24.3305V8.90471C22.9429 8.90471 22.6944 8.55275 22.6944 6.48188V2.42329L28.7207 9.65001H29.1141V3.16844C29.1141 1.09819 29.3626 0.766644 30.7498 0.766644V0.352348H26.7123V0.766644C28.0994 0.766644 28.3477 1.09819 28.3477 3.16844V6.89572L22.8397 0.352348H20.2924V0.766644C21.6802 0.766644 21.9285 1.09819 21.9285 3.16844ZM40.3642 4.82508C40.3642 6.48188 39.8262 8.55259 37.0926 8.55259H36.9272C35.8917 8.55259 35.7464 8.32491 35.7464 6.97878V1.09819H37.0926C39.8261 1.09819 40.3642 3.18963 40.3642 4.82508ZM32.6401 9.31893H37.0305C40.5508 9.31893 42.0831 7.28913 42.0831 4.82508C42.0831 2.38168 40.5508 0.352348 37.0305 0.352348H32.6401V0.766644C34.0279 0.766644 34.2766 1.09819 34.2766 3.16844V6.48188C34.2766 8.55259 34.0278 8.90479 32.6401 8.90479V9.31893ZM54.3669 4.82508C54.3669 2.19545 52.0891 7.70487e-05 49.3144 7.70487e-05C46.5393 7.70487e-05 44.261 2.19538 44.261 4.82508C44.261 7.49632 46.5393 9.6712 49.3144 9.6712C52.089 9.6712 54.3669 7.49632 54.3669 4.82508ZM52.6682 4.82508C52.6682 6.6265 51.7578 8.86349 49.3144 8.86349C46.8706 8.86349 45.9595 6.62658 45.9595 4.82508C45.9595 3.04454 46.8706 0.786909 49.3144 0.786909C51.7578 0.786909 52.6682 3.04454 52.6682 4.82508ZM62.2666 2.9198C62.2666 3.89355 61.7287 4.70103 60.5687 4.70103H59.3881V1.09804H60.5687C61.7287 1.09804 62.2666 1.92624 62.2666 2.9198ZM61.3765 5.42592C62.9293 5.21896 63.882 4.18318 63.882 2.91972C63.882 1.44961 62.7018 0.352425 60.5688 0.352425H56.2818V0.766721C57.6698 0.766721 57.9176 1.09804 57.9176 3.16828V6.48196C57.9176 8.55267 57.6698 8.90463 56.2818 8.90463V9.3187H61.0242V8.90463C59.6366 8.90463 59.3881 8.55267 59.3881 6.48196V5.46752H59.9679L62.7848 9.3187H65.4355V8.90463C64.4416 8.75978 63.4885 7.9523 62.6608 6.97878L61.3765 5.42592ZM69.6568 6.3576H73.0532L73.4667 7.31001C73.9844 8.53179 73.84 8.88398 72.3487 8.88398V9.31885H76.9873V8.88398C75.8901 8.88398 75.6413 8.63565 74.9577 7.08256L71.9144 0H71.6239L68.5799 7.08256C67.8961 8.63565 67.7105 8.88398 66.4475 8.88398V9.31885H70.3611V8.88398C68.7254 8.88398 68.7254 8.53187 69.2425 7.31001L69.6568 6.3576ZM72.722 5.5918H69.988L71.3553 2.42344L72.722 5.5918Z" fill="#336699"/>
</g>
<defs>
<clipPath id="clip0">
<rect width="77" height="9.6712" fill="white"/>
</clipPath>
</defs>
</svg>
