<svg xmlns="http://www.w3.org/2000/svg" width="219" height="146" viewBox="0 0 219 146">
  <path fill="#FFF" d="M91.5649123,8.54736842 C88.5684211,8.54736842 86.1122807,10.954386 86.1122807,14 C86.1122807,16.9964912 88.5684211,19.4526316 91.5649123,19.4526316 C94.5614035,19.4526316 97.0175439,16.9964912 97.0175439,14 C97.0175439,11.0035088 94.5614035,8.54736842 91.5649123,8.54736842 Z M91.5649123,4.9122807 C96.5754386,4.9122807 100.652632,8.94035088 100.652632,14 C100.652632,19.0105263 96.5754386,23.0877193 91.5649123,23.0877193 C86.554386,23.0877193 82.477193,19.0105263 82.477193,14 C82.477193,8.98947368 86.554386,4.9122807 91.5649123,4.9122807 Z M35.1719298,5.45263158 L38.5122807,5.45263158 L38.5122807,22.4491228 L35.1719298,22.4491228 L35.1719298,20.9754386 C33.6,22.2526316 31.5859649,23.0385965 29.4245614,23.0385965 C24.4140351,23.0385965 20.3368421,18.9614035 20.3368421,13.9508772 C20.3368421,8.94035088 24.4140351,4.86315789 29.4245614,4.86315789 C31.5859649,4.86315789 33.6,5.64912281 35.1719298,6.92631579 L35.1719298,5.45263158 Z M29.6210526,19.6491228 C32.7157895,19.6491228 35.2701754,17.0947368 35.2701754,14 C35.2701754,10.9052632 32.7649123,8.35087719 29.6210526,8.35087719 C26.5263158,8.35087719 23.9719298,10.8561404 23.9719298,14 C23.9719298,17.0947368 26.477193,19.6491228 29.6210526,19.6491228 Z M127.768421,5.45263158 L131.108772,5.45263158 L131.108772,22.4491228 L127.768421,22.4491228 L127.768421,20.9754386 C126.196491,22.2526316 124.182456,23.0385965 122.021053,23.0385965 C117.010526,23.0385965 112.933333,18.9614035 112.933333,13.9508772 C112.933333,8.94035088 117.010526,4.86315789 122.021053,4.86315789 C124.182456,4.86315789 126.196491,5.64912281 127.768421,6.92631579 L127.768421,5.45263158 Z M122.266667,19.6491228 C125.361404,19.6491228 127.915789,17.0947368 127.915789,14 C127.915789,10.9052632 125.410526,8.35087719 122.266667,8.35087719 C119.17193,8.35087719 116.617544,10.8561404 116.617544,14 C116.617544,17.0947368 119.122807,19.6491228 122.266667,19.6491228 Z M106.645614,6.53333333 C109.298246,4.81403509 112.442105,4.9122807 112.491228,4.9122807 L112.491228,8.54736842 C112.491228,8.54736842 106.645614,8.25263158 106.645614,13.9017544 L106.645614,22.4982456 L103.010526,22.4982456 L103.010526,13.9017544 C103.010526,9.97192982 104.680702,7.76140351 106.645614,6.53333333 Z M55.8035088,6.72982456 C58.0140351,8.35087719 59.4385965,11.0035088 59.4385965,14 L59.4385965,22.5473684 L55.8035088,22.5473684 L55.8035088,14 C55.8035088,11.0035088 53.3473684,8.54736842 50.3508772,8.54736842 C47.354386,8.54736842 44.8982456,11.0035088 44.8982456,14 L44.8982456,22.5473684 L41.2631579,22.5473684 L41.2631579,14 C41.2631579,11.0526316 42.6877193,8.4 44.8982456,6.72982456 C46.4210526,5.6 48.2877193,4.9122807 50.3508772,4.9122807 C52.4140351,4.9122807 54.2807018,5.6 55.8035088,6.72982456 Z M78.3508772,0 L80.0210526,0 L80.0210526,22.4491228 L76.6807018,22.4491228 L76.6807018,20.9754386 C75.1087719,22.2526316 73.0947368,23.0385965 70.9333333,23.0385965 C65.922807,23.0385965 61.845614,18.9614035 61.845614,13.9508772 C61.845614,8.94035088 65.922807,4.86315789 70.9333333,4.86315789 C73.0947368,4.86315789 75.1087719,5.64912281 76.6807018,6.92631579 L76.6807018,1.67017544 C76.6807018,0.736842105 77.4175439,0 78.3508772,0 Z M71.1298246,19.6491228 C74.2736842,19.6491228 76.8280702,17.0947368 76.7789474,14 C76.7789474,10.9052632 74.2736842,8.35087719 71.1298246,8.35087719 C68.0350877,8.35087719 65.4807018,10.8561404 65.4807018,14 C65.4807018,17.0947368 67.9859649,19.6491228 71.1298246,19.6491228 Z M9.0877193,4.9122807 C14.1473684,4.9122807 18.1754386,8.94035088 18.1754386,14 C18.1754386,19.0105263 14.1473684,23.0877193 9.0877193,23.0877193 C6.92631579,23.0877193 4.9122807,22.3017544 3.34035088,21.0245614 L3.34035088,26.3298246 C3.34035088,27.2631579 2.60350877,28 1.67017544,28 L0,28 L0,5.50175439 L3.34035088,5.50175439 L3.34035088,6.9754386 C4.9122807,5.69824561 6.92631579,4.9122807 9.0877193,4.9122807 Z M8.89122807,19.6491228 C12.0350877,19.6491228 14.5403509,17.0947368 14.5403509,14 C14.5403509,10.9052632 11.9859649,8.35087719 8.89122807,8.35087719 C5.79649123,8.35087719 3.24210526,10.8561404 3.24210526,14 C3.24210526,17.0947368 5.74736842,19.6491228 8.89122807,19.6491228 Z M134.498246,5.45263158 C133.564912,5.45263158 132.82807,4.71578947 132.82807,3.78245614 C132.82807,2.84912281 133.564912,2.1122807 134.498246,2.1122807 C135.431579,2.1122807 136.168421,2.84912281 136.168421,3.78245614 C136.168421,4.71578947 135.431579,5.45263158 134.498246,5.45263158 Z M134.498246,2.30877193 C133.663158,2.30877193 133.024561,2.94736842 133.024561,3.78245614 C133.024561,4.56842105 133.663158,5.25614035 134.498246,5.25614035 C135.333333,5.25614035 135.97193,4.56842105 135.97193,3.78245614 C135.97193,2.94736842 135.284211,2.30877193 134.498246,2.30877193 Z M134.940351,4.76491228 L134.449123,4.02807018 L134.105263,4.02807018 L134.105263,4.76491228 L133.859649,4.76491228 L133.859649,2.84912281 L134.645614,2.84912281 C134.989474,2.84912281 135.235088,3.09473684 135.235088,3.43859649 C135.235088,3.88070175 134.842105,4.02807018 134.74386,4.02807018 L135.235088,4.81403509 L134.940351,4.81403509 L134.940351,4.76491228 Z M134.645614,3.04561404 L134.105263,3.04561404 L134.105263,3.78245614 L134.645614,3.78245614 C134.792982,3.78245614 134.989474,3.63508772 134.989474,3.43859649 C134.989474,3.19298246 134.792982,3.04561404 134.645614,3.04561404 Z" transform="translate(41 59)"/>
</svg>
