<svg xmlns="http://www.w3.org/2000/svg" width="219" height="146" viewBox="0 0 219 146">
  <g fill="none" fill-rule="evenodd">
    <rect width="219" height="145"/>
    <path fill="#FFFFFE" d="M100.851079,49 L119.184392,49 L120.185746,49.0070566 C123.17917,49.0394226 125.077886,49.1825835 127.08707,49.8178172 C129.918866,50.8485602 132.149219,53.0792022 133.179577,55.9109985 C133.942589,58.3235865 133.995822,60.5767037 133.999536,64.7582741 L133.998345,81.9165116 L133.993122,82.901285 C133.966572,86.0590624 133.834688,88.0128888 133.179577,90.0844568 C132.149219,92.9161567 129.918866,95.1467987 127.08707,96.1774453 C124.674303,96.9403675 122.420839,96.9935947 118.23961,96.9973082 L101.080825,96.9961176 L100.096102,96.9908952 C96.9384462,96.9643481 94.9843123,96.8324795 92.9127444,96.1774453 C90.0809481,95.1467987 87.8505953,92.9161567 86.8202378,90.0844568 C86,87.4907319 86,85.0815845 86,80.262808 L86.002367,63.8134241 L86.0093889,62.8120201 C86.0416602,59.8184846 86.1848548,57.9200332 86.8202378,55.9109985 C87.8505953,53.0792022 90.0809481,50.8485602 92.9127444,49.8178172 C95.1445542,49.112197 97.2400595,49.0137384 100.851079,49 Z M117.378152,52.0829331 L102.621663,52.0829331 L101.60773,52.0862602 L100.943812,52.0918003 C98.2379743,52.1220694 96.274727,52.2506744 94.546473,52.7970828 C92.0790127,53.6953926 90.6978132,55.0764957 89.7995034,57.5443415 C89.1251927,59.6754176 89.0866607,62.1639693 89.0844589,65.9612774 L89.0854438,80.7309687 L89.0907161,81.7548831 C89.115122,84.6160319 89.2327337,86.6597547 89.7995034,88.4511137 C90.6978132,90.9188632 92.0790127,92.2999663 94.546473,93.1981797 C96.542137,93.829218 98.8511403,93.9030833 102.255036,93.9120284 L117.036516,93.9127424 C120.833885,93.910542 123.322265,93.8720359 125.453342,93.1981797 C127.920802,92.2999663 129.302001,90.9188632 130.200311,88.4511137 C130.874622,86.3198558 130.913154,83.8313795 130.915356,80.0340806 L130.914371,65.2643869 L130.909098,64.2404668 C130.884693,61.3792994 130.767081,59.3355477 130.200311,57.5443415 C129.302001,55.0764957 127.920802,53.6953926 125.453342,52.7970828 C123.386844,52.1437345 120.984368,52.0877332 117.378152,52.0829331 Z M127.925377,82.5603655 L127.928513,82.6229916 L127.928513,84.3145514 C127.928513,88.0601692 125.394456,90.8355495 121.679419,90.9241035 L121.495766,90.9262849 L113.37628,90.9262849 C113.032185,90.9262849 112.240862,90.3829617 112.863511,89.6279766 C117.026386,85.1546445 122.222511,83.5995662 127.16707,81.9458858 C127.755896,81.7716915 127.903421,82.317837 127.925377,82.5603655 Z M121.495766,55.069074 C125.243471,55.069074 127.843572,57.6020108 127.926471,61.3826458 L127.928513,61.569579 L127.928513,68.2216979 L127.924382,68.30603 C127.907433,68.4751361 127.829014,68.7150194 127.525623,68.8778881 C115.863017,74.9557441 111.483275,84.8857299 109.928582,90.1675408 L109.846095,90.3972989 C109.737077,90.685367 109.615962,90.8923507 109.291229,90.9224898 L109.205693,90.9262849 L106.906907,90.9262849 C106.446186,90.9202126 106.348837,90.7389121 106.244741,90.0874447 L106.195502,89.7348204 L106.111315,89.1821464 C105.169133,83.2979786 102.204892,73.9723784 92.4096138,66.984787 L92.3344597,66.9258116 C92.2103172,66.8228606 92.0970986,66.6880504 92.0750884,66.3928818 L92.0713018,66.299392 L92.0713018,61.569579 C92.0713018,56.3680569 95.5826136,55.077074 97.2095952,55.077074 C97.5315217,55.0864233 97.8100749,55.1605435 98.003809,55.4870965 L99.2582844,58.2332491 L99.8404077,59.5240356 C103.703627,68.1478361 106.23544,75.1132077 107.883289,89.1672555 L107.887765,89.2607888 L107.895584,89.3401651 C107.919905,89.5182059 107.982261,89.5331082 108.132927,89.1567495 L108.369179,88.6273795 L108.653545,87.9650958 C110.620148,83.2951469 115.554997,69.7416942 113.28375,55.8959624 C113.219342,55.3925823 113.591222,55.1042726 113.908409,55.0720956 L113.967121,55.069074 L121.495766,55.069074 Z M92.8684072,83.1710377 L94.0833009,83.5462271 L94.8168643,83.7791935 C98.1626101,84.8618542 101.542207,86.2773331 104.126195,89.6970848 C104.46519,90.1760187 104.195164,90.8639492 103.63339,90.9223116 L103.558486,90.9262849 L98.56959,90.9262849 C94.7355409,90.9262849 92.1542436,88.5920779 92.0732637,84.513272 L92.0713018,84.3145514 L92.0713018,83.8791795 L92.0754075,83.816869 C92.1024511,83.5847786 92.2727927,83.055403 92.8684072,83.1710377 Z"/>
  </g>
</svg>
