<svg xmlns="http://www.w3.org/2000/svg" width="219" height="146" viewBox="0 0 219 146">
  <g fill="none" fill-rule="evenodd">
    <rect width="219" height="145"/>
    <g fill="#FFF" fill-rule="nonzero" transform="translate(30 55)">
      <path d="M133.900192 24.5139563L133.900192 11.5692052C133.900192 9.79891703 134.786672 8.91432314 136.363284 8.91432314L137.938009 8.91432314C139.405677 8.91432314 139.903703 9.27526638 140.401886 10.408559L143.304524 17.5727162 146.238131 10.408559C146.764454 9.19037555 147.342969 8.91432314 148.616017 8.91432314L150.164332 8.91432314C151.824734 8.91432314 152.710271 9.79891703 152.710271 11.5692052L152.710271 24.5137991C152.710271 26.2015546 152.128297 27.0880349 150.553572 27.0880349L149.667878 27.0880349C148.145345 27.0880349 147.509293 26.2015546 147.509293 24.5137991L147.509293 16.8550742 145.629432 22.1074585C145.380891 22.8001048 145.351493 23.4627249 143.277956 23.4627249 141.203319 23.4627249 141.258183 22.8255721 140.954777 22.1074585L139.102271 17.0726463 139.102271 24.5136419C139.102271 26.2013974 138.548594 27.0880349 136.944629 27.0880349L136.058148 27.0880349C134.535459 27.0880349 133.900192 26.2017118 133.900192 24.5139563L133.900192 24.5139563zM126.443633 20.3055721C126.443633 22.1917205 125.002376 23.4576943 123.139179 23.4576943 121.796175 23.4576943 120.929188 22.7535721 120.929188 21.6661834 120.929188 19.8488908 123.37986 19.0944629 125.224192 19.048559L126.443476 19.048559 126.443476 20.3055721 126.443633 20.3055721zM123.284279 8.58717904C119.704087 8.58717904 116.269782 10.3052751 116.269782 12.5682445 116.269782 15.3815895 119.752664 15.3116332 119.752664 15.3116332 120.130428 13.7891004 121.383983 13.0096769 123.012629 13.0096769 125.517223 13.0096769 126.443476 14.2349345 126.443476 16.001607L125.219948 16.001607C118.053118 16.001607 115.354847 18.8600699 115.354847 22.1200349 115.354847 25.2713712 117.98945 27.3794934 121.455668 27.3794934 123.873485 27.3794934 126.188646 26.4912838 126.623948 24.7969258 126.845135 26.0921397 128.062376 27.239738 129.676087 27.239738 131.111057 27.239738 131.791284 26.7520873 131.854166 26.5769607L131.854166 15.6184978C131.854166 11.1244716 128.825921 8.58717904 123.284279 8.58717904L123.284279 8.58717904zM91.4832314 20.3055721C91.4832314 22.1917205 90.042917 23.4576943 88.1781485 23.4576943 86.8370306 23.4576943 85.9681572 22.7535721 85.9681572 21.6661834 85.9681572 19.8488908 88.4196157 19.0944629 90.2641048 19.048559L91.4832314 19.048559 91.4832314 20.3055721zM88.324821 8.58717904C84.7446288 8.58717904 81.3084367 10.3052751 81.3084367 12.5682445 81.3084367 15.3815895 84.792262 15.3116332 84.792262 15.3116332 85.1682969 13.7891004 86.4227948 13.0096769 88.0541135 13.0096769 90.5558777 13.0096769 91.4830742 14.2349345 91.4830742 16.001607L90.2586026 16.001607C83.0936594 16.001607 80.3936594 18.8600699 80.3936594 22.1200349 80.3936594 25.2713712 83.029048 27.3794934 86.4951092 27.3794934 88.9121397 27.3794934 91.2263581 26.4912838 91.6633886 24.7969258 91.8828472 26.0921397 93.1011878 27.239738 94.7164716 27.239738 96.1497118 27.239738 96.8299389 26.7520873 96.892821 26.5769607L96.892821 15.6184978C96.892821 11.1244716 93.8656769 8.58717904 88.324821 8.58717904L88.324821 8.58717904zM98.5620262 24.7637555L98.5620262 24.5134847C98.5620262 22.9104629 99.114131 22.3291179 100.027022 21.3355808L106.829293 13.6177467 101.216122 13.6177467C99.6123144 13.6177467 98.7805415 13.0356157 98.7805415 11.4608908L98.7805415 11.2106201C98.7805415 9.69075983 99.6123144 9.05643668 101.216122 9.05643668L111.228838 9.05643668C113.246725 9.05643668 114.0491 10.1331354 114.0491 11.2106201L114.0491 11.4884017C114.0491 13.0621834 113.469485 13.699179 112.584105 14.64131L105.640349 22.3564716 111.781729 22.3564716C113.385537 22.3564716 114.215266 22.9661135 114.215266 24.5416245L114.215266 24.7635983C114.215266 26.2862882 113.385537 26.9487512 111.781729 26.9487512L101.355878 26.9487512C99.3634585 26.9490655 98.5620262 25.8415546 98.5620262 24.7637555L98.5620262 24.7637555zM61.8957904 24.5139563L61.8957904 11.4879301C61.8957904 9.77250655 62.6981659 8.91432314 64.2180262 8.91432314L65.0196157 8.91432314C66.6243668 8.91432314 67.4540961 9.77234934 67.4540961 11.4879301L67.4540961 15.6353188 73.1807686 15.6353188 73.1807686 11.4879301C73.1807686 9.77250655 73.9822009 8.91432314 75.5022183 8.91432314L76.3328908 8.91432314C77.909345 8.91432314 78.7382882 9.77234934 78.7382882 11.4879301L78.7382882 24.5139563C78.7382882 26.2017118 77.9095022 27.0881921 76.3328908 27.0881921L75.5022183 27.0881921C73.9822009 27.0881921 73.1807686 26.2017118 73.1807686 24.5139563L73.1807686 20.2841921 67.4540961 20.2841921 67.4540961 24.5139563C67.4540961 26.2017118 66.6243668 27.0881921 65.0196157 27.0881921L64.2180262 27.0881921C62.6983231 27.0881921 61.8957904 26.2017118 61.8957904 24.5139563L61.8957904 24.5139563zM44.8855546 23.6575022C44.8855546 22.3297467 46.5443843 20.8911616 46.7114934 21.0282445 47.8713537 22.0819913 50.1140437 23.1036681 52.0212576 23.1036681 53.735738 23.1036681 54.5099738 22.6056419 54.5099738 21.6935371 54.5099738 20.586655 53.1006288 20.586655 51.3003144 20.1991441 48.3145153 19.5896594 45.299476 18.3184978 45.299476 14.6133275 45.299476 10.9356681 48.0092227 8.66578166 52.9341485 8.66578166 57.6363144 8.66578166 59.6842271 10.2971004 59.6842271 12.0681747 59.6842271 13.6172751 57.829048 14.9434585 57.7193188 14.8346725 56.5303755 13.7306201 54.6769258 12.8972751 52.9897991 12.8972751 51.385048 12.8972751 50.5834585 13.3926288 50.5834585 14.2791092 50.5834585 15.3319127 52.0211004 15.2504803 53.9011179 15.6636157 57.4132402 16.4367511 60.0964192 17.9584978 60.0964192 21.253048 60.0964192 25.1518952 57.4132402 27.3351616 52.0211004 27.3351616 46.7655721 27.3351616 44.8855546 25.5375197 44.8855546 23.6575022L44.8855546 23.6575022zM156.375983 11.0004367L156.759878 11.0004367C157.001345 11.0004367 157.131354 10.8899214 157.131354 10.7077205 157.131354 10.505083 157.001345 10.4077729 156.747459 10.4077729L156.375983 10.4077729 156.375983 11.0004367zM157.020996 12.0169258L156.623738 11.4498865 156.388559 11.4498865 156.388559 11.9515284C156.388559 12.1275983 156.29738 12.2319825 156.12131 12.2319825L156.036419 12.2319825C155.867581 12.2319825 155.776402 12.1010306 155.776402 11.886917L155.776402 10.27069C155.776402 10.048559 155.893991 9.93191266 156.095686 9.93191266L156.792891 9.93191266C157.412122 9.93191266 157.743983 10.1733799 157.743983 10.6688908 157.743983 11.0139563 157.555493 11.2554236 157.209642 11.3395284L157.730777 12.0235284C157.757188 12.0633013 157.581275 12.2455022 157.379581 12.2455022 157.268751 12.2451878 157.124437 12.1922096 157.020996 12.0169258L157.020996 12.0169258zM158.460367 11.0854847C158.460367 10.0372402 157.724175 9.27448035 156.701555 9.27448035 155.653153 9.27448035 154.949031 10.0238777 154.949031 11.0784105 154.949031 12.1222533 155.678934 12.8902009 156.708629 12.8902009 157.750742 12.8902009 158.460367 12.1408035 158.460367 11.0854847L158.460367 11.0854847zM154.532437 11.0854847C154.532437 9.82124017 155.437467 8.88964192 156.708786 8.88964192 157.985293 8.88964192 158.878061 9.80174672 158.878061 11.0721223 158.878061 12.3424978 157.97193 13.2750393 156.701712 13.2750393 155.417974 13.2750393 154.532437 12.3629345 154.532437 11.0854847L154.532437 11.0854847zM17.9750044.0732576419C27.8737467.0732576419 35.8986026 8.09638428 35.8986026 17.9968559 35.8986026 27.8937118 27.8737467 35.9204541 17.9750044 35.9204541 8.07641921 35.9204541.0504628821 27.8937118.0504628821 17.9968559.0504628821 8.09654148 8.07641921.0732576419 17.9750044.0732576419zM27.2064105 12.8150568C23.9860611 10.0337817 18.7806812 10.0902183 15.6038777 12.9389345 14.5415371 13.8901703 13.3526485 15.1655699 13.1190126 15.4185128L13.0797904 15.4611354C12.2447162 16.3680524 12.3064978 17.7816419 13.2134148 18.6159301 14.1209607 19.4484891 15.5321921 19.3901659 16.3689956 18.4830917 16.3804716 18.4691004 17.5881223 17.1570655 18.5843319 16.2653974 20.2571528 14.7650306 22.9324716 15.0252052 24.2867948 16.1955983 25.3185328 17.0855371 25.9280175 18.2710218 26.0048908 19.5351092 26.0775197 20.7276681 25.6678428 21.8829694 24.8513188 22.7828122 23.1261485 24.6886114 19.847476 27.8229694 19.8147773 27.8556681 18.9240524 28.7085066 18.8913537 30.1194236 19.7449782 31.0120349 20.1658444 31.4536989 20.7495557 31.7032438 21.3596332 31.7023257 21.933739 31.7023257 22.4857648 31.4811023 22.9007162 31.0843493 23.0396856 30.9491528 26.3271616 27.8058341 28.1611179 25.7851179 29.7905502 23.9838603 30.61069 21.6669694 30.4638603 19.2642445 30.3124716 16.7898341 29.1562271 14.4985677 27.2064105 12.8150568zM16.4043668 5.69633188C15.5505852 4.80544978 14.1387249 4.77102183 13.2478428 5.62464629 13.1088734 5.75732751 9.82139738 8.90158952 7.98932751 10.9238777 6.3570655 12.7241921 5.54054148 15.041083 5.68469869 17.4430218 5.83687336 19.9185328 6.99327511 22.2088559 8.94214847 23.8914236 10.5275633 25.2609956 12.5915109 25.9440524 14.658917 25.9440524 16.793607 25.9440524 18.9317555 25.2158777 20.544524 23.7688035 21.701869 22.7292052 23.0129607 21.306655 23.0686114 21.2492751 23.9036856 20.3415721 23.8425328 18.9268821 22.9349869 18.0935371 22.0291703 17.2583057 20.6146376 17.316786 19.7811354 18.2252751 19.7688734 18.2384803 18.5602795 19.5497293 17.5650131 20.4440699 15.8912489 21.9417642 13.2168734 21.685048 11.8606638 20.513083 10.829869 19.6220437 10.2203843 18.4356157 10.1425677 17.1705852 10.0699389 15.9797555 10.4815022 14.8269694 11.297083 13.9228821 13.0239825 12.0191266 16.2999825 8.88476856 16.3336245 8.8528559 17.2252926 8.0009607 17.2553188 6.588 16.4043668 5.69633188z"/>
    </g>
  </g>
</svg>
