<svg width="50" height="29" viewBox="0 0 50 29" fill="none" xmlns="http://www.w3.org/2000/svg">
<g clip-path="url(#clip0)">
<path d="M0.564679 12.8948C0.46109 12.8948 0.378871 12.9749 0.365478 13.0892L0.00244141 15.8468L0.365478 18.5569C0.378871 18.6711 0.46104 18.7507 0.564679 18.7507C0.665006 18.7507 0.746723 18.6717 0.762726 18.5579V18.5573V18.5579L1.19303 15.8467L0.762726 13.0886C0.747225 12.9749 0.664505 12.8948 0.564679 12.8948ZM2.6063 11.3882C2.58919 11.2697 2.50432 11.188 2.39967 11.188C2.29448 11.188 2.20745 11.2723 2.19305 11.3882C2.19305 11.3892 1.70505 15.8468 1.70505 15.8468L2.19305 20.2066C2.20694 20.3236 2.29398 20.4079 2.39967 20.4079C2.50376 20.4079 2.58869 20.3257 2.60575 20.2077L3.16096 15.8468L2.6063 11.3882ZM10.2966 7.27552C10.0964 7.27552 9.93088 7.43941 9.9213 7.64764L9.53263 15.8505L9.9213 21.1516C9.93144 21.3587 10.0964 21.5221 10.2966 21.5221C10.4958 21.5221 10.6608 21.3582 10.6725 21.1506V21.1522L11.1119 15.8505L10.6725 7.64764C10.6607 7.43941 10.4957 7.27552 10.2966 7.27552ZM6.31637 10.1265C6.16262 10.1265 6.03716 10.2493 6.02482 10.4132L5.58704 15.8483L6.02482 21.1067C6.03656 21.2696 6.16257 21.3924 6.31637 21.3924C6.46852 21.3924 6.59398 21.2696 6.60737 21.1067L7.10495 15.8483L6.60737 10.4121C6.59398 10.2493 6.46852 10.1265 6.31637 10.1265ZM14.3415 21.5216C14.5898 21.5216 14.7916 21.3214 14.8017 21.0651L15.1829 15.8532L14.8023 4.93217C14.7921 4.67588 14.5903 4.47568 14.342 4.47568C14.0916 4.47568 13.8893 4.67643 13.8812 4.93272L13.5433 15.8526L13.8812 21.0667C13.8893 21.3209 14.0916 21.5216 14.3415 21.5216ZM22.6223 21.5462C22.964 21.5462 23.2459 21.2648 23.2523 20.9189V20.9226V20.9189L23.5182 15.8564L23.2523 3.24345C23.2464 2.89802 22.964 2.61615 22.6223 2.61615C22.28 2.61615 21.9976 2.89752 21.9922 3.244L21.7547 15.8521C21.7547 15.8601 21.9922 20.922 21.9922 20.922C21.9977 21.2648 22.2806 21.5462 22.6223 21.5462ZM18.4504 21.5264C18.7478 21.5264 18.9875 21.2878 18.9955 20.9835V20.9872L19.319 15.8543L18.995 4.85426C18.9869 4.54992 18.7472 4.31184 18.4498 4.31184C18.1503 4.31184 17.9106 4.54997 17.9042 4.85426L17.6164 15.8548L17.9047 20.9867C17.9112 21.2878 18.1508 21.5264 18.4504 21.5264ZM8.29875 21.4784C8.47548 21.4784 8.6186 21.3369 8.63194 21.1506L9.10072 15.8484L8.63194 10.8046C8.61915 10.6183 8.47608 10.4778 8.29875 10.4778C8.11942 10.4778 7.9763 10.6193 7.96511 10.8068L7.55236 15.8484L7.96511 21.1501C7.97685 21.3369 8.11936 21.4784 8.29875 21.4784ZM4.35005 21.1879C4.47922 21.1879 4.58386 21.086 4.59881 20.945L5.12523 15.8473L4.59931 10.5574C4.58381 10.4159 4.47917 10.3139 4.35 10.3139C4.21917 10.3139 4.11453 10.4164 4.10118 10.5574L3.63777 15.8473L4.10118 20.9439C4.11403 21.0854 4.21867 21.1879 4.35005 21.1879ZM20.5284 4.67111C20.2054 4.67111 19.9464 4.92795 19.94 5.25683L19.6773 15.8553L19.94 20.9551C19.9464 21.2797 20.2048 21.5366 20.5284 21.5366C20.8508 21.5366 21.1082 21.2803 21.1156 20.9514V20.9557L21.4103 15.8559L21.1156 5.25572C21.1082 4.92795 20.8508 4.67111 20.5284 4.67111ZM12.3116 21.5323C12.5347 21.5323 12.7189 21.3502 12.7296 21.118L13.1397 15.852L12.7296 5.77306C12.7184 5.54025 12.5347 5.35876 12.3116 5.35876C12.0863 5.35876 11.9026 5.54081 11.893 5.77306L11.53 15.852L11.8935 21.1201C11.9026 21.3502 12.0862 21.5323 12.3116 21.5323ZM16.8903 21.0352V21.0325L17.2427 15.8537L16.8903 4.56487C16.8817 4.2846 16.6607 4.06463 16.3879 4.06463C16.1134 4.06463 15.8924 4.28405 15.885 4.56487L15.5721 15.8532L15.8855 21.0347C15.893 21.3123 16.114 21.5317 16.3879 21.5317C16.6613 21.5317 16.8812 21.3123 16.8904 21.0331V21.0352H16.8903ZM43.5416 9.34649C42.705 9.34649 41.9068 9.51574 41.1796 9.82059C40.6938 4.31716 36.0787 0 30.4493 0C29.0718 0 27.729 0.271236 26.5433 0.729835C26.0825 0.908168 25.9597 1.09182 25.9554 1.44793V20.8286C25.9603 21.2023 26.2502 21.5135 26.6148 21.5504C26.6304 21.552 43.4322 21.5606 43.5412 21.5606C46.9133 21.5606 49.6474 18.8264 49.6474 15.4538C49.6474 12.0811 46.9138 9.34649 43.5416 9.34649ZM24.7072 1.43088C24.3404 1.43088 24.0393 1.73201 24.0339 2.10197L23.7584 15.858L24.0345 20.8505C24.0393 21.2152 24.3404 21.5158 24.7072 21.5158C25.0729 21.5158 25.374 21.2152 25.3793 20.8452V20.851L25.6788 15.858L25.3793 2.10091C25.374 1.73201 25.0729 1.43088 24.7072 1.43088ZM4.9336 25.4426C4.21124 25.2728 4.01581 25.182 4.01581 24.8958C4.01581 24.6941 4.17864 24.4853 4.66663 24.4853C5.08359 24.4853 5.40931 24.6545 5.70192 24.954L6.35916 24.3166C5.92941 23.8676 5.40881 23.6006 4.69979 23.6006C3.8007 23.6006 3.07192 24.1084 3.07192 24.9354C3.07192 25.8334 3.65819 26.1004 4.49748 26.2952C5.35649 26.4901 5.51295 26.6209 5.51295 26.914C5.51295 27.2589 5.25827 27.4089 4.719 27.4089C4.28283 27.4089 3.87279 27.2594 3.55355 26.8873L2.8962 27.4736C3.24107 27.9813 3.9058 28.3001 4.66658 28.3001C5.9106 28.3001 6.45728 27.7144 6.45728 26.8489C6.45733 25.859 5.65647 25.6118 4.9336 25.4426ZM9.12681 23.6006C7.88389 23.6006 7.14869 24.5638 7.14869 25.9503C7.14869 27.3369 7.88384 28.2995 9.12681 28.2995C10.3698 28.2995 11.106 27.3369 11.106 25.9503C11.106 24.5638 10.3698 23.6006 9.12681 23.6006ZM9.12681 27.3956C8.39165 27.3956 8.08515 26.764 8.08515 25.9508C8.08515 25.1372 8.3916 24.5056 9.12681 24.5056C9.86306 24.5056 10.1685 25.1372 10.1685 25.9508C10.1685 26.764 9.86306 27.3956 9.12681 27.3956ZM14.7841 26.2306C14.7841 26.9594 14.4253 27.4089 13.8466 27.4089C13.2673 27.4089 12.9159 26.9466 12.9159 26.2178V23.6716H12.0041V26.2307C12.0041 27.5579 12.7467 28.3001 13.8465 28.3001C15.0051 28.3001 15.6954 27.5382 15.6954 26.2179V23.6716H14.7841V26.2306ZM19.6266 25.5991C19.6266 25.8532 19.6394 26.4256 19.6394 26.5948C19.5807 26.4773 19.4312 26.2499 19.3206 26.0801L17.7056 23.6711H16.8337V28.2286H17.7323V26.2232C17.7323 25.9691 17.7194 25.3967 17.7194 25.2274C17.7776 25.3444 17.9282 25.5724 18.0382 25.7422L19.7114 28.2285H20.5251V23.6711H19.6265V25.5991H19.6266ZM23.122 23.6716H21.6965V28.229H23.0563C24.2283 28.229 25.3874 27.5515 25.3874 25.9503C25.3874 24.2835 24.4237 23.6716 23.122 23.6716ZM23.0563 27.3438H22.6079V24.5574H23.0895C24.0532 24.5574 24.4504 25.0192 24.4504 25.9503C24.4504 26.7838 24.0137 27.3438 23.0563 27.3438ZM28.2058 24.5051C28.6159 24.5051 28.8764 24.6877 29.0392 25L29.8854 24.6097C29.5987 24.0176 29.0776 23.6006 28.2186 23.6006C27.0285 23.6006 26.1945 24.5638 26.1945 25.9503C26.1945 27.3887 26.9948 28.2995 28.186 28.2995C29.013 28.2995 29.5597 27.9157 29.872 27.2712L29.1043 26.8153C28.8634 27.2194 28.6222 27.3951 28.2121 27.3951C27.5287 27.3951 27.1315 26.7699 27.1315 25.9503C27.1311 25.1046 27.523 24.5051 28.2058 24.5051ZM31.5859 23.6716H30.6746V28.229H33.4135V27.33H31.5859V23.6716ZM35.8145 23.6006C34.5705 23.6006 33.8353 24.5638 33.8353 25.9503C33.8353 27.3369 34.5705 28.2995 35.8145 28.2995C37.0574 28.2995 37.7931 27.3369 37.7931 25.9503C37.7931 24.5638 37.0574 23.6006 35.8145 23.6006ZM35.8145 27.3956C35.0782 27.3956 34.7728 26.764 34.7728 25.9508C34.7728 25.1372 35.0782 24.5056 35.8145 24.5056C36.5492 24.5056 36.855 25.1372 36.855 25.9508C36.855 26.764 36.5492 27.3956 35.8145 27.3956ZM41.4706 26.2306C41.4706 26.9594 41.1135 27.4089 40.5342 27.4089C39.9538 27.4089 39.603 26.9466 39.603 26.2178V23.6716H38.6917V26.2307C38.6917 27.5579 39.4338 28.3001 40.5342 28.3001C41.6928 28.3001 42.3826 27.5382 42.3826 26.2179V23.6716H41.4706V26.2306ZM44.9469 23.6716H43.5219V28.229H44.8817C46.0542 28.229 47.2122 27.5515 47.2122 25.9503C47.2122 24.2835 46.2491 23.6716 44.9469 23.6716ZM44.8817 27.3438H44.4327V24.5574H44.9148C45.8774 24.5574 46.2746 25.0192 46.2746 25.9503C46.2747 26.7838 45.8385 27.3438 44.8817 27.3438Z" fill="url(#paint0_linear)"/>
</g>
<defs>
<linearGradient id="paint0_linear" x1="24.8226" y1="-0.00395203" x2="24.8226" y2="28.2962" gradientUnits="userSpaceOnUse">
<stop stop-color="#F79810"/>
<stop offset="1" stop-color="#F8310E"/>
</linearGradient>
<clipPath id="clip0">
<rect width="49.6492" height="28.3" fill="white"/>
</clipPath>
</defs>
</svg>
