<svg width="1418" height="94" viewBox="0 0 1418 94" fill="none" xmlns="http://www.w3.org/2000/svg">
<path d="M198.018 36.2411C198.018 35.7529 198.414 35.3572 198.902 35.3572H200.67C201.158 35.3572 201.554 35.7529 201.554 36.2411V93.6965H198.018V36.2411Z" fill="#00D36E"/>
<path d="M205.089 50.3839C205.089 49.8958 205.485 49.5 205.973 49.5H207.741C208.229 49.5 208.625 49.8957 208.625 50.3839V93.6964H205.089V50.3839Z" fill="#00D36E"/>
<path d="M212.161 62.7589C212.161 62.2707 212.556 61.875 213.045 61.875H214.812C215.301 61.875 215.696 62.2707 215.696 62.7589V93.6964H212.161V62.7589Z" fill="#00D36E"/>
<path d="M219.232 73.3661C219.232 72.8779 219.628 72.4822 220.116 72.4822H221.884C222.372 72.4822 222.768 72.8779 222.768 73.3661V93.6965H219.232V73.3661Z" fill="#00D36E"/>
<path d="M226.303 85.7411C226.303 85.2529 226.699 84.8572 227.187 84.8572H228.955C229.443 84.8572 229.839 85.2529 229.839 85.7411V93.6965H226.303V85.7411Z" fill="#00D36E"/>
<path d="M233.375 62.7589C233.375 62.2707 233.771 61.875 234.259 61.875H236.027C236.515 61.875 236.911 62.2707 236.911 62.7589V93.6964H233.375V62.7589Z" fill="#00D36E"/>
<path d="M240.446 55.6875C240.446 55.1993 240.842 54.8036 241.33 54.8036H243.098C243.586 54.8036 243.982 55.1993 243.982 55.6875V93.6964H240.446V55.6875Z" fill="#00D36E"/>
<path d="M247.518 71.5983C247.518 71.1101 247.913 70.7144 248.402 70.7144H250.169C250.658 70.7144 251.053 71.1101 251.053 71.5983V93.6965H247.518V71.5983Z" fill="#00D36E"/>
<path d="M254.589 66.2946C254.589 65.8064 254.985 65.4106 255.473 65.4106H257.241C257.729 65.4106 258.125 65.8064 258.125 66.2946V93.6964H254.589V66.2946Z" fill="#00D36E"/>
<path d="M261.66 76.9018C261.66 76.4136 262.056 76.0178 262.544 76.0178H264.312C264.8 76.0178 265.196 76.4136 265.196 76.9018V93.6964H261.66V76.9018Z" fill="#00D36E"/>
<path d="M268.732 76.9018C268.732 76.4136 269.128 76.0178 269.616 76.0178H271.384C271.872 76.0178 272.268 76.4136 272.268 76.9018V93.6964H268.732V76.9018Z" fill="#00D36E"/>
<path d="M275.803 64.5267C275.803 64.0386 276.199 63.6428 276.687 63.6428H278.455C278.943 63.6428 279.339 64.0386 279.339 64.5268V93.6964H275.803V64.5267Z" fill="#00D36E"/>
<path d="M282.875 82.2053C282.875 81.7172 283.271 81.3214 283.759 81.3214H285.527C286.015 81.3214 286.41 81.7172 286.41 82.2053V93.6964H282.875V82.2053Z" fill="#00D36E"/>
<path d="M289.946 71.5983C289.946 71.1101 290.342 70.7144 290.83 70.7144H292.598C293.086 70.7144 293.482 71.1101 293.482 71.5983V93.6965H289.946V71.5983Z" fill="#00D36E"/>
<path d="M297.018 55.6875C297.018 55.1993 297.413 54.8036 297.902 54.8036H299.669C300.158 54.8036 300.553 55.1993 300.553 55.6875V93.6964H297.018V55.6875Z" fill="#00D36E"/>
<path d="M304.089 71.5983C304.089 71.1101 304.485 70.7144 304.973 70.7144H306.741C307.229 70.7144 307.625 71.1101 307.625 71.5983V93.6965H304.089V71.5983Z" fill="#00D36E"/>
<path d="M311.16 66.2946C311.16 65.8064 311.556 65.4106 312.044 65.4106H313.812C314.3 65.4106 314.696 65.8064 314.696 66.2946V93.6964H311.16V66.2946Z" fill="#00D36E"/>
<path d="M318.232 76.9018C318.232 76.4136 318.627 76.0178 319.116 76.0178H320.883C321.372 76.0178 321.767 76.4136 321.767 76.9018V93.6964H318.232V76.9018Z" fill="#00D36E"/>
<path d="M325.303 76.9018C325.303 76.4136 325.699 76.0178 326.187 76.0178H327.955C328.443 76.0178 328.839 76.4136 328.839 76.9018V93.6964H325.303V76.9018Z" fill="#00D36E"/>
<path d="M332.375 64.5267C332.375 64.0386 332.77 63.6428 333.258 63.6428H335.026C335.514 63.6428 335.91 64.0386 335.91 64.5268V93.6964H332.375V64.5267Z" fill="#00D36E"/>
<path d="M339.446 82.2053C339.446 81.7172 339.842 81.3214 340.33 81.3214H342.098C342.586 81.3214 342.982 81.7172 342.982 82.2053V93.6964H339.446V82.2053Z" fill="#00D36E"/>
<path d="M346.517 71.5983C346.517 71.1101 346.913 70.7144 347.401 70.7144H349.169C349.657 70.7144 350.053 71.1101 350.053 71.5983V93.6965H346.517V71.5983Z" fill="#00D36E"/>
<path d="M353.589 76.9018C353.589 76.4136 353.985 76.0178 354.473 76.0178H356.241C356.729 76.0178 357.125 76.4136 357.125 76.9018V93.6964H353.589V76.9018Z" fill="#00D36E"/>
<path d="M360.66 50.3839C360.66 49.8958 361.056 49.5 361.544 49.5H363.312C363.8 49.5 364.196 49.8957 364.196 50.3839V93.6964H360.66V50.3839Z" fill="#00D36E"/>
<path d="M367.732 57.4553C367.732 56.9672 368.127 56.5714 368.616 56.5714H370.383C370.872 56.5714 371.267 56.9672 371.267 57.4553V93.6964H367.732V57.4553Z" fill="#00D36E"/>
<path d="M374.803 36.2411C374.803 35.7529 375.199 35.3572 375.687 35.3572H377.455C377.943 35.3572 378.339 35.7529 378.339 36.2411V93.6965H374.803V36.2411Z" fill="#00D36E"/>
<path d="M381.875 15.0267C381.875 14.5386 382.27 14.1428 382.758 14.1428H384.526C385.014 14.1428 385.41 14.5386 385.41 15.0268V93.6964H381.875V15.0267Z" fill="#00D36E"/>
<path d="M388.946 20.3303C388.946 19.8422 389.342 19.4464 389.83 19.4464H391.598C392.086 19.4464 392.482 19.8422 392.482 20.3303V93.6964H388.946V20.3303Z" fill="#00D36E"/>
<path d="M396.017 6.18752C396.017 5.69934 396.413 5.30359 396.901 5.30359H398.669C399.157 5.30359 399.553 5.69934 399.553 6.18752V93.6964H396.017V6.18752Z" fill="#00D36E"/>
<path d="M403.089 25.6339C403.089 25.1457 403.484 24.75 403.973 24.75H405.74C406.229 24.75 406.624 25.1457 406.624 25.6339V93.6964H403.089V25.6339Z" fill="#00D36E"/>
<path d="M410.16 15.0267C410.16 14.5386 410.556 14.1428 411.044 14.1428H412.812C413.3 14.1428 413.696 14.5386 413.696 15.0268V93.6964H410.16V15.0267Z" fill="#00D36E"/>
<path d="M417.231 22.0983C417.231 21.6101 417.627 21.2144 418.115 21.2144H419.883C420.371 21.2144 420.767 21.6101 420.767 22.0983V93.6965H417.231V22.0983Z" fill="#00D36E"/>
<path d="M424.303 32.7053C424.303 32.2172 424.699 31.8214 425.187 31.8214H426.955C427.443 31.8214 427.839 32.2172 427.839 32.7053V93.6964H424.303V32.7053Z" fill="#00D36E"/>
<path d="M431.374 25.6339C431.374 25.1457 431.77 24.75 432.258 24.75H434.026C434.514 24.75 434.91 25.1457 434.91 25.6339V93.6964H431.374V25.6339Z" fill="#00D36E"/>
<path d="M438.446 20.3303C438.446 19.8422 438.842 19.4464 439.33 19.4464H441.098C441.586 19.4464 441.982 19.8422 441.982 20.3303V93.6964H438.446V20.3303Z" fill="#00D36E"/>
<path d="M445.517 27.4018C445.517 26.9136 445.913 26.5178 446.401 26.5178H448.169C448.657 26.5178 449.053 26.9136 449.053 27.4018V93.6964H445.517V27.4018Z" fill="#00D36E"/>
<path d="M452.589 39.7768C452.589 39.2886 452.984 38.8928 453.473 38.8928H455.24C455.729 38.8928 456.124 39.2886 456.124 39.7768V93.6964H452.589V39.7768Z" fill="#00D36E"/>
<path d="M459.66 22.0983C459.66 21.6101 460.056 21.2144 460.544 21.2144H462.312C462.8 21.2144 463.196 21.6101 463.196 22.0983V93.6965H459.66V22.0983Z" fill="#00D36E"/>
<path d="M466.731 34.4733C466.731 33.9851 467.127 33.5894 467.615 33.5894H469.383C469.871 33.5894 470.267 33.9851 470.267 34.4733V93.6965H466.731V34.4733Z" fill="#00D36E"/>
<path d="M473.803 27.4018C473.803 26.9136 474.198 26.5178 474.687 26.5178H476.455C476.943 26.5178 477.338 26.9136 477.338 27.4018V93.6964H473.803V27.4018Z" fill="#00D36E"/>
<path d="M480.874 62.7589C480.874 62.2707 481.27 61.875 481.758 61.875H483.526C484.014 61.875 484.41 62.2707 484.41 62.7589V93.6964H480.874V62.7589Z" fill="#00D36E"/>
<path d="M487.946 75.1339C487.946 74.6457 488.341 74.25 488.829 74.25H490.597C491.086 74.25 491.481 74.6457 491.481 75.1339V93.6964H487.946V75.1339Z" fill="#00D36E"/>
<path d="M495.017 59.2233C495.017 58.7351 495.413 58.3394 495.901 58.3394H497.669C498.157 58.3394 498.553 58.7351 498.553 59.2233V93.6965H495.017V59.2233Z" fill="#00D36E"/>
<path d="M502.088 83.9733C502.088 83.4851 502.484 83.0894 502.972 83.0894H504.74C505.228 83.0894 505.624 83.4851 505.624 83.9733V93.6965H502.088V83.9733Z" fill="#00D36E"/>
<path d="M509.16 32.7053C509.16 32.2172 509.556 31.8214 510.044 31.8214H511.812C512.3 31.8214 512.696 32.2172 512.696 32.7053V93.6964H509.16V32.7053Z" fill="#00D36E"/>
<path d="M516.231 25.6339C516.231 25.1457 516.627 24.75 517.115 24.75H518.883C519.371 24.75 519.767 25.1457 519.767 25.6339V93.6964H516.231V25.6339Z" fill="#00D36E"/>
<path d="M523.303 20.3303C523.303 19.8422 523.698 19.4464 524.187 19.4464H525.955C526.443 19.4464 526.838 19.8422 526.838 20.3303V93.6964H523.303V20.3303Z" fill="#00D36E"/>
<path d="M530.374 27.4018C530.374 26.9136 530.77 26.5178 531.258 26.5178H533.026C533.514 26.5178 533.91 26.9136 533.91 27.4018V93.6964H530.374V27.4018Z" fill="#00D36E"/>
<path d="M537.446 39.7768C537.446 39.2886 537.841 38.8928 538.329 38.8928H540.097C540.586 38.8928 540.981 39.2886 540.981 39.7768V93.6964H537.446V39.7768Z" fill="#00D36E"/>
<path d="M544.517 22.0983C544.517 21.6101 544.913 21.2144 545.401 21.2144H547.169C547.657 21.2144 548.053 21.6101 548.053 22.0983V93.6965H544.517V22.0983Z" fill="#00D36E"/>
<path d="M551.588 34.4733C551.588 33.9851 551.984 33.5894 552.472 33.5894H554.24C554.728 33.5894 555.124 33.9851 555.124 34.4733V93.6965H551.588V34.4733Z" fill="#00D36E"/>
<path d="M558.66 27.4018C558.66 26.9136 559.055 26.5178 559.544 26.5178H561.311C561.8 26.5178 562.195 26.9136 562.195 27.4018V93.6964H558.66V27.4018Z" fill="#00D36E"/>
<path d="M565.731 62.7589C565.731 62.2707 566.127 61.875 566.615 61.875H568.383C568.871 61.875 569.267 62.2707 569.267 62.7589V93.6964H565.731V62.7589Z" fill="#00D36E"/>
<path d="M572.802 75.1339C572.802 74.6457 573.198 74.25 573.686 74.25H575.454C575.942 74.25 576.338 74.6457 576.338 75.1339V93.6964H572.802V75.1339Z" fill="#00D36E"/>
<path d="M579.874 59.2233C579.874 58.7351 580.27 58.3394 580.758 58.3394H582.526C583.014 58.3394 583.41 58.7351 583.41 59.2233V93.6965H579.874V59.2233Z" fill="#00D36E"/>
<path d="M586.945 83.9733C586.945 83.4851 587.341 83.0894 587.829 83.0894H589.597C590.085 83.0894 590.481 83.4851 590.481 83.9733V93.6965H586.945V83.9733Z" fill="#00D36E"/>
<path d="M594.017 78.6696C594.017 78.1814 594.413 77.7856 594.901 77.7856H596.669C597.157 77.7856 597.553 78.1814 597.553 78.6696V93.6964H594.017V78.6696Z" fill="#00D36E"/>
<path d="M601.088 75.1339C601.088 74.6457 601.484 74.25 601.972 74.25H603.74C604.228 74.25 604.624 74.6457 604.624 75.1339V93.6964H601.088V75.1339Z" fill="#00D36E"/>
<path d="M608.16 66.2946C608.16 65.8064 608.555 65.4106 609.044 65.4106H610.811C611.3 65.4106 611.695 65.8064 611.695 66.2946V93.6964H608.16V66.2946Z" fill="#00D36E"/>
<path d="M615.231 59.2233C615.231 58.7351 615.627 58.3394 616.115 58.3394H617.883C618.371 58.3394 618.767 58.7351 618.767 59.2233V93.6965H615.231V59.2233Z" fill="#00D36E"/>
<path d="M622.302 73.3661C622.302 72.8779 622.698 72.4822 623.186 72.4822H624.954C625.442 72.4822 625.838 72.8779 625.838 73.3661V93.6965H622.302V73.3661Z" fill="#00D36E"/>
<path d="M629.374 52.1518C629.374 51.6636 629.77 51.2678 630.258 51.2678H632.026C632.514 51.2678 632.909 51.6636 632.909 52.1518V93.6964H629.374V52.1518Z" fill="#00D36E"/>
<path d="M636.445 43.3125C636.445 42.8243 636.841 42.4286 637.329 42.4286H639.097C639.585 42.4286 639.981 42.8243 639.981 43.3125V93.6964H636.445V43.3125Z" fill="#00D36E"/>
<path d="M643.517 22.0983C643.517 21.6101 643.912 21.2144 644.401 21.2144H646.168C646.657 21.2144 647.052 21.6101 647.052 22.0983V93.6965H643.517V22.0983Z" fill="#00D36E"/>
<path d="M650.588 11.4911C650.588 11.0029 650.984 10.6072 651.472 10.6072H653.24C653.728 10.6072 654.124 11.0029 654.124 11.4911V93.6965H650.588V11.4911Z" fill="#00D36E"/>
<path d="M657.659 29.1696C657.659 28.6814 658.055 28.2856 658.543 28.2856H660.311C660.799 28.2856 661.195 28.6814 661.195 29.1696V93.6964H657.659V29.1696Z" fill="#00D36E"/>
<path d="M664.731 16.7946C664.731 16.3064 665.127 15.9106 665.615 15.9106H667.383C667.871 15.9106 668.267 16.3064 668.267 16.7946V93.6964H664.731V16.7946Z" fill="#00D36E"/>
<path d="M671.802 6.18752C671.802 5.69934 672.198 5.30359 672.686 5.30359H674.454C674.942 5.30359 675.338 5.69934 675.338 6.18752V93.6964H671.802V6.18752Z" fill="#00D36E"/>
<path d="M678.874 23.8661C678.874 23.3779 679.27 22.9822 679.758 22.9822H681.526C682.014 22.9822 682.409 23.3779 682.409 23.8661V93.6965H678.874V23.8661Z" fill="#00D36E"/>
<path d="M685.945 15.0267C685.945 14.5386 686.341 14.1428 686.829 14.1428H688.597C689.085 14.1428 689.481 14.5386 689.481 15.0268V93.6964H685.945V15.0267Z" fill="#00D36E"/>
<path d="M693.017 46.8483C693.017 46.3601 693.412 45.9644 693.901 45.9644H695.668C696.157 45.9644 696.552 46.3601 696.552 46.8483V93.6965H693.017V46.8483Z" fill="#00D36E"/>
<path d="M700.088 62.7589C700.088 62.2707 700.484 61.875 700.972 61.875H702.74C703.228 61.875 703.624 62.2707 703.624 62.7589V93.6964H700.088V62.7589Z" fill="#00D36E"/>
<path d="M707.159 52.1518C707.159 51.6636 707.555 51.2678 708.043 51.2678H709.811C710.299 51.2678 710.695 51.6636 710.695 52.1518V93.6964H707.159V52.1518Z" fill="#00D36E"/>
<path d="M714.231 39.7768C714.231 39.2886 714.626 38.8928 715.115 38.8928H716.882C717.371 38.8928 717.766 39.2886 717.766 39.7768V93.6964H714.231V39.7768Z" fill="#00D36E"/>
<path d="M721.302 50.3839C721.302 49.8958 721.698 49.5 722.186 49.5H723.954C724.442 49.5 724.838 49.8957 724.838 50.3839V93.6964H721.302V50.3839Z" fill="#00D36E"/>
<path d="M728.374 43.3125C728.374 42.8243 728.769 42.4286 729.257 42.4286H731.025C731.514 42.4286 731.909 42.8243 731.909 43.3125V93.6964H728.374V43.3125Z" fill="#00D36E"/>
<path d="M735.445 16.7946C735.445 16.3064 735.841 15.9106 736.329 15.9106H738.097C738.585 15.9106 738.981 16.3064 738.981 16.7946V93.6964H735.445V16.7946Z" fill="#00D36E"/>
<path d="M742.516 27.4018C742.516 26.9136 742.912 26.5178 743.4 26.5178H745.168C745.656 26.5178 746.052 26.9136 746.052 27.4018V93.6964H742.516V27.4018Z" fill="#00D36E"/>
<path d="M749.588 18.5625C749.588 18.0743 749.984 17.6786 750.472 17.6786H752.24C752.728 17.6786 753.124 18.0743 753.124 18.5625V93.6964H749.588V18.5625Z" fill="#00D36E"/>
<path d="M756.659 6.18752C756.659 5.69934 757.055 5.30359 757.543 5.30359H759.311C759.799 5.30359 760.195 5.69934 760.195 6.18752V93.6964H756.659V6.18752Z" fill="#00D36E"/>
<path d="M763.731 2.65175C763.731 2.16357 764.126 1.76782 764.615 1.76782H766.382C766.871 1.76782 767.266 2.16357 767.266 2.65175V93.6964H763.731V2.65175Z" fill="#00D36E"/>
<path d="M770.802 16.7946C770.802 16.3064 771.198 15.9106 771.686 15.9106H773.454C773.942 15.9106 774.338 16.3064 774.338 16.7946V93.6964H770.802V16.7946Z" fill="#00D36E"/>
<path d="M777.874 43.3125C777.874 42.8243 778.269 42.4286 778.757 42.4286H780.525C781.014 42.4286 781.409 42.8243 781.409 43.3125V93.6964H777.874V43.3125Z" fill="#00D36E"/>
<path d="M784.945 32.7053C784.945 32.2172 785.341 31.8214 785.829 31.8214H787.597C788.085 31.8214 788.481 32.2172 788.481 32.7053V93.6964H784.945V32.7053Z" fill="#00D36E"/>
<path d="M792.016 43.3125C792.016 42.8243 792.412 42.4286 792.9 42.4286H794.668C795.156 42.4286 795.552 42.8243 795.552 43.3125V93.6964H792.016V43.3125Z" fill="#00D36E"/>
<path d="M799.088 53.9196C799.088 53.4314 799.483 53.0356 799.972 53.0356H801.739C802.228 53.0356 802.623 53.4314 802.623 53.9196V93.6964H799.088V53.9196Z" fill="#00D36E"/>
<path d="M806.159 46.8483C806.159 46.3601 806.555 45.9644 807.043 45.9644H808.811C809.299 45.9644 809.695 46.3601 809.695 46.8483V93.6965H806.159V46.8483Z" fill="#00D36E"/>
<path d="M813.23 55.6875C813.23 55.1993 813.626 54.8036 814.114 54.8036H815.882C816.37 54.8036 816.766 55.1993 816.766 55.6875V93.6964H813.23V55.6875Z" fill="#00D36E"/>
<path d="M820.302 38.0089C820.302 37.5208 820.698 37.125 821.186 37.125H822.954C823.442 37.125 823.838 37.5207 823.838 38.0089V93.6964H820.302V38.0089Z" fill="#00D36E"/>
<path d="M827.373 46.8483C827.373 46.3601 827.769 45.9644 828.257 45.9644H830.025C830.513 45.9644 830.909 46.3601 830.909 46.8483V93.6965H827.373V46.8483Z" fill="#00D36E"/>
<path d="M834.445 27.4018C834.445 26.9136 834.841 26.5178 835.329 26.5178H837.097C837.585 26.5178 837.981 26.9136 837.981 27.4018V93.6964H834.445V27.4018Z" fill="#00D36E"/>
<path d="M841.516 52.1518C841.516 51.6636 841.912 51.2678 842.4 51.2678H844.168C844.656 51.2678 845.052 51.6636 845.052 52.1518V93.6964H841.516V52.1518Z" fill="#00D36E"/>
<path d="M848.588 60.9911C848.588 60.5029 848.983 60.1072 849.472 60.1072H851.239C851.728 60.1072 852.123 60.5029 852.123 60.9911V93.6965H848.588V60.9911Z" fill="#00D36E"/>
<path d="M855.659 46.8483C855.659 46.3601 856.055 45.9644 856.543 45.9644H858.311C858.799 45.9644 859.195 46.3601 859.195 46.8483V93.6965H855.659V46.8483Z" fill="#00D36E"/>
<path d="M862.73 57.4553C862.73 56.9672 863.126 56.5714 863.614 56.5714H865.382C865.87 56.5714 866.266 56.9672 866.266 57.4553V93.6964H862.73V57.4553Z" fill="#00D36E"/>
<path d="M869.802 62.7589C869.802 62.2707 870.198 61.875 870.686 61.875H872.454C872.942 61.875 873.337 62.2707 873.337 62.7589V93.6964H869.802V62.7589Z" fill="#00D36E"/>
<path d="M876.873 60.9911C876.873 60.5029 877.269 60.1072 877.757 60.1072H879.525C880.013 60.1072 880.409 60.5029 880.409 60.9911V93.6965H876.873V60.9911Z" fill="#00D36E"/>
<path d="M883.945 46.8483C883.945 46.3601 884.34 45.9644 884.829 45.9644H886.596C887.085 45.9644 887.48 46.3601 887.48 46.8483V93.6965H883.945V46.8483Z" fill="#00D36E"/>
<path d="M891.016 57.4553C891.016 56.9672 891.412 56.5714 891.9 56.5714H893.668C894.156 56.5714 894.552 56.9672 894.552 57.4553V93.6964H891.016V57.4553Z" fill="#00D36E"/>
<path d="M898.087 62.7589C898.087 62.2707 898.483 61.875 898.971 61.875H900.739C901.227 61.875 901.623 62.2707 901.623 62.7589V93.6964H898.087V62.7589Z" fill="#00D36E"/>
<path d="M905.159 52.1518C905.159 51.6636 905.555 51.2678 906.043 51.2678H907.811C908.299 51.2678 908.695 51.6636 908.695 52.1518V93.6964H905.159V52.1518Z" fill="#00D36E"/>
<path d="M912.23 39.7768C912.23 39.2886 912.626 38.8928 913.114 38.8928H914.882C915.37 38.8928 915.766 39.2886 915.766 39.7768V93.6964H912.23V39.7768Z" fill="#00D36E"/>
<path d="M919.302 50.3839C919.302 49.8958 919.698 49.5 920.186 49.5H921.954C922.442 49.5 922.837 49.8957 922.837 50.3839V93.6964H919.302V50.3839Z" fill="#00D36E"/>
<path d="M926.373 43.3125C926.373 42.8243 926.769 42.4286 927.257 42.4286H929.025C929.513 42.4286 929.909 42.8243 929.909 43.3125V93.6964H926.373V43.3125Z" fill="#00D36E"/>
<path d="M933.445 16.7946C933.445 16.3064 933.84 15.9106 934.329 15.9106H936.096C936.585 15.9106 936.98 16.3064 936.98 16.7946V93.6964H933.445V16.7946Z" fill="#00D36E"/>
<path d="M940.516 27.4018C940.516 26.9136 940.912 26.5178 941.4 26.5178H943.168C943.656 26.5178 944.052 26.9136 944.052 27.4018V93.6964H940.516V27.4018Z" fill="#00D36E"/>
<path d="M947.587 2.65175C947.587 2.16357 947.983 1.76782 948.471 1.76782H950.239C950.727 1.76782 951.123 2.16357 951.123 2.65175V93.6964H947.587V2.65175Z" fill="#00D36E"/>
<path d="M954.659 0.883925C954.659 0.395745 955.054 0 955.543 0H957.31C957.799 0 958.194 0.395748 958.194 0.883929V93.6964H954.659V0.883925Z" fill="#00D36E"/>
<path d="M961.73 2.65175C961.73 2.16357 962.126 1.76782 962.614 1.76782H964.382C964.87 1.76782 965.266 2.16357 965.266 2.65175V93.6964H961.73V2.65175Z" fill="#00D36E"/>
<path d="M968.802 16.7946C968.802 16.3064 969.197 15.9106 969.685 15.9106H971.453C971.941 15.9106 972.337 16.3064 972.337 16.7946V93.6964H968.802V16.7946Z" fill="#00D36E"/>
<path d="M975.873 32.7053C975.873 32.2172 976.269 31.8214 976.757 31.8214H978.525C979.013 31.8214 979.409 32.2172 979.409 32.7053V93.6964H975.873V32.7053Z" fill="#00D36E"/>
<path d="M982.944 43.3125C982.944 42.8243 983.34 42.4286 983.828 42.4286H985.596C986.084 42.4286 986.48 42.8243 986.48 43.3125V93.6964H982.944V43.3125Z" fill="#00D36E"/>
<path d="M990.016 53.9196C990.016 53.4314 990.412 53.0356 990.9 53.0356H992.668C993.156 53.0356 993.552 53.4314 993.552 53.9196V93.6964H990.016V53.9196Z" fill="#00D36E"/>
<path d="M997.087 46.8483C997.087 46.3601 997.483 45.9644 997.971 45.9644H999.739C1000.23 45.9644 1000.62 46.3601 1000.62 46.8483V93.6965H997.087V46.8483Z" fill="#00D36E"/>
<path d="M1004.16 55.6875C1004.16 55.1993 1004.55 54.8036 1005.04 54.8036H1006.81C1007.3 54.8036 1007.69 55.1993 1007.69 55.6875V93.6964H1004.16V55.6875Z" fill="#00D36E"/>
<path d="M1011.23 38.0089C1011.23 37.5208 1011.63 37.125 1012.11 37.125H1013.88C1014.37 37.125 1014.77 37.5207 1014.77 38.0089V93.6964H1011.23V38.0089Z" fill="#00D36E"/>
<path d="M1018.3 46.8483C1018.3 46.3601 1018.7 45.9644 1019.19 45.9644H1020.95C1021.44 45.9644 1021.84 46.3601 1021.84 46.8483V93.6965H1018.3V46.8483Z" fill="#00D36E"/>
<path d="M1025.37 27.4018C1025.37 26.9136 1025.77 26.5178 1026.26 26.5178H1028.02C1028.51 26.5178 1028.91 26.9136 1028.91 27.4018V93.6964H1025.37V27.4018Z" fill="#00D36E"/>
<path d="M1032.44 52.1518C1032.44 51.6636 1032.84 51.2678 1033.33 51.2678H1035.1C1035.58 51.2678 1035.98 51.6636 1035.98 52.1518V93.6964H1032.44V52.1518Z" fill="#00D36E"/>
<path d="M1039.52 43.3125C1039.52 42.8243 1039.91 42.4286 1040.4 42.4286H1042.17C1042.66 42.4286 1043.05 42.8243 1043.05 43.3125V93.6964H1039.52V43.3125Z" fill="#00D36E"/>
<path d="M1046.59 32.7053C1046.59 32.2172 1046.98 31.8214 1047.47 31.8214H1049.24C1049.73 31.8214 1050.12 32.2172 1050.12 32.7053V93.6964H1046.59V32.7053Z" fill="#00D36E"/>
<path d="M1053.66 43.3125C1053.66 42.8243 1054.05 42.4286 1054.54 42.4286H1056.31C1056.8 42.4286 1057.19 42.8243 1057.19 43.3125V93.6964H1053.66V43.3125Z" fill="#00D36E"/>
<path d="M1060.73 53.9196C1060.73 53.4314 1061.13 53.0356 1061.61 53.0356H1063.38C1063.87 53.0356 1064.27 53.4314 1064.27 53.9196V93.6964H1060.73V53.9196Z" fill="#00D36E"/>
<path d="M1067.8 69.8303C1067.8 69.3422 1068.2 68.9464 1068.69 68.9464H1070.45C1070.94 68.9464 1071.34 69.3422 1071.34 69.8303V93.6964H1067.8V69.8303Z" fill="#00D36E"/>
<path d="M1074.87 80.4375C1074.87 79.9493 1075.27 79.5536 1075.76 79.5536H1077.52C1078.01 79.5536 1078.41 79.9493 1078.41 80.4375V93.6964H1074.87V80.4375Z" fill="#00D36E"/>
<path d="M1081.94 38.0089C1081.94 37.5208 1082.34 37.125 1082.83 37.125H1084.6C1085.08 37.125 1085.48 37.5207 1085.48 38.0089V93.6964H1081.94V38.0089Z" fill="#00D36E"/>
<path d="M1089.02 46.8483C1089.02 46.3601 1089.41 45.9644 1089.9 45.9644H1091.67C1092.16 45.9644 1092.55 46.3601 1092.55 46.8483V93.6965H1089.02V46.8483Z" fill="#00D36E"/>
<path d="M1096.09 27.4018C1096.09 26.9136 1096.48 26.5178 1096.97 26.5178H1098.74C1099.23 26.5178 1099.62 26.9136 1099.62 27.4018V93.6964H1096.09V27.4018Z" fill="#00D36E"/>
<path d="M1103.16 52.1518C1103.16 51.6636 1103.55 51.2678 1104.04 51.2678H1105.81C1106.3 51.2678 1106.69 51.6636 1106.69 52.1518V93.6964H1103.16V52.1518Z" fill="#00D36E"/>
<path d="M1110.23 60.9911C1110.23 60.5029 1110.63 60.1072 1111.11 60.1072H1112.88C1113.37 60.1072 1113.77 60.5029 1113.77 60.9911V93.6965H1110.23V60.9911Z" fill="#00D36E"/>
<path d="M1117.3 46.8483C1117.3 46.3601 1117.7 45.9644 1118.19 45.9644H1119.95C1120.44 45.9644 1120.84 46.3601 1120.84 46.8483V93.6965H1117.3V46.8483Z" fill="#00D36E"/>
<path d="M1124.37 57.4553C1124.37 56.9672 1124.77 56.5714 1125.26 56.5714H1127.02C1127.51 56.5714 1127.91 56.9672 1127.91 57.4553V93.6964H1124.37V57.4553Z" fill="#00D36E"/>
<path d="M1131.44 27.4018C1131.44 26.9136 1131.84 26.5178 1132.33 26.5178H1134.1C1134.58 26.5178 1134.98 26.9136 1134.98 27.4018V93.6964H1131.44V27.4018Z" fill="#00D36E"/>
<path d="M1138.52 62.7589C1138.52 62.2707 1138.91 61.875 1139.4 61.875H1141.17C1141.66 61.875 1142.05 62.2707 1142.05 62.7589V93.6964H1138.52V62.7589Z" fill="#00D36E"/>
<path d="M1145.59 75.1339C1145.59 74.6457 1145.98 74.25 1146.47 74.25H1148.24C1148.73 74.25 1149.12 74.6457 1149.12 75.1339V93.6964H1145.59V75.1339Z" fill="#00D36E"/>
<path d="M1152.66 59.2233C1152.66 58.7351 1153.05 58.3394 1153.54 58.3394H1155.31C1155.8 58.3394 1156.19 58.7351 1156.19 59.2233V93.6965H1152.66V59.2233Z" fill="#00D36E"/>
<path d="M1159.73 83.9733C1159.73 83.4851 1160.13 83.0894 1160.61 83.0894H1162.38C1162.87 83.0894 1163.27 83.4851 1163.27 83.9733V93.6965H1159.73V83.9733Z" fill="#00D36E"/>
<path d="M1166.8 78.6696C1166.8 78.1814 1167.2 77.7856 1167.69 77.7856H1169.45C1169.94 77.7856 1170.34 78.1814 1170.34 78.6696V93.6964H1166.8V78.6696Z" fill="#00D36E"/>
<path d="M1173.87 75.1339C1173.87 74.6457 1174.27 74.25 1174.76 74.25H1176.52C1177.01 74.25 1177.41 74.6457 1177.41 75.1339V93.6964H1173.87V75.1339Z" fill="#00D36E"/>
<path d="M1180.94 66.2946C1180.94 65.8064 1181.34 65.4106 1181.83 65.4106H1183.6C1184.08 65.4106 1184.48 65.8064 1184.48 66.2946V93.6964H1180.94V66.2946Z" fill="#00D36E"/>
<path d="M1188.02 59.2233C1188.02 58.7351 1188.41 58.3394 1188.9 58.3394H1190.67C1191.16 58.3394 1191.55 58.7351 1191.55 59.2233V93.6965H1188.02V59.2233Z" fill="#00D36E"/>
<path d="M1195.09 73.3661C1195.09 72.8779 1195.48 72.4822 1195.97 72.4822H1197.74C1198.23 72.4822 1198.62 72.8779 1198.62 73.3661V93.6965H1195.09V73.3661Z" fill="#00D36E"/>
<path d="M1202.16 52.1518C1202.16 51.6636 1202.55 51.2678 1203.04 51.2678H1204.81C1205.3 51.2678 1205.69 51.6636 1205.69 52.1518V93.6964H1202.16V52.1518Z" fill="#00D36E"/>
<path d="M1209.23 69.8303C1209.23 69.3422 1209.63 68.9464 1210.11 68.9464H1211.88C1212.37 68.9464 1212.77 69.3422 1212.77 69.8303V93.6964H1209.23V69.8303Z" fill="#00D36E"/>
<path d="M1216.3 80.4375C1216.3 79.9493 1216.7 79.5536 1217.18 79.5536H1218.95C1219.44 79.5536 1219.84 79.9493 1219.84 80.4375V93.6964H1216.3V80.4375Z" fill="#00D36E"/>
<path d="M1223.37 46.8483C1223.37 46.3601 1223.77 45.9644 1224.26 45.9644H1226.02C1226.51 45.9644 1226.91 46.3601 1226.91 46.8483V93.6965H1223.37V46.8483Z" fill="#00D36E"/>
<path d="M1230.44 52.1518C1230.44 51.6636 1230.84 51.2678 1231.33 51.2678H1233.1C1233.58 51.2678 1233.98 51.6636 1233.98 52.1518V93.6964H1230.44V52.1518Z" fill="#00D36E"/>
<path d="M1237.52 60.9911C1237.52 60.5029 1237.91 60.1072 1238.4 60.1072H1240.17C1240.66 60.1072 1241.05 60.5029 1241.05 60.9911V93.6965H1237.52V60.9911Z" fill="#00D36E"/>
<path d="M1244.59 57.4553C1244.59 56.9672 1244.98 56.5714 1245.47 56.5714H1247.24C1247.73 56.5714 1248.12 56.9672 1248.12 57.4553V93.6964H1244.59V57.4553Z" fill="#00D36E"/>
<path d="M1251.66 62.7589C1251.66 62.2707 1252.05 61.875 1252.54 61.875H1254.31C1254.8 61.875 1255.19 62.2707 1255.19 62.7589V93.6964H1251.66V62.7589Z" fill="#00D36E"/>
<path d="M1258.73 75.1339C1258.73 74.6457 1259.13 74.25 1259.61 74.25H1261.38C1261.87 74.25 1262.27 74.6457 1262.27 75.1339V93.6964H1258.73V75.1339Z" fill="#00D36E"/>
<path d="M1265.8 59.2233C1265.8 58.7351 1266.2 58.3394 1266.68 58.3394H1268.45C1268.94 58.3394 1269.34 58.7351 1269.34 59.2233V93.6965H1265.8V59.2233Z" fill="#00D36E"/>
<path d="M1272.87 83.9733C1272.87 83.4851 1273.27 83.0894 1273.76 83.0894H1275.52C1276.01 83.0894 1276.41 83.4851 1276.41 83.9733V93.6965H1272.87V83.9733Z" fill="#00D36E"/>
<path d="M1279.94 78.6696C1279.94 78.1814 1280.34 77.7856 1280.83 77.7856H1282.6C1283.08 77.7856 1283.48 78.1814 1283.48 78.6696V93.6964H1279.94V78.6696Z" fill="#00D36E"/>
<path d="M1287.02 75.1339C1287.02 74.6457 1287.41 74.25 1287.9 74.25H1289.67C1290.16 74.25 1290.55 74.6457 1290.55 75.1339V93.6964H1287.02V75.1339Z" fill="#00D36E"/>
<path d="M1294.09 73.3661C1294.09 72.8779 1294.48 72.4822 1294.97 72.4822H1296.74C1297.23 72.4822 1297.62 72.8779 1297.62 73.3661V93.6965H1294.09V73.3661Z" fill="#00D36E"/>
<path d="M1301.16 52.1518C1301.16 51.6636 1301.55 51.2678 1302.04 51.2678H1303.81C1304.3 51.2678 1304.69 51.6636 1304.69 52.1518V93.6964H1301.16V52.1518Z" fill="#00D36E"/>
<path d="M1308.23 43.3125C1308.23 42.8243 1308.63 42.4286 1309.11 42.4286H1310.88C1311.37 42.4286 1311.77 42.8243 1311.77 43.3125V93.6964H1308.23V43.3125Z" fill="#00D36E"/>
<path d="M1315.3 22.0983C1315.3 21.6101 1315.7 21.2144 1316.18 21.2144H1317.95C1318.44 21.2144 1318.84 21.6101 1318.84 22.0983V93.6965H1315.3V22.0983Z" fill="#00D36E"/>
<path d="M1322.37 11.4911C1322.37 11.0029 1322.77 10.6072 1323.26 10.6072H1325.02C1325.51 10.6072 1325.91 11.0029 1325.91 11.4911V93.6965H1322.37V11.4911Z" fill="#00D36E"/>
<path d="M1329.44 16.7946C1329.44 16.3064 1329.84 15.9106 1330.33 15.9106H1332.1C1332.58 15.9106 1332.98 16.3064 1332.98 16.7946V93.6964H1329.44V16.7946Z" fill="#00D36E"/>
<path d="M1336.52 52.1518C1336.52 51.6636 1336.91 51.2678 1337.4 51.2678H1339.17C1339.65 51.2678 1340.05 51.6636 1340.05 52.1518V93.6964H1336.52V52.1518Z" fill="#00D36E"/>
<path d="M1343.59 43.3125C1343.59 42.8243 1343.98 42.4286 1344.47 42.4286H1346.24C1346.73 42.4286 1347.12 42.8243 1347.12 43.3125V93.6964H1343.59V43.3125Z" fill="#00D36E"/>
<path d="M1350.66 32.7053C1350.66 32.2172 1351.05 31.8214 1351.54 31.8214H1353.31C1353.8 31.8214 1354.19 32.2172 1354.19 32.7053V93.6964H1350.66V32.7053Z" fill="#00D36E"/>
<path d="M1357.73 43.3125C1357.73 42.8243 1358.12 42.4286 1358.61 42.4286H1360.38C1360.87 42.4286 1361.26 42.8243 1361.26 43.3125V93.6964H1357.73V43.3125Z" fill="#00D36E"/>
<path d="M1364.8 53.9196C1364.8 53.4314 1365.2 53.0356 1365.68 53.0356H1367.45C1367.94 53.0356 1368.34 53.4314 1368.34 53.9196V93.6964H1364.8V53.9196Z" fill="#00D36E"/>
<path d="M1371.87 69.8303C1371.87 69.3422 1372.27 68.9464 1372.76 68.9464H1374.52C1375.01 68.9464 1375.41 69.3422 1375.41 69.8303V93.6964H1371.87V69.8303Z" fill="#00D36E"/>
<path d="M1378.94 80.4375C1378.94 79.9493 1379.34 79.5536 1379.83 79.5536H1381.6C1382.08 79.5536 1382.48 79.9493 1382.48 80.4375V93.6964H1378.94V80.4375Z" fill="#00D36E"/>
<path d="M1386.01 60.9911C1386.01 60.5029 1386.41 60.1072 1386.9 60.1072H1388.67C1389.15 60.1072 1389.55 60.5029 1389.55 60.9911V93.6965H1386.01V60.9911Z" fill="#00D36E"/>
<path d="M1393.09 57.4553C1393.09 56.9672 1393.48 56.5714 1393.97 56.5714H1395.74C1396.23 56.5714 1396.62 56.9672 1396.62 57.4553V93.6964H1393.09V57.4553Z" fill="#00D36E"/>
<path d="M1400.16 62.7589C1400.16 62.2707 1400.55 61.875 1401.04 61.875H1402.81C1403.3 61.875 1403.69 62.2707 1403.69 62.7589V93.6964H1400.16V62.7589Z" fill="#00D36E"/>
<path d="M1407.23 75.1339C1407.23 74.6457 1407.62 74.25 1408.11 74.25H1409.88C1410.37 74.25 1410.76 74.6457 1410.76 75.1339V93.6964H1407.23V75.1339Z" fill="#00D36E"/>
<path d="M1414.3 59.2233C1414.3 58.7351 1414.7 58.3394 1415.18 58.3394H1416.95C1417.44 58.3394 1417.84 58.7351 1417.84 59.2233V93.6965H1414.3V59.2233Z" fill="#00D36E"/>
<path d="M0.0178223 23.8661C0.0178223 23.3779 0.413571 22.9822 0.901751 22.9822H2.66961C3.15779 22.9822 3.55354 23.3779 3.55354 23.8661V93.6965H0.0178223V23.8661Z" fill="#00D36E"/>
<path d="M7.08923 32.7053C7.08923 32.2172 7.48498 31.8214 7.97316 31.8214H9.74102C10.2292 31.8214 10.6249 32.2172 10.6249 32.7053V93.6964H7.08923V32.7053Z" fill="#00D36E"/>
<path d="M14.1606 55.6875C14.1606 55.1993 14.5564 54.8036 15.0446 54.8036H16.8124C17.3006 54.8036 17.6964 55.1993 17.6964 55.6875V93.6964H14.1606V55.6875Z" fill="#00D36E"/>
<path d="M21.2321 52.1518C21.2321 51.6636 21.6278 51.2678 22.116 51.2678H23.8838C24.372 51.2678 24.7678 51.6636 24.7678 52.1518V93.6964H21.2321V52.1518Z" fill="#00D36E"/>
<path d="M28.3036 60.9911C28.3036 60.5029 28.6993 60.1072 29.1875 60.1072H30.9554C31.4436 60.1072 31.8393 60.5029 31.8393 60.9911V93.6965H28.3036V60.9911Z" fill="#00D36E"/>
<path d="M35.375 45.0803C35.375 44.5922 35.7707 44.1964 36.2589 44.1964H38.0268C38.515 44.1964 38.9107 44.5922 38.9107 45.0803V93.6964H35.375V45.0803Z" fill="#00D36E"/>
<path d="M42.4464 53.9197C42.4464 53.4315 42.8422 53.0358 43.3303 53.0358H45.0982C45.5864 53.0358 45.9821 53.4315 45.9821 53.9197V93.6965H42.4464V53.9197Z" fill="#00D36E"/>
<path d="M49.5178 45.0803C49.5178 44.5922 49.9136 44.1964 50.4018 44.1964H52.1696C52.6578 44.1964 53.0535 44.5922 53.0535 45.0803V93.6964H49.5178V45.0803Z" fill="#00D36E"/>
<path d="M56.5892 66.2947C56.5892 65.8065 56.985 65.4108 57.4732 65.4108H59.241C59.7292 65.4108 60.1249 65.8065 60.1249 66.2947V93.6965H56.5892V66.2947Z" fill="#00D36E"/>
<path d="M63.6608 39.7768C63.6608 39.2886 64.0565 38.8928 64.5447 38.8928H66.3126C66.8007 38.8928 67.1965 39.2886 67.1965 39.7768V93.6964H63.6608V39.7768Z" fill="#00D36E"/>
<path d="M70.7322 23.8661C70.7322 23.3779 71.1279 22.9822 71.6161 22.9822H73.384C73.8721 22.9822 74.2679 23.3779 74.2679 23.8661V93.6965H70.7322V23.8661Z" fill="#00D36E"/>
<path d="M77.8036 32.7053C77.8036 32.2172 78.1993 31.8214 78.6875 31.8214H80.4554C80.9436 31.8214 81.3393 32.2172 81.3393 32.7053V93.6964H77.8036V32.7053Z" fill="#00D36E"/>
<path d="M84.875 55.6875C84.875 55.1993 85.2707 54.8036 85.7589 54.8036H87.5268C88.015 54.8036 88.4107 55.1993 88.4107 55.6875V93.6964H84.875V55.6875Z" fill="#00D36E"/>
<path d="M91.9464 52.1518C91.9464 51.6636 92.3422 51.2678 92.8303 51.2678H94.5982C95.0864 51.2678 95.4821 51.6636 95.4821 52.1518V93.6964H91.9464V52.1518Z" fill="#00D36E"/>
<path d="M99.0178 60.9911C99.0178 60.5029 99.4136 60.1072 99.9018 60.1072H101.67C102.158 60.1072 102.554 60.5029 102.554 60.9911V93.6965H99.0178V60.9911Z" fill="#00D36E"/>
<path d="M106.089 45.0803C106.089 44.5922 106.485 44.1964 106.973 44.1964H108.741C109.229 44.1964 109.625 44.5922 109.625 45.0803V93.6964H106.089V45.0803Z" fill="#00D36E"/>
<path d="M113.161 53.9197C113.161 53.4315 113.557 53.0358 114.045 53.0358H115.813C116.301 53.0358 116.696 53.4315 116.696 53.9197V93.6965H113.161V53.9197Z" fill="#00D36E"/>
<path d="M120.232 45.0803C120.232 44.5922 120.628 44.1964 121.116 44.1964H122.884C123.372 44.1964 123.768 44.5922 123.768 45.0803V93.6964H120.232V45.0803Z" fill="#00D36E"/>
<path d="M127.303 66.2947C127.303 65.8065 127.699 65.4108 128.187 65.4108H129.955C130.443 65.4108 130.839 65.8065 130.839 66.2947V93.6965H127.303V66.2947Z" fill="#00D36E"/>
<path d="M134.375 39.7768C134.375 39.2886 134.771 38.8928 135.259 38.8928H137.027C137.515 38.8928 137.911 39.2886 137.911 39.7768V93.6964H134.375V39.7768Z" fill="#00D36E"/>
<path d="M141.446 23.8661C141.446 23.3779 141.842 22.9822 142.33 22.9822H144.098C144.586 22.9822 144.982 23.3779 144.982 23.8661V93.6965H141.446V23.8661Z" fill="#00D36E"/>
<path d="M148.518 32.7053C148.518 32.2172 148.913 31.8214 149.402 31.8214H151.169C151.658 31.8214 152.053 32.2172 152.053 32.7053V93.6964H148.518V32.7053Z" fill="#00D36E"/>
<path d="M155.589 55.6875C155.589 55.1993 155.985 54.8036 156.473 54.8036H158.241C158.729 54.8036 159.125 55.1993 159.125 55.6875V93.6964H155.589V55.6875Z" fill="#00D36E"/>
<path d="M162.661 52.1518C162.661 51.6636 163.056 51.2678 163.545 51.2678H165.312C165.801 51.2678 166.196 51.6636 166.196 52.1518V93.6964H162.661V52.1518Z" fill="#00D36E"/>
<path d="M169.732 60.9911C169.732 60.5029 170.128 60.1072 170.616 60.1072H172.384C172.872 60.1072 173.268 60.5029 173.268 60.9911V93.6965H169.732V60.9911Z" fill="#00D36E"/>
<path d="M176.803 45.0803C176.803 44.5922 177.199 44.1964 177.687 44.1964H179.455C179.943 44.1964 180.339 44.5922 180.339 45.0803V93.6964H176.803V45.0803Z" fill="#00D36E"/>
<path d="M183.875 53.9197C183.875 53.4315 184.271 53.0358 184.759 53.0358H186.527C187.015 53.0358 187.411 53.4315 187.411 53.9197V93.6965H183.875V53.9197Z" fill="#00D36E"/>
<path d="M190.946 45.0803C190.946 44.5922 191.342 44.1964 191.83 44.1964H193.598C194.086 44.1964 194.482 44.5922 194.482 45.0803V93.6964H190.946V45.0803Z" fill="#00D36E"/>
</svg>
