<svg xmlns="http://www.w3.org/2000/svg" width="219" height="146" viewBox="0 0 219 146">
  <g fill="none" fill-rule="evenodd">
    <rect width="219" height="145"/>
    <path fill="#FFF" fill-rule="nonzero" d="M20.9998782,0 C9.40221363,0 0,9.4019557 0,20.9996203 C0,32.5985315 9.40221363,42 20.9998782,42 C32.5980586,42 41.9997564,32.5985458 41.9997564,20.9996203 C41.9997564,9.40270084 32.5985458,0.00100306481 20.9996203,0.00100306481 L20.9998782,0 Z M30.6302891,30.2874845 C30.2531367,30.9061319 29.4471741,31.099967 28.8305329,30.7230582 C23.8992227,27.7091064 17.6922577,27.028269 10.3824372,28.6981283 C9.67804213,28.8596361 8.97589676,28.4180296 8.81542072,27.7138638 C8.65417089,27.0094687 9.09375688,26.3073234 9.7999145,26.1468473 C17.799342,24.3180022 24.6610504,25.1051645 30.1962056,28.4874847 C30.8130905,28.866156 31.0086738,29.6711155 30.6300311,30.287986 L30.6302891,30.2874845 L30.6302891,30.2874845 Z M33.2006283,24.5702874 C32.7256771,25.3408848 31.7180985,25.5826234 30.9485042,25.1094204 C25.305018,21.6403351 16.6994814,20.6355077 10.0228528,22.6622145 C9.15694996,22.9237565 8.24241279,22.4357655 7.97960981,21.5713815 C7.71881296,20.7054787 8.20706192,19.7926897 9.07144585,19.5293852 C16.6979912,17.215329 26.1789311,18.3362396 32.661223,22.3196679 C33.4310896,22.793616 33.6743185,23.8016961 33.2003704,24.570531 L33.2006283,24.5702874 Z M33.4213026,18.6160947 C26.6521197,14.5960689 15.4865182,14.2264395 9.02453108,16.1876748 C7.98687486,16.5023792 6.88952196,15.9165894 6.57506115,14.8789188 C6.26060033,13.8407611 6.84588865,12.7441533 7.88430432,12.4286894 C15.3022122,10.1768233 27.633633,10.6118955 35.4259133,15.2377724 C36.3592651,15.7917078 36.6654578,16.9971338 36.1122532,17.9292389 C35.5605675,18.8625907 34.3518745,19.1702737 33.4215462,18.6160947 L33.4213026,18.6160947 L33.4213026,18.6160947 Z M57.1337259,19.3864485 C53.5078903,18.5218066 52.8624181,17.9149667 52.8624181,16.6397991 C52.8624181,15.4351326 53.9966264,14.6244126 55.6832799,14.6244126 C57.3182755,14.6244126 58.9394719,15.2400365 60.6391652,16.5074089 C60.6905794,16.5457833 60.7550335,16.5610585 60.8184702,16.5510422 C60.8819212,16.5415131 60.9380928,16.5066494 60.9752062,16.4542464 L62.7456156,13.9586212 C62.8183378,13.855807 62.7985201,13.7141313 62.7004777,13.6356343 C60.6775539,12.0124319 58.3995937,11.2232635 55.7369725,11.2232635 C51.8220106,11.2232635 49.0874123,13.5726848 49.0874123,16.9342129 C49.0874123,20.5389699 51.4463628,21.8153699 55.5228182,22.8006231 C58.9924194,23.5998078 59.5779656,24.2693679 59.5779656,25.4662679 C59.5779656,26.7925631 58.3938333,27.6170824 56.4882681,27.6170824 C54.3718157,27.6170824 52.6455411,26.9041613 50.7143834,25.2317943 C50.6664943,25.1904107 50.6007792,25.1716247 50.5401081,25.1751355 C50.4761555,25.1803944 50.4177199,25.2099848 50.3771101,25.2588914 L48.3920448,27.6213526 C48.3087904,27.719395 48.3193226,27.8658425 48.4156312,27.9506158 C50.662482,29.9564875 53.4259112,31.0159818 56.4080372,31.0159818 C60.6266555,31.0159818 63.3527655,28.7109389 63.3527655,25.1432953 C63.3602651,22.1315932 61.5572704,20.463998 57.1412776,19.3897156 L57.1337259,19.3864485 L57.1337259,19.3864485 Z M72.8968607,15.8105224 C71.0682879,15.8105224 69.5684481,16.530723 68.3316692,18.0064749 L68.3316692,16.3453996 C68.3316692,16.214256 68.2253443,16.1074296 68.0944444,16.1074296 L64.8477815,16.1074296 C64.7166379,16.1074296 64.6105567,16.214256 64.6105567,16.3453996 L64.6105567,34.8022649 C64.6105567,34.9334084 64.7166236,35.0402348 64.8477815,35.0402348 L68.0944444,35.0402348 C68.2253443,35.0402348 68.3316692,34.9334228 68.3316692,34.8022649 L68.3316692,28.9762209 C69.568706,30.3644626 71.0687894,31.0427923 72.8968607,31.0427923 C76.2944848,31.0427923 79.7340138,28.4273152 79.7340138,23.4275386 C79.7390237,18.4265154 76.2985114,15.8102788 72.9006294,15.8102788 L72.8968607,15.8105224 Z M75.958716,23.4275386 C75.958716,25.973575 74.3904242,27.7502464 72.1448057,27.7502464 C69.924794,27.7502464 68.2501773,25.892814 68.2501773,23.4275386 C68.2501773,20.9625212 69.924794,19.1048452 72.1448057,19.1048452 C74.3540703,19.1045872 75.958974,20.9221407 75.958974,23.4272807 L75.958716,23.4275386 L75.958716,23.4275386 Z M88.5496727,15.8105224 C84.1740604,15.8105224 80.7460864,19.1798171 80.7460864,23.4819477 C80.7460864,27.7371922 84.1504884,31.0711217 88.4960087,31.0711217 C92.8871685,31.0711217 96.3256603,27.7131187 96.3256603,23.4275243 C96.3256603,19.1567323 92.9102247,15.811024 88.5494148,15.811024 L88.5496727,15.8105224 L88.5496727,15.8105224 Z M88.5496727,27.7755666 C86.2223044,27.7755666 84.4677005,25.9055959 84.4677005,23.4262776 C84.4677005,20.9364129 86.1616333,19.1296495 88.4959944,19.1296495 C90.8384086,19.1296495 92.6047914,20.9996059 92.6047914,23.4806867 C92.6047914,25.97005 90.8995956,27.7755666 88.549902,27.7755666 L88.5496727,27.7755666 L88.5496727,27.7755666 Z M105.669438,16.1074439 L102.096779,16.1074439 L102.096779,12.4547834 C102.096779,12.3238835 101.990956,12.2170571 101.859812,12.2170571 L98.6136512,12.2170571 C98.4822497,12.2170571 98.3756812,12.3238835 98.3756812,12.4547834 L98.3756812,16.1074439 L96.8146544,16.1074439 C96.6840124,16.1074439 96.5781747,16.214256 96.5781747,16.3454139 L96.5781747,19.1356823 C96.5781747,19.2665822 96.6840124,19.3736522 96.8146544,19.3736522 L98.3756812,19.3736522 L98.3756812,26.5934548 C98.3756812,29.5111124 99.8278611,30.9903893 102.691855,30.9903893 C103.856427,30.9903893 104.822608,30.7498974 105.733147,30.2335769 C105.807116,30.1921934 105.852999,30.112464 105.852999,30.0277051 L105.852999,27.3705864 C105.852999,27.2885787 105.810355,27.2110991 105.740154,27.1682252 C105.669438,27.1238324 105.581427,27.1215827 105.508948,27.1574351 C104.883523,27.4721539 104.278947,27.6173403 103.603125,27.6173403 C102.561456,27.6173403 102.096779,27.1443953 102.096779,26.0844137 L102.096779,19.3749275 L105.669438,19.3749275 C105.800582,19.3749275 105.906162,19.2681011 105.906162,19.1369576 L105.906162,16.3469328 C105.911177,16.2157893 105.805855,16.1089629 105.672963,16.1089629 L105.669438,16.1074439 L105.669438,16.1074439 Z M118.117473,16.1217304 L118.117473,15.6731025 C118.117473,14.3533129 118.623504,13.7647717 119.758487,13.7647717 C120.435297,13.7647717 120.978973,13.8991824 121.587819,14.1023031 C121.662805,14.1258894 121.74103,14.1140962 121.801973,14.0692019 C121.864665,14.0243076 121.90003,13.9523449 121.90003,13.8761119 L121.90003,11.1402527 C121.90003,11.035676 121.832825,10.9431504 121.732002,10.912299 C121.08878,10.7209573 120.265779,10.5246145 119.033529,10.5246145 C116.034852,10.5246145 114.449766,12.2132741 114.449766,15.406273 L114.449766,16.0933724 L112.89,16.0933724 C112.7591,16.0933724 112.651772,16.2001988 112.651772,16.3310987 L112.651772,19.1356679 C112.651772,19.2665679 112.7591,19.3736379 112.89,19.3736379 L114.449766,19.3736379 L114.449766,30.5098926 C114.449766,30.6410362 114.555589,30.7478626 114.686504,30.7478626 L117.933167,30.7478626 C118.06431,30.7478626 118.171137,30.6410362 118.171137,30.5098926 L118.171137,19.3744117 L121.202398,19.3744117 L125.845829,30.5079152 C125.318718,31.6777323 124.800363,31.9104434 124.09273,31.9104434 C123.520725,31.9104434 122.918384,31.7396644 122.302488,31.4026346 C122.244568,31.3707802 122.175858,31.3655213 122.113425,31.3848374 C122.051478,31.4066469 121.999333,31.4527879 121.972996,31.5129718 L120.872634,33.9270908 C120.820216,34.0411966 120.865111,34.1751201 120.974946,34.2342866 C122.123699,34.8564304 123.160639,35.1219846 124.442298,35.1219846 C126.839608,35.1219846 128.164671,34.0053299 129.33274,31.0011508 L134.965178,16.4467091 C134.993508,16.3734854 134.984996,16.2907325 134.940102,16.2257913 C134.895494,16.1613372 134.823503,16.1224756 134.744748,16.1224756 L131.364921,16.1224756 C131.26364,16.1224756 131.173063,16.1869153 131.139991,16.2819629 L127.677683,26.171666 L123.885353,16.275443 C123.850762,16.1834046 123.76199,16.1224612 123.66369,16.1224612 L118.116727,16.1224612 L118.117473,16.1217304 L118.117473,16.1217304 Z M110.900421,16.1074439 L107.653758,16.1074439 C107.522601,16.1074439 107.415788,16.214256 107.415788,16.3454139 L107.415788,30.509907 C107.415788,30.6410505 107.522601,30.7478769 107.653758,30.7478769 L110.900421,30.7478769 C111.031321,30.7478769 111.138392,30.6410505 111.138392,30.509907 L111.138392,16.3464026 C111.138533,16.2831986 111.113469,16.2225464 111.068751,16.1778798 C111.024034,16.1332133 110.963353,16.1082189 110.900149,16.1084327 L110.900421,16.1074439 Z M109.295518,9.65799516 C108.009345,9.65799516 106.965656,10.6991621 106.965656,11.9853491 C106.965656,13.2722813 108.009603,14.3147235 109.295532,14.3147235 C110.581217,14.3147235 111.623875,13.2722813 111.623875,11.9853491 C111.623875,10.69942 110.580702,9.65799516 109.296793,9.65799516 L109.295518,9.65799516 L109.295518,9.65799516 Z M137.737377,20.6615874 C136.452451,20.6615874 135.452668,19.6296773 135.452668,18.3766058 C135.452668,17.1235343 136.465505,16.0798453 137.749414,16.0798453 C139.034369,16.0798453 140.034152,17.1114975 140.034152,18.363566 C140.034152,19.6166518 139.021042,20.6615874 137.737148,20.6615874 L137.737377,20.6615874 L137.737377,20.6615874 Z M137.749915,16.3070395 C136.579597,16.3070395 135.694134,17.2373821 135.694134,18.3766058 C135.694134,19.5153423 136.57332,20.4331466 137.738137,20.4331466 C138.908197,20.4331466 139.794677,19.5035634 139.794677,18.363566 C139.794677,17.2248438 138.914474,16.3070395 137.750933,16.3070395 L137.749915,16.3070395 L137.749915,16.3070395 Z M138.256492,18.5985267 L138.902724,19.5033055 L138.357816,19.5033055 L137.776009,18.6732694 L137.275767,18.6732694 L137.275767,19.5033055 L136.81963,19.5033055 L136.81963,17.1049776 L137.889141,17.1049776 C138.446343,17.1049776 138.81272,17.3900916 138.81272,17.8700724 C138.815213,18.2632738 138.58703,18.5035078 138.258512,18.5985411 L138.256492,18.5985411 L138.256492,18.5985267 Z M137.870312,17.5164921 L137.275466,17.5164921 L137.275466,18.275067 L137.870312,18.275067 C138.167205,18.275067 138.344475,18.1298662 138.344475,17.895407 C138.344475,17.648653 138.166445,17.5165064 137.870541,17.5165064 L137.870312,17.5165064 L137.870312,17.5164921 Z" transform="translate(39 52)"/>
  </g>
</svg>
