<svg width="61" height="20" viewBox="0 0 61 20" fill="none" xmlns="http://www.w3.org/2000/svg">
<path fill-rule="evenodd" clip-rule="evenodd" d="M9.14771 0.852173C4.09568 0.852173 0 4.94774 0 9.99978C0 15.0524 4.09568 19.1477 9.14771 19.1477C14.2 19.1477 18.2954 15.0524 18.2954 9.99978C18.2954 4.94806 14.2002 0.85261 9.1476 0.85261L9.14771 0.852173ZM13.343 14.0457C13.1787 14.3152 12.8276 14.3997 12.559 14.2355C10.4109 12.9226 7.70705 12.626 4.52283 13.3534C4.21599 13.4238 3.91013 13.2314 3.84023 12.9246C3.76998 12.6178 3.96147 12.3119 4.26908 12.242C7.75369 11.4454 10.7427 11.7883 13.1539 13.2616C13.4226 13.4266 13.5078 13.7772 13.3428 14.046L13.343 14.0457ZM13.4815 11.79C13.8167 11.9962 14.2557 11.8909 14.4626 11.5552L14.4624 11.5553C14.6689 11.2204 14.5629 10.7812 14.2276 10.5748C11.4038 8.83958 7.27387 8.3513 3.95168 9.35932C3.57515 9.47402 3.36247 9.87164 3.47607 10.2488C3.59055 10.6254 3.98893 10.8379 4.36613 10.724C7.27452 9.84116 11.0232 10.2789 13.4815 11.79ZM14.5586 8.96161C11.6099 7.21045 6.74605 7.04944 3.93116 7.90377C3.47915 8.04086 3.00113 7.78568 2.86415 7.33367C2.72717 6.88144 2.98212 6.40374 3.43447 6.26633C6.66577 5.2854 12.0374 5.47492 15.4318 7.48999C15.8384 7.73128 15.9718 8.25638 15.7308 8.66241C15.4905 9.06898 14.964 9.20301 14.5587 8.96161H14.5586ZM23.0272 8.10064C23.0272 8.65612 23.3084 8.92046 24.8878 9.29711L24.8911 9.29853C26.8147 9.76649 27.6001 10.4929 27.5968 11.8048C27.5968 13.3589 26.4093 14.363 24.5717 14.363C23.2726 14.363 22.0689 13.9015 21.0901 13.0277C21.0482 12.9908 21.0436 12.927 21.0798 12.8843L21.9446 11.8552C21.9622 11.8339 21.9877 11.821 22.0156 11.8187C22.042 11.8172 22.0706 11.8254 22.0915 11.8434C22.9327 12.5719 23.6847 12.8824 24.6066 12.8824C25.4367 12.8824 25.9525 12.5233 25.9525 11.9455C25.9525 11.4241 25.6975 11.1325 24.1861 10.7843C22.4103 10.3552 21.3828 9.79915 21.3828 8.22889C21.3828 6.76458 22.574 5.74116 24.2794 5.74116C25.4392 5.74116 26.4315 6.08492 27.3127 6.792C27.3554 6.8262 27.3641 6.88791 27.3324 6.9327L26.5612 8.01981C26.545 8.04264 26.5205 8.05783 26.4929 8.06198C26.4653 8.06634 26.4372 8.05969 26.4148 8.04297C25.6744 7.4909 24.9682 7.22272 24.256 7.22272C23.5212 7.22272 23.0272 7.57588 23.0272 8.10064ZM31.7544 7.73941C30.9579 7.73941 30.3046 8.05313 29.7658 8.69598V7.9724C29.7658 7.91528 29.7195 7.86874 29.6625 7.86874H28.2482C28.1911 7.86874 28.1449 7.91528 28.1449 7.9724V16.0124C28.1449 16.0695 28.1911 16.116 28.2482 16.116H29.6625C29.7195 16.116 29.7658 16.0695 29.7658 16.0124V13.4745C30.3047 14.0792 30.9581 14.3747 31.7544 14.3747C33.2345 14.3747 34.7327 13.2354 34.7327 11.0574C34.7349 8.87895 33.2362 7.7393 31.7561 7.7393L31.7544 7.73941ZM31.4268 12.9405C32.405 12.9405 33.0882 12.1666 33.0882 11.0575L33.0883 11.0574C33.0883 9.96613 32.3892 9.17439 31.4268 9.1745C30.4597 9.1745 29.7302 9.98372 29.7302 11.0575C29.7302 12.1314 30.4597 12.9405 31.4268 12.9405ZM38.573 7.73944C36.667 7.73944 35.1737 9.20713 35.1737 11.0812C35.1737 12.9348 36.6567 14.3871 38.5497 14.3871C40.4625 14.3871 41.9603 12.9243 41.9603 11.0575C41.9603 9.19707 40.4725 7.73966 38.5729 7.73966L38.573 7.73944ZM36.7949 11.0569C36.7949 12.1369 37.5592 12.9515 38.573 12.9515H38.5731C39.5966 12.9515 40.3394 12.165 40.3394 11.0806C40.3394 9.99982 39.57 9.18525 38.5496 9.18525C37.5328 9.18525 36.7949 9.97229 36.7949 11.0569ZM46.0305 7.86869H44.4742V6.27756C44.4742 6.22054 44.4281 6.17401 44.371 6.17401H42.957C42.8997 6.17401 42.8533 6.22054 42.8533 6.27756V7.86869H42.1733C42.1164 7.86869 42.0703 7.91522 42.0703 7.97235V9.18781C42.0703 9.24484 42.1164 9.29148 42.1733 9.29148H42.8533V12.4365C42.8533 13.7074 43.4859 14.3518 44.7335 14.3518C45.2408 14.3518 45.6616 14.2471 46.0583 14.0221C46.0905 14.0041 46.1105 13.9694 46.1105 13.9325V12.775C46.1105 12.7393 46.0919 12.7055 46.0613 12.6869C46.0305 12.6675 45.9922 12.6665 45.9606 12.6822C45.6882 12.8192 45.4248 12.8825 45.1304 12.8825C44.6767 12.8825 44.4742 12.6765 44.4742 12.2147V9.29203H46.0305C46.0877 9.29203 46.1336 9.2455 46.1336 9.18837V7.97301C46.1358 7.91589 46.09 7.86935 46.0321 7.86935L46.0305 7.86869ZM51.453 7.67959V7.87501L51.4527 7.87533H53.869C53.9118 7.87533 53.9505 7.90188 53.9655 7.94197L55.6175 12.2528L57.1257 7.94481C57.1401 7.90341 57.1796 7.87534 57.2237 7.87534H58.696C58.7303 7.87534 58.7617 7.89227 58.7811 7.92034C58.8006 7.94863 58.8043 7.98468 58.792 8.01658L56.3385 14.3566C55.8296 15.6653 55.2524 16.1517 54.2082 16.1517C53.6499 16.1517 53.1982 16.036 52.6977 15.765C52.6499 15.7392 52.6303 15.6809 52.6532 15.6312L53.1325 14.5796C53.144 14.5533 53.1667 14.5332 53.1937 14.5237C53.2209 14.5153 53.2508 14.5176 53.276 14.5315C53.5443 14.6783 53.8067 14.7527 54.0559 14.7527C54.3641 14.7527 54.5899 14.6513 54.8195 14.1418L52.7968 9.29191H51.4764V14.1426C51.4764 14.1997 51.4299 14.2463 51.3727 14.2463H49.9585C49.9014 14.2463 49.8553 14.1997 49.8553 14.1426V9.29157H49.1759C49.1189 9.29157 49.0721 9.24493 49.0721 9.18791V7.96622C49.0721 7.90919 49.1189 7.86266 49.1759 7.86266H49.8553V7.56335C49.8553 6.17246 50.5458 5.43686 51.8521 5.43686C52.3888 5.43686 52.7473 5.52239 53.0275 5.60574C53.0714 5.61918 53.1007 5.65949 53.1007 5.70504V6.8968C53.1007 6.93001 53.0853 6.96136 53.058 6.98091C53.0315 7.00047 52.9974 7.00561 52.9647 6.99533C52.6995 6.90685 52.4627 6.8483 52.1678 6.8483C51.6734 6.8483 51.453 7.10468 51.453 7.67959ZM48.3092 7.86869H46.895C46.8378 7.86869 46.7913 7.91522 46.7913 7.97236V14.1425C46.7913 14.1996 46.8378 14.2462 46.895 14.2462H48.3092C48.3663 14.2462 48.4129 14.1996 48.4129 14.1425V7.97279C48.413 7.94525 48.402 7.91883 48.3826 7.89938C48.3631 7.87992 48.3367 7.86903 48.3091 7.86912L48.3092 7.86869ZM46.5951 6.0731C46.5951 5.51283 47.0497 5.05929 47.61 5.05929H47.6105C48.1698 5.05929 48.6242 5.51294 48.6242 6.0731C48.6242 6.6337 48.17 7.0878 47.61 7.0878C47.0498 7.0878 46.5951 6.6337 46.5951 6.0731ZM59.9995 9.85253C59.4398 9.85248 59.0043 9.40299 59.0043 8.85718C59.0043 8.31133 59.4455 7.85669 60.0048 7.85669C60.5646 7.85669 61.0001 8.30609 61.0001 8.8515C61.0001 9.39735 60.5587 9.85253 59.9995 9.85253ZM59.1093 8.85717C59.1093 8.36092 59.495 7.95565 60.0048 7.95565H60.0053C60.5121 7.95565 60.8955 8.35546 60.8955 8.85149C60.8955 9.34809 60.5094 9.75302 59.9997 9.75302C59.4923 9.75302 59.1093 9.35322 59.1093 8.85717ZM60.2257 8.95396L60.5072 9.34809H60.2698L60.0164 8.98652H59.7985V9.34809H59.5998V8.30336H60.0657C60.3084 8.30336 60.468 8.42756 60.468 8.63664C60.4691 8.80792 60.3697 8.91257 60.2266 8.95397L60.2257 8.95396ZM59.7983 8.48258H60.0574L60.0575 8.48259C60.1864 8.48259 60.264 8.54015 60.264 8.64764C60.264 8.74977 60.1867 8.81303 60.0574 8.81303H59.7983V8.48258Z" fill="#1DB954"/>
</svg>
