<svg width="60" height="30" viewBox="0 0 60 30" fill="none" xmlns="http://www.w3.org/2000/svg">
<g clip-path="url(#clip0)">
<path d="M24.6463 0H24.6793C24.9312 0.288951 25.216 0.544878 25.4843 0.821445L27.3088 2.64596V2.67898C26.4255 3.55822 25.5462 4.44571 24.6628 5.32494C23.7753 4.44158 22.892 3.55409 22.0045 2.67073C22.05 2.58404 22.1366 2.52625 22.2026 2.45608C23.0158 1.63463 23.8414 0.825573 24.6463 0ZM29.9713 0H30.0043C30.0291 0.0371508 30.0538 0.0701737 30.0869 0.103197C30.9413 0.949409 31.7835 1.808 32.6461 2.65009C32.6255 2.69962 32.5801 2.73265 32.5429 2.7698C31.6885 3.62014 30.8381 4.4746 29.9837 5.32494C29.092 4.44571 28.2169 3.54996 27.3212 2.67486C28.188 1.77085 29.1003 0.899874 29.9713 0ZM35.2962 0H35.3292C35.4944 0.198137 35.6884 0.36738 35.8659 0.553134C36.5346 1.22185 37.1992 1.88643 37.8679 2.55515C37.901 2.5923 37.9546 2.62532 37.9669 2.67898C37.0712 3.54996 36.2043 4.45397 35.3045 5.32494L32.7658 2.78631C32.7246 2.7409 32.6709 2.70788 32.6503 2.65009C33.1002 2.21254 33.5377 1.7626 33.9836 1.32092C34.4211 0.879235 34.8669 0.449937 35.2962 0ZM27.3583 7.94614C28.2293 7.07516 29.1044 6.20418 29.9754 5.32907L30.0125 5.34558C30.8876 6.22482 31.7627 7.10405 32.646 7.97503C32.6172 8.04108 32.5553 8.07823 32.5098 8.13189C31.8742 8.76346 31.2384 9.40327 30.6028 10.0348C30.3964 10.233 30.1982 10.4559 29.9878 10.6416C29.6864 10.3692 29.4099 10.0637 29.1167 9.78304C28.5224 9.18863 27.9321 8.59421 27.3336 8.00393C27.3418 7.98742 27.3501 7.96265 27.3583 7.94614ZM0.0112305 19.3968H7.95324C7.95737 20.0324 7.95737 20.6682 7.95324 21.2998H5.09263V28.8125C5.0885 28.9363 5.10089 29.0602 5.07612 29.184H2.86771C2.87597 26.5546 2.87184 23.9292 2.87184 21.2998H0.0112305V19.3968ZM14.5785 19.3968C15.3215 19.3968 16.0645 19.3968 16.8075 19.401C16.8034 22.662 16.8158 25.923 16.7993 29.184H14.5826C14.5702 28.3171 14.5785 27.4503 14.5743 26.5834C14.5785 24.1893 14.5743 21.7951 14.5785 19.3968ZM53.8799 19.3968C54.6229 19.3968 55.3659 19.3968 56.1089 19.401V27.2191C57.4009 27.2273 58.6971 27.2233 59.9891 27.2233V29.184H53.884C53.8716 25.923 53.884 22.662 53.8799 19.3968ZM32.9268 22.6785C32.7039 21.9106 32.2705 21.2131 31.6678 20.6889C30.8711 19.983 29.8309 19.5991 28.7866 19.4629C28.1963 19.3762 27.5977 19.401 27.0034 19.3968H24.3657C24.3162 19.3968 24.2625 19.401 24.213 19.4092C24.2254 22.6413 24.213 25.8735 24.2212 29.1055C24.2171 29.1261 24.213 29.1633 24.2089 29.1839H28.0229C28.3656 29.122 28.7165 29.1261 29.0549 29.0518C30.2107 28.8413 31.3211 28.2675 32.0765 27.3553C32.6337 26.6948 32.9764 25.865 33.0878 25.0106C33.1869 24.2306 33.1456 23.4298 32.9268 22.6785ZM30.413 25.9271C30.1364 26.3688 29.7277 26.7197 29.253 26.9343C28.8237 27.1325 28.349 27.2233 27.8784 27.2356C27.383 27.2399 26.8877 27.2356 26.3923 27.2399C26.3676 26.6908 26.3882 26.1418 26.3799 25.5928C26.3799 24.1605 26.3799 22.7322 26.3842 21.2999H27.9156C28.6834 21.3164 29.4635 21.5806 30.0208 22.1254C30.5203 22.6084 30.801 23.2895 30.8464 23.9788C30.8918 24.6516 30.768 25.3492 30.413 25.9271ZM47.0111 26.8807C46.0782 24.6145 45.1494 22.3441 44.2084 20.0821C44.1216 19.855 44.0308 19.6239 43.9276 19.4051C43.1598 19.3927 42.3921 19.3927 41.6242 19.4051C40.3116 22.5629 38.9989 25.7207 37.6863 28.8744C37.6451 28.9776 37.5955 29.0767 37.5749 29.184H39.9484C40.1837 28.5318 40.4355 27.8878 40.6708 27.2356C42.0165 27.215 43.3663 27.2315 44.7161 27.2274C44.7863 27.2068 44.8069 27.2811 44.8234 27.3306C45.0504 27.9498 45.2817 28.5648 45.5045 29.184H47.9524C47.655 28.408 47.3248 27.6484 47.0111 26.8807ZM41.2981 25.4978C41.2857 25.411 41.3394 25.3368 41.3642 25.2584C41.8141 24.082 42.2765 22.9055 42.7222 21.7291C42.7305 21.7249 42.747 21.7208 42.7553 21.7208C43.2217 22.9592 43.6964 24.1933 44.167 25.4317C44.167 25.4482 44.1711 25.4812 44.1711 25.4978C43.2135 25.4896 42.2558 25.4896 41.2981 25.4978Z" fill="white" stroke="white" stroke-width="0.00388019"/>
</g>
<defs>
<clipPath id="clip0">
<rect width="60" height="29.184" fill="white"/>
</clipPath>
</defs>
</svg>
