<svg xmlns="http://www.w3.org/2000/svg" width="219" height="146" viewBox="0 0 219 146">
  <path fill="#FFF" d="M99.2712871,45 L99.3346535,45 C99.8179802,45.5544554 100.364356,46.0455446 100.879208,46.5762376 L104.380198,50.0772277 L104.380198,50.1405941 C102.685307,51.8277228 100.99802,53.5306931 99.3029703,55.2178218 C97.6,53.5227723 95.9049505,51.819802 94.2019802,50.1247525 C94.2892673,49.9584158 94.4554455,49.8475248 94.5821782,49.7128713 C96.1425743,48.1366337 97.7267327,46.5841584 99.2712871,45 Z M109.489109,45 L109.552475,45 C109.600158,45.0712871 109.647525,45.1346535 109.710891,45.1980198 C111.350495,46.8217822 112.966495,48.4693069 114.621782,50.0851485 C114.582178,50.180198 114.49505,50.2435644 114.423762,50.3148515 C112.784317,51.9465347 111.152475,53.5861386 109.512871,55.2178218 C107.80198,53.5306931 106.122772,51.8118812 104.40396,50.1326733 C106.067327,48.3980198 107.817822,46.7267327 109.489109,45 Z M119.706931,45 L119.770297,45 C120.087129,45.380198 120.459406,45.7049505 120.8,46.0613861 C122.083168,47.3445545 123.358574,48.619802 124.641584,49.9029703 C124.705109,49.9742574 124.808079,50.0376238 124.831683,50.1405941 C123.112871,51.8118812 121.449505,53.5465347 119.722772,55.2178218 L114.851485,50.3465347 C114.772277,50.2594059 114.669307,50.1960396 114.629703,50.0851485 C115.493069,49.2455446 116.332673,48.3821782 117.188119,47.5346535 C118.027723,46.6871287 118.883168,45.8633663 119.706931,45 Z M104.475248,60.2475248 C106.146535,58.5762376 107.825743,56.9049505 109.49703,55.2257426 L109.568158,55.2574257 C111.247366,56.9445545 112.926574,58.6316832 114.621624,60.3029703 C114.566337,60.429703 114.447525,60.5009901 114.360238,60.6039604 C113.140594,61.8158416 111.920634,63.0435644 110.700832,64.2554455 C110.304792,64.6356436 109.924594,65.0633663 109.520792,65.419802 C108.942574,64.8970297 108.411881,64.3108911 107.849347,63.7722772 C106.708911,62.6316832 105.576238,61.4910891 104.427723,60.3584158 C104.443564,60.3267327 104.459406,60.2792079 104.475248,60.2475248 Z M52,82.219802 L67.239604,82.219802 C67.2475248,83.4394455 67.2475248,84.6594059 67.239604,85.8712871 L61.750495,85.8712871 L61.750495,100.287129 C61.7425743,100.524752 61.7663366,100.762376 61.7188119,101 L57.4811881,101 C57.4970297,95.9544554 57.4891089,90.9168317 57.4891089,85.8712871 L52,85.8712871 L52,82.219802 Z M79.9524752,82.219802 C81.3782178,82.219802 82.8039604,82.219802 84.229703,82.2277228 C84.2217822,88.4851485 84.2455446,94.7425743 84.2138614,101 L79.960396,101 C79.9366337,99.3366337 79.9524752,97.6732673 79.9445545,96.009901 C79.9524752,91.4158416 79.9445545,86.8217822 79.9524752,82.219802 L79.9524752,82.219802 Z M155.366337,82.219802 C156.792079,82.219802 158.217822,82.219802 159.643564,82.2277228 L159.643564,97.229703 C162.122772,97.2453861 164.609901,97.2376238 167.089109,97.2376238 L167.089109,101 L155.374257,101 C155.350495,94.7425743 155.374257,88.4851485 155.366337,82.219802 Z M115.160396,88.5168317 C114.732673,87.0434059 113.90099,85.7049505 112.744554,84.6990099 C111.215842,83.3445545 109.219802,82.6079208 107.215842,82.3465347 C106.083168,82.180198 104.934653,82.2277228 103.794218,82.219802 L98.7328317,82.219802 C98.6377822,82.219802 98.5348119,82.2277228 98.4397624,82.2435644 C98.4635248,88.4455446 98.4397624,94.6475248 98.455604,100.849347 C98.4476832,100.88895 98.4397624,100.960238 98.4318416,100.999842 L105.750495,100.999842 C106.408079,100.88103 107.081347,100.88895 107.730693,100.746376 C109.948515,100.342416 112.079208,99.2414257 113.528713,97.4909307 C114.59802,96.223604 115.255446,94.6313663 115.469307,92.9919208 C115.659406,91.4950495 115.580198,89.9584158 115.160396,88.5168317 L115.160396,88.5168317 Z M110.336634,94.750495 C109.805941,95.5980198 109.021782,96.2712871 108.110891,96.6831683 C107.287129,97.0633663 106.376238,97.2376238 105.473109,97.2613861 C104.522614,97.2694653 103.572119,97.2613861 102.621624,97.2694653 C102.574099,96.2158416 102.613703,95.1623762 102.597861,94.1090693 C102.597861,91.3605545 102.597861,88.6199604 102.605941,85.8714455 L105.544554,85.8714455 C107.017822,85.9031287 108.514851,86.4100594 109.584158,87.455604 C110.542574,88.3823366 111.081188,89.6892673 111.168317,91.0120396 C111.255446,92.3029703 111.017822,93.6415842 110.336634,94.750495 L110.336634,94.750495 Z M142.186139,96.580198 C140.39604,92.2316832 138.613861,87.8752475 136.808079,83.5346535 C136.641584,83.0990099 136.467406,82.6554455 136.269386,82.2356436 C134.79604,82.2118812 133.322931,82.2118812 131.849505,82.2356436 C129.330693,88.2950495 126.811881,94.3544554 124.293228,100.405941 C124.21402,100.60396 124.11897,100.794059 124.079366,101 L128.633822,101 C129.085307,99.7485149 129.568475,98.5128713 130.01996,97.2613861 C132.602139,97.2217822 135.192238,97.2534653 137.782337,97.2455446 C137.91699,97.2059406 137.956594,97.3486733 137.988277,97.4435644 C138.423921,98.6316832 138.867644,99.8118812 139.295208,101 L143.992396,101 C143.421782,99.5108911 142.788119,98.0534653 142.186139,96.580198 L142.186139,96.580198 Z M131.223762,93.9267327 C131.2,93.7602376 131.30297,93.6178218 131.350495,93.4673267 C132.213861,91.209901 133.101149,88.9524752 133.956436,86.6950495 C133.972277,86.6869703 134.00396,86.6792079 134.019802,86.6792079 C134.914851,89.0554455 135.825743,91.423604 136.728713,93.7998416 C136.728713,93.8315248 136.736634,93.8948911 136.736634,93.9267327 C134.89901,93.9108911 133.061386,93.9108911 131.223762,93.9267327 Z"/>
</svg>
