<svg xmlns="http://www.w3.org/2000/svg" width="219" height="146" viewBox="0 0 219 146">
  <g fill="none" fill-rule="evenodd">
    <path fill="#FFF" fill-rule="nonzero" d="M55.6160947,59.2932544 C59.5797018,59.2932544 62.8081767,62.4029046 62.9357302,66.2844845 L62.939645,66.5202367 C62.939645,70.5107692 59.6605917,73.7472189 55.6160947,73.7472189 C51.5715976,73.7472189 48.2925444,70.5107692 48.2925444,66.5202367 C48.2925444,62.5297041 51.5715976,59.2932544 55.6160947,59.2932544 Z M13.307929,56 L12.0781065,59.6610651 L8.59029586,59.6610651 L8.59029586,73.6733728 L4.31147929,73.6733728 L4.31147929,59.6610651 L0,59.6610651 L0,56 L13.307929,56 Z M48.576568,56 L47.3467456,59.6610651 L43.8646154,59.6610651 L43.8646154,73.6733728 L39.5801183,73.6733728 L39.5801183,59.6610651 L35.2686391,59.6610651 L35.2686391,56 L48.576568,56 Z M18.3294675,61.6378698 L18.3294675,73.6733728 L14.1287574,73.6733728 L14.1287574,61.6378698 L18.3294675,61.6378698 Z M24.2939645,56.0142012 L24.2939645,64.3020118 L28.5287574,60.0672189 L33.4423669,60.0672189 L28.3015385,65.2009467 L34.2262722,73.6676923 L29.7216568,73.6676923 L25.631716,67.8778698 L24.3209467,69.0721893 L24.3209467,73.6733728 L20.1074556,73.6733728 L20.1202367,56.0142012 L24.2939645,56.0142012 Z M69.7292308,56.0142012 L69.7292308,64.3020118 L73.9654438,60.0672189 L78.8776331,60.0672189 L73.7410651,65.203787 L79.6714793,73.6676923 L75.1654438,73.6676923 L71.075503,67.8778698 L69.7519527,69.0721893 L69.7519527,73.6733728 L65.5370414,73.6733728 L65.5569231,56.0142012 L69.7292308,56.0142012 Z M53.0755311,63.9796732 C52.0479691,65.0072352 51.7405759,66.5526053 52.2966884,67.8951798 C52.852801,69.2377543 54.1629025,70.1131361 55.6160947,70.1131361 C57.5353155,70.1131361 59.1032853,68.6082678 59.2038684,66.7137828 L59.2089941,66.5202367 C59.2089941,65.0670445 58.3336122,63.756943 56.9910378,63.2008305 C55.6484633,62.6447179 54.1030932,62.9521111 53.0755311,63.9796732 Z M16.2007097,56.0255621 C17.3458015,56.0247789 18.2747176,56.9524233 18.275503,58.0975151 C18.2762864,59.2426069 17.3486421,60.1715231 16.2035503,60.1723116 C15.6535423,60.1730616 15.1258031,59.9551001 14.7366221,59.5664519 C14.3474411,59.1778037 14.1287564,58.6503635 14.1287564,58.100355 C14.1279734,56.9552633 15.055618,56.0263473 16.2007097,56.0255621 Z M56.7619048,0 C59.5779833,0 61.882173,2.23378768 61.9956224,5.02251175 L62,5.23809524 L62,38.7619048 C62,41.5779833 59.7662123,43.882173 56.9774882,43.9956224 L56.7619048,44 L23.2380952,44 C20.4220167,44 18.117827,41.7662123 18.0043776,38.9774882 L18,38.7619048 L18,5.23809524 C18,2.42201667 20.2337877,0.117827024 23.0225118,0.00437759077 L23.2380952,0 L56.7619048,0 Z M45.3522857,7.29980952 L41.1408571,7.29980952 L41.0968571,27.8268571 C41.0968571,30.3453333 38.8727619,32.3295238 36.3542857,32.3295238 C33.836288,32.3295238 31.7950476,30.2882834 31.7950476,27.7702857 C31.7950476,25.252288 33.836288,23.2110476 36.3542857,23.2110476 L36.5404903,23.2205538 L36.5404903,23.2205538 L36.906381,23.2665714 L36.906381,18.8644762 C36.7230476,18.8529524 36.5407619,18.8361905 36.3542857,18.8361905 C31.4206997,18.8361905 27.4212381,22.8356521 27.4212381,27.7692381 C27.4212381,32.7028241 31.4206997,36.7022857 36.3542857,36.7022857 C41.1997719,36.7022857 45.1441975,32.8443866 45.2835248,28.0326263 L45.2873333,27.7692381 L45.2873333,15.6828571 C46.7377069,17.8979826 49.207148,19.2325601 51.8548571,19.2321905 C52.0157828,19.2314671 52.1766289,19.2257881 52.3371669,19.215165 L52.5819048,19.1955238 L52.5819048,14.3031429 C48.8787534,14.0324297 45.8851159,11.2061932 45.3826627,7.5503377 L45.3522857,7.29980952 Z" transform="translate(70 36)"/>
    <path fill="#69C9D0" fill-rule="nonzero" d="M0.783195266,0.0198816568 L0.783195266,0.0269822485 L0.993372781,0.624852071 C0.969230769,0.555266272 0.89112426,0.343668639 0.783195266,0.0198816568 Z" transform="translate(18 34)"/>
  </g>
</svg>
