<svg width="26" height="29" viewBox="0 0 26 29" fill="none" xmlns="http://www.w3.org/2000/svg">
<path d="M11.0593 11.2991V10.2227C10.66 10.1699 10.2576 10.1426 9.85475 10.1409C4.92773 10.1409 0.918457 13.893 0.918457 18.5049C0.918457 21.3335 2.42945 23.8383 4.7336 25.3522C3.19074 23.8079 2.33239 21.7725 2.33384 19.6581C2.33384 15.1121 6.22866 11.4049 11.0593 11.2991Z" fill="#00F2EA"/>
<path d="M11.2961 23.1792C13.3793 23.1792 15.0779 21.5327 15.1554 19.4799L15.1627 1.15968H18.5309C18.4588 0.777316 18.4222 0.389105 18.4215 0L13.8219 0L13.814 18.321C13.7372 20.3723 12.0371 22.0188 9.95462 22.0188C9.32984 22.0188 8.71439 21.8672 8.16113 21.5769C8.51965 22.073 8.99077 22.4769 9.53576 22.7554C10.0808 23.0339 10.6841 23.1792 11.2961 23.1792ZM24.8212 7.37822V6.35978C23.5846 6.36116 22.3743 6.0036 21.337 5.33048C22.2474 6.371 23.4698 7.08929 24.8219 7.37822" fill="#00F2EA"/>
<path d="M21.2001 5.59044C20.1886 4.44779 19.6301 2.97462 19.6297 1.44861H18.4005C18.5613 2.29294 18.8925 3.09565 19.3739 3.80775C19.8552 4.51985 20.4766 5.12642 21.2001 5.59044ZM9.84593 14.534C7.71634 14.5369 5.99094 16.2442 5.98877 18.3513C5.99099 19.0498 6.18495 19.7343 6.54948 20.3302C6.91402 20.926 7.43516 21.4104 8.05606 21.7304C7.58227 21.0849 7.32651 20.3052 7.32592 19.5045C7.32809 17.3966 9.05349 15.6886 11.1831 15.6864C11.5815 15.6864 11.9618 15.7516 12.3218 15.8632V11.2273C11.9445 11.1743 11.5641 11.1467 11.1831 11.1447C11.1164 11.1447 11.0505 11.1491 10.9846 11.1498V14.7107C10.6161 14.5947 10.2322 14.5351 9.84593 14.534Z" fill="#FF004F"/>
<path d="M24.2083 7.96777V11.5055C21.9202 11.5089 19.6882 10.797 17.8246 9.46935V18.7171C17.8246 23.3363 14.0363 27.0942 9.38014 27.0942C7.58013 27.0942 5.91123 26.5307 4.54004 25.5753C5.33162 26.4203 6.28839 27.0938 7.35099 27.5538C8.41359 28.0138 9.55938 28.2506 10.7173 28.2495C15.3741 28.2495 19.1625 24.4916 19.1625 19.8732V10.6247C21.0261 11.9521 23.2581 12.6637 25.5462 12.6601V8.10902C25.0965 8.10889 24.6481 8.06154 24.2083 7.96777Z" fill="#FF004F"/>
<path d="M18.2877 18.4129V9.14989C20.2054 10.483 22.4864 11.195 24.822 11.1897V7.64759C23.4486 7.36334 22.202 6.64764 21.264 5.60492C19.7632 4.6582 18.7273 3.15662 18.3985 1.44861H14.96L14.9528 19.7131C14.8731 21.7586 13.1383 23.4 11.0123 23.4C9.74179 23.3986 8.55096 22.8046 7.81067 21.8035C6.51119 21.1422 5.6963 19.8362 5.69557 18.4121C5.69774 16.297 7.46298 14.584 9.64327 14.5811C10.0489 14.5811 10.4386 14.6462 10.808 14.7585V11.1853C6.13525 11.2918 2.36719 15.0099 2.36719 19.5689C2.36719 21.7746 3.25017 23.7817 4.68873 25.2804C6.14952 26.2745 7.87635 26.8044 9.64327 26.8008C14.4095 26.8008 18.2877 23.0378 18.2877 18.4129Z" fill="white"/>
</svg>
