<svg xmlns="http://www.w3.org/2000/svg"
  xmlns:xlink="http://www.w3.org/1999/xlink"
  width="417"
  height="251"
  viewBox="0 0 417 251">
  <defs>
    <linearGradient id="a"
      x1="100%"
      x2="61.518%"
      y1="50%"
      y2="50%">
      <stop offset="0%"
        stop-color="#00B6FF"/>
      <stop offset="100%"
        stop-color="#0043FF"/>
    </linearGradient>
    <rect id="b"
      width="81.29"
      height="6.4"
      x="4.484"
      y="4.8"
      rx="3"/>
    <circle id="d"
      cx="40"
      cy="40"
      r="40"/>
    <filter id="c"
      width="172.5%"
      height="172.5%"
      x="-40%"
      y="-23.8%"
      filterUnits="objectBoundingBox">
      <feOffset dx="-3"
        dy="10"
        in="SourceAlpha"
        result="shadowOffsetOuter1"/>
      <feGaussianBlur in="shadowOffsetOuter1"
        result="shadowBlurOuter1"
        stdDeviation="8"/>
      <feColorMatrix in="shadowBlurOuter1"
        values="0 0 0 0 0 0 0 0 0 0 0 0 0 0 0 0 0 0 0.202961101 0"/>
    </filter>
  </defs>
  <g fill="none"
    fill-rule="evenodd">
    <rect width="416.5"
      height="250.25"
      fill="#FFF"
      rx="7"/>
    <path fill="#000"
      fill-rule="nonzero"
      d="M58.995 153.118c-3.28 0-5.74-1.9-5.74-5.54v-8.64h2.74v8.6c0 1.72.74 3.12 3 3.12 2.3 0 3.02-1.4 3.02-3.12v-8.6h2.76v8.64c0 3.64-2.44 5.54-5.78 5.54zm8.18 4.4v-14.98h2.4l.28 1.12h.08c.52-.68 1.38-1.3 2.88-1.3 2.62 0 4.26 2.2 4.26 5.4 0 3.08-1.56 5.36-4.26 5.36-1.5 0-2.36-.62-2.88-1.3h-.08v5.7h-2.68zm4.88-6.76c1.72 0 2.3-1.38 2.3-3 0-1.64-.6-3.04-2.3-3.04-1.66 0-2.3 1.4-2.3 3.04 0 1.62.6 3 2.3 3zm6.68 2.18v-14.8h2.68v14.8h-2.68zm9.22.18c-3.36 0-5.06-2.28-5.06-5.36 0-3.08 1.74-5.4 5.06-5.4 3.3 0 5.04 2.32 5.04 5.4 0 3.06-1.7 5.36-5.04 5.36zm0-2.36c1.5 0 2.32-1.02 2.32-3 0-2-.82-3.04-2.32-3.04-1.52 0-2.32 1.06-2.32 3.04s.82 3 2.32 3zm9.76 2.36c-2.32 0-3.64-1.4-3.64-3.24 0-1.88 1.3-3.22 4.2-3.22h2.32v-.58c0-.84-.52-1.52-1.8-1.52-1.12 0-1.74.6-1.74 1.34h-2.52c0-1.96 1.48-3.54 4.32-3.54 2.8 0 4.42 1.58 4.42 3.7v6.88h-2.38l-.2-1.08h-.08c-.58.76-1.56 1.26-2.9 1.26zm.64-2.12c1.4 0 2.24-.88 2.24-1.92v-.56h-2.12c-1.18 0-1.74.5-1.74 1.24 0 .72.54 1.24 1.62 1.24zm10.66 2.12c-2.66 0-4.28-2.2-4.28-5.38 0-3.1 1.56-5.38 4.28-5.38 1.48 0 2.34.62 2.86 1.3h.08v-5.52h2.68v14.8h-2.4l-.28-1.12h-.08c-.52.68-1.38 1.3-2.86 1.3zm.74-2.36c1.68 0 2.3-1.4 2.3-3.02s-.6-3.02-2.3-3.02c-1.72 0-2.3 1.38-2.3 3.02 0 1.62.62 3.02 2.3 3.02zm6.82-9.7v-2.8h2.88v2.8h-2.88zm.1 11.88v-10.4h2.68v10.4h-2.68zm4.74 0v-10.4h2.4l.2 1.18h.08c.58-.78 1.54-1.36 2.96-1.36 2.3 0 3.78 1.46 3.78 3.76v6.82h-2.68v-6.06c0-1.3-.58-2.08-1.92-2.08-1.28 0-2.14.9-2.14 2.38v5.76h-2.68zm15.84 4.76c-2.76 0-4.58-1.5-4.64-3.74h2.62c.08.78.8 1.44 2.02 1.44 1.54 0 2.28-.86 2.28-1.98v-1.6h-.08c-.52.68-1.38 1.3-2.86 1.3-2.72 0-4.28-2.28-4.28-5.36 0-3.2 1.62-5.4 4.28-5.4 1.48 0 2.34.62 2.86 1.3h.08l.28-1.12h2.4v10.92c0 2.54-2.04 4.24-4.96 4.24zm.08-6.94c1.7 0 2.3-1.38 2.3-3 0-1.64-.62-3.04-2.3-3.04-1.68 0-2.3 1.4-2.3 3.04 0 1.62.58 3 2.3 3zm20.16-5.2c1.44.6 2.22 1.74 2.22 3.36 0 2.66-2.08 4.18-5.14 4.2-3.06-.02-5.14-1.54-5.14-4.2 0-1.62.78-2.76 2.22-3.36v-.08c-1.12-.58-1.8-1.68-1.8-3.08 0-2.26 1.92-3.7 4.72-3.7s4.72 1.44 4.72 3.7c0 1.4-.68 2.5-1.8 3.08v.08zm-2.92-4.52c-1.16 0-2 .58-2 1.66 0 1.12.86 1.7 2 1.72 1.16-.02 2-.6 2-1.72 0-1.08-.84-1.66-2-1.66zm0 9.74c1.5-.02 2.4-.76 2.4-2.04 0-1.16-.84-1.98-2.4-2-1.56.02-2.4.84-2.4 2 0 1.28.9 2.02 2.4 2.04zm11.66 2.34c-2.84 0-4.5-1.78-4.76-3.9h2.6c.18.84.9 1.5 2.16 1.5 1.88 0 2.92-1.48 2.92-4.12h-.08c-.62.82-1.58 1.42-3.08 1.42-2.98 0-4.62-2.24-4.62-4.52 0-2.66 1.88-4.8 5.08-4.8 3.64 0 5.26 2.8 5.26 6.96 0 4.2-1.7 7.46-5.48 7.46zm.22-7.32c1.48 0 2.4-.98 2.4-2.34 0-1.42-.94-2.38-2.4-2.38-1.4 0-2.44.94-2.44 2.38 0 1.36.9 2.34 2.44 2.34zm17.86 7.32c-3.64 0-5.58-1.9-5.72-4.8h2.78c.12 1.58 1.22 2.36 2.94 2.36 2 0 2.84-.66 2.84-1.72 0-.94-.6-1.44-1.92-1.72l-2.04-.44c-2.42-.52-4.14-1.54-4.14-4.08 0-2.36 2.04-3.96 5.28-3.96 3.14 0 5.38 1.82 5.4 4.44h-2.78c-.08-1.08-.86-1.98-2.66-1.98-1.68 0-2.42.64-2.42 1.5 0 .72.44 1.24 1.8 1.54l1.9.4c2.6.54 4.4 1.68 4.4 4.24 0 2.5-1.74 4.22-5.66 4.22zm11.84 0c-3.36 0-5.06-2.28-5.06-5.36 0-3.08 1.74-5.4 5.06-5.4 3.3 0 5.04 2.32 5.04 5.4 0 3.06-1.7 5.36-5.04 5.36zm0-2.36c1.5 0 2.32-1.02 2.32-3 0-2-.82-3.04-2.32-3.04-1.52 0-2.32 1.06-2.32 3.04s.82 3 2.32 3zm6.7 2.18v-10.4h2.4l.2 1.18h.08c.58-.78 1.54-1.36 2.96-1.36 2.3 0 3.78 1.46 3.78 3.76v6.82h-2.68v-6.06c0-1.3-.58-2.08-1.92-2.08-1.28 0-2.14.9-2.14 2.38v5.76h-2.68zm15.84 4.76c-2.76 0-4.58-1.5-4.64-3.74h2.62c.08.78.8 1.44 2.02 1.44 1.54 0 2.28-.86 2.28-1.98v-1.6h-.08c-.52.68-1.38 1.3-2.86 1.3-2.72 0-4.28-2.28-4.28-5.36 0-3.2 1.62-5.4 4.28-5.4 1.48 0 2.34.62 2.86 1.3h.08l.28-1.12h2.4v10.92c0 2.54-2.04 4.24-4.96 4.24zm.08-6.94c1.7 0 2.3-1.38 2.3-3 0-1.64-.62-3.04-2.3-3.04-1.68 0-2.3 1.4-2.3 3.04 0 1.62.58 3 2.3 3zm10.86 2.36c-3.02 0-4.46-1.5-4.52-3.68h2.68c0 .8.62 1.42 1.84 1.42 1.18 0 1.72-.42 1.72-.96 0-.52-.38-.84-1.2-1l-1.68-.32c-1.68-.32-3.04-1.24-3.04-3.16 0-1.7 1.5-3.06 4.14-3.06 2.6 0 4.24 1.48 4.24 3.46h-2.64c0-.72-.54-1.32-1.64-1.32-.9 0-1.48.38-1.48.94 0 .52.4.8 1.06.94l1.9.34c1.68.34 3.04 1.1 3.04 3.16 0 2.08-1.9 3.24-4.42 3.24zm15.86-.18c-2.3 0-3.26-1.32-3.26-3.16v-4.96h-1.7v-2.28h1.8v-2.74h2.58v2.74h2.5v2.28h-2.5v4.38c0 .98.42 1.4 1.34 1.4h1.2v2.34h-1.96zm8.36.18c-3.36 0-5.06-2.28-5.06-5.36 0-3.08 1.74-5.4 5.06-5.4 3.3 0 5.04 2.32 5.04 5.4 0 3.06-1.7 5.36-5.04 5.36zm0-2.36c1.5 0 2.32-1.02 2.32-3 0-2-.82-3.04-2.32-3.04-1.52 0-2.32 1.06-2.32 3.04s.82 3 2.32 3zm17.8 2.18v-2.68h-6.24v-2.62l5.54-8.7h3.4v8.94h1.74v2.38h-1.74v2.68h-2.7zm-3.6-5.06h3.6v-5.72h-.08l-3.52 5.64v.08zm9.28 5.06v-2.18l4.62-4.72c1.44-1.44 2-2.16 2-3.22 0-1.02-.68-1.74-1.92-1.74-1.22 0-2.12.68-2.12 2.2h-2.62c0-2.86 1.86-4.58 4.74-4.58 2.8 0 4.66 1.68 4.66 4.04 0 1.48-.74 2.66-2.42 4.36l-3.34 3.34v.08h5.98v2.42h-9.58zm22.08.18c-3.64 0-5.58-1.9-5.72-4.8h2.78c.12 1.58 1.22 2.36 2.94 2.36 2 0 2.84-.66 2.84-1.72 0-.94-.6-1.44-1.92-1.72l-2.04-.44c-2.42-.52-4.14-1.54-4.14-4.08 0-2.36 2.04-3.96 5.28-3.96 3.14 0 5.38 1.82 5.4 4.44h-2.78c-.08-1.08-.86-1.98-2.66-1.98-1.68 0-2.42.64-2.42 1.5 0 .72.44 1.24 1.8 1.54l1.9.4c2.6.54 4.4 1.68 4.4 4.24 0 2.5-1.74 4.22-5.66 4.22zm11.62-.18c-2.3 0-3.26-1.32-3.26-3.16v-4.96h-1.7v-2.28h1.8v-2.74h2.58v2.74h2.5v2.28h-2.5v4.38c0 .98.42 1.4 1.34 1.4h1.2v2.34h-1.96zm8.36.18c-3.36 0-5.06-2.28-5.06-5.36 0-3.08 1.74-5.4 5.06-5.4 3.3 0 5.04 2.32 5.04 5.4 0 3.06-1.7 5.36-5.04 5.36zm0-2.36c1.5 0 2.32-1.02 2.32-3 0-2-.82-3.04-2.32-3.04-1.52 0-2.32 1.06-2.32 3.04s.82 3 2.32 3zm6.7 2.18v-10.4h2.26l.2 1.58h.08c.46-.98 1.38-1.74 2.7-1.74h.76v2.48h-.94c-1.6 0-2.52 1.1-2.52 2.98v5.1h-2.54zm11.9.18c-3.22 0-5.02-2.36-5.02-5.36 0-2.96 1.64-5.4 4.98-5.4 3.1 0 4.84 2.24 4.84 5.08v1.04h-7.08c.02 1.42.74 2.42 2.28 2.42 1.2 0 1.84-.56 2.04-1.2h2.62c-.28 1.88-1.98 3.42-4.66 3.42zm-2.26-6.42h4.32c-.04-1.18-.7-2.1-2.1-2.1-1.5 0-2.16.92-2.22 2.1zm12.66 6.42c-3.02 0-4.46-1.5-4.52-3.68h2.68c0 .8.62 1.42 1.84 1.42 1.18 0 1.72-.42 1.72-.96 0-.52-.38-.84-1.2-1l-1.68-.32c-1.68-.32-3.04-1.24-3.04-3.16 0-1.7 1.5-3.06 4.14-3.06 2.6 0 4.24 1.48 4.24 3.46h-2.64c0-.72-.54-1.32-1.64-1.32-.9 0-1.48.38-1.48.94 0 .52.4.8 1.06.94l1.9.34c1.68.34 3.04 1.1 3.04 3.16 0 2.08-1.9 3.24-4.42 3.24zm5.8-.18v-2.86h2.96v2.86h-2.96zm5.86 0v-2.86h2.96v2.86h-2.96zm5.82 0v-2.86h2.96v2.86h-2.96zM195.907 220.09c-2.499 0-4.131-1.599-4.131-3.588h1.955c.051.97.748 1.854 2.176 1.854 1.598 0 2.21-1.089 2.21-2.346 0-1.207-.663-2.279-2.193-2.279-.986 0-1.581.442-2.023 1.037h-1.938l.459-6.732h6.953v1.751h-5.321l-.221 3.129h.068c.476-.46 1.241-.816 2.312-.816 2.397 0 3.876 1.666 3.876 3.875 0 2.398-1.445 4.114-4.182 4.114zm10.161 0c-3.077 0-4.369-2.448-4.369-5.917 0-3.484 1.326-6.34 4.54-6.34 2.277 0 3.688 1.41 3.91 3.23h-1.905c-.153-.885-.867-1.48-2.006-1.48-1.819 0-2.652 1.632-2.652 3.962h.068c.527-.8 1.377-1.377 2.72-1.377 2.5 0 3.893 1.852 3.893 3.875 0 2.261-1.564 4.046-4.199 4.046zm.017-1.734c1.36 0 2.227-.97 2.227-2.279 0-1.292-.782-2.278-2.227-2.278-1.428 0-2.244.986-2.244 2.261 0 1.326.833 2.296 2.244 2.296zm8.53-4.335c-1.769 0-2.653-1.31-2.653-3.094 0-1.785.884-3.095 2.652-3.095 1.751 0 2.635 1.31 2.635 3.095 0 1.785-.867 3.094-2.635 3.094zm-1.31 5.916v-.17l8.058-11.73h1.683v.17l-8.024 11.73h-1.717zm1.31-7.26c.815 0 1.19-.595 1.19-1.75 0-1.156-.375-1.751-1.19-1.751-.817 0-1.208.595-1.208 1.75 0 1.156.391 1.752 1.207 1.752zm7.207 7.412c-1.768 0-2.652-1.309-2.652-3.094s.884-3.094 2.652-3.094c1.751 0 2.652 1.31 2.652 3.095 0 1.784-.884 3.093-2.652 3.093zm0-1.343c.816 0 1.19-.595 1.19-1.75 0-1.157-.374-1.752-1.19-1.752s-1.19.595-1.19 1.751.374 1.751 1.19 1.751z"/>
    <g transform="translate(136.875 180.938)">
      <rect width="144"
        height="16"
        stroke="#000"
        stroke-width="2"
        rx="8"/>
      <use fill="url(#a)"
        xlink:href="#b"/>
      <use fill="#000"
        xlink:href="#b"/>
    </g>
    <g fill="#000"
      transform="translate(167.875 31.938)">
      <use filter="url(#c)"
        xlink:href="#d"/>
      <use xlink:href="#d"/>
    </g>
    <path fill="#FFF"
      fill-rule="nonzero"
      d="M202.841 76.69a1.2 1.2 0 1 1-1.697-1.698l5.198-5.198a1.2 1.2 0 0 1 1.697 0l5.199 5.198a1.2 1.2 0 1 1-1.697 1.697l-3.15-3.15v11.398a1.2 1.2 0 1 1-2.4 0V73.54l-3.15 3.15zm25.043-2.799a9.647 9.647 0 0 1-9.647 9.647h-1.95a1.2 1.2 0 1 1 0-2.4h1.95a7.247 7.247 0 0 0 0-14.494h-.325a1.2 1.2 0 0 1-1.094-.706 9.846 9.846 0 0 0-18.707 2.548 1.2 1.2 0 0 1-1.506.974 5.947 5.947 0 0 0-7.02 8.143 5.938 5.938 0 0 0 5.26 3.535h3.25a1.2 1.2 0 1 1 0 2.4h-3.28a8.347 8.347 0 1 1 1.175-16.636 12.247 12.247 0 0 1 22.675-2.648c5.13.224 9.22 4.453 9.22 9.637z"/>
    <g transform="translate(10 10)">
      <ellipse cx="4.625"
        cy="4.583"
        fill="#FF4E4E"
        rx="4.625"
        ry="4.583"/>
      <ellipse cx="18.5"
        cy="4.583"
        fill="#FFB400"
        rx="4.625"
        ry="4.583"/>
      <ellipse cx="32.375"
        cy="4.583"
        fill="#00D437"
        rx="4.625"
        ry="4.583"/>
    </g>
  </g>
</svg>
