<svg xmlns="http://www.w3.org/2000/svg" width="219" height="146" viewBox="0 0 219 146">
  <g fill="none" fill-rule="evenodd" transform="translate(24 60)">
    <path fill="#FFF" fill-rule="nonzero" d="M31.76524,1.07651143 C33.3016914,1.49017143 34.5110629,2.69816857 34.9192257,4.23049714 C35.4768539,6.31567615 35.6162521,10.1016055 35.6510995,11.8641432 L35.6621076,12.9591209 C35.6562218,13.872547 35.5932373,18.8776946 34.9192257,21.3980743 C34.5055657,22.9345257 33.2975686,24.1438971 31.76524,24.55206 C29.2677902,25.2199396 20.0133091,25.2878595 18.15687,25.2947666 L16.5809772,25.289035 C13.5903601,25.2639522 6.10888689,25.1422791 3.89747429,24.55206 C2.36102286,24.1384 1.15165143,22.9304029 0.743488571,21.3980743 C0.0866151669,18.9417806 0.0100905211,14.1254734 0.00117552872,13.0366265 L0.00588803075,12.19244 C0.0295396137,10.6207827 0.148197049,6.45651332 0.743488571,4.23049714 C1.15714857,2.69404571 2.36514571,1.48467429 3.89747429,1.07651143 C6.28079865,0.440409563 14.7854046,0.348533391 17.192431,0.335263141 L18.4705776,0.335263141 C20.8786683,0.348533391 29.3866188,0.440409563 31.76524,1.07651143 Z M150.873209,7.60711714 C154.768046,7.60711714 155.018766,10.9811717 154.972007,12.5549768 L154.954837,12.9283514 L152.233751,12.9283514 L152.193897,11.2077457 C152.193897,9.54073714 149.166346,9.28786857 149.166346,11.5815514 C149.166346,13.5550257 155.24756,16.3833057 155.24756,19.2638086 C155.24756,22.1443114 154.07392,24.0119657 150.712417,24.0119657 C147.443103,24.0119657 146.445341,21.9407676 146.393796,20.5022089 L146.391663,20.3838514 L146.391663,18.7305857 L149.272166,18.7305857 L149.272166,20.1708371 C149.272166,21.0778657 149.858986,21.7182829 150.819611,21.7182829 C152.846683,21.7182829 152.740863,18.7841829 150.286389,17.5033486 L149.734919,17.065686 C147.275164,15.0709056 146.391663,13.7157255 146.391663,11.8481629 C146.391663,9.84720286 147.352289,7.60711714 150.873209,7.60711714 Z M144.310994,7.86685714 L144.310994,23.7522257 L141.830409,23.7522257 L141.2697,21.77188 C138.751378,25.7865966 135.148105,23.5296066 135.030641,20.8650843 L135.027694,20.7315457 L135.027694,7.86823143 L138.389197,7.86823143 L138.389197,20.2505457 C138.389197,22.1139559 140.27289,21.415285 140.896371,20.4942416 L140.949491,20.4099629 L140.949491,7.86685714 L144.310994,7.86685714 Z M167.409989,7.52466 C171.375998,7.52466 171.5648,10.2812849 171.571134,11.6504197 L171.571326,13.5000543 L168.85024,13.7130686 L168.85024,11.5788029 C168.851614,10.0863286 166.98396,8.75327143 166.130529,11.6337743 C165.81032,15.2618886 166.076931,18.0351971 166.184126,19.7956571 C166.3298,22.1924114 168.851614,22.1965343 168.851614,19.74206 L168.851614,17.9816 L171.785714,17.9816 C171.785714,21.1823114 170.665671,23.7962029 167.517183,23.7962029 C163.919147,23.7962029 162.818851,21.2997745 162.770696,18.5965335 L162.769026,13.7666657 C162.769026,10.0327314 164.370069,7.52466 167.409989,7.52466 Z M160.395634,7.86685714 L160.395634,23.7522257 L157.274631,23.7522257 L157.274631,7.86685714 L160.395634,7.86685714 Z M121.345306,2.10310286 L124.585871,19.2088371 L127.66702,2.10310286 L132.628191,2.10310286 L132.628191,23.7522257 L129.586897,23.7522257 L129.586897,5.76557429 L125.986269,23.7302371 L123.105766,23.7302371 L119.664554,6.16549143 L119.664554,23.7302371 L116.543551,23.7302371 L116.543551,2.10310286 L121.345306,2.10310286 Z M64.9020171,7.86685714 L64.9020171,19.3435171 C64.9020171,20.0416543 64.9762286,20.54052 65.1287743,20.8359914 C65.28132,21.1314629 65.5369371,21.2840086 65.8942514,21.2840086 C66.2007171,21.2840086 66.4961886,21.1933057 66.7737943,21.0064029 C67.0514,20.8195 67.2616657,20.5803743 67.39772,20.2917743 L67.39772,7.86685714 L70.9172657,7.86685714 L70.9172657,23.4966086 L68.1659457,23.4966086 L67.85948,21.5849771 L67.7852686,21.5849771 C67.0362829,23.0321 65.9134914,23.7522257 64.4210171,23.7522257 C63.3834314,23.7522257 62.61658,23.4114029 62.1232114,22.7311314 C61.6298429,22.05086 61.38522,20.9899114 61.38522,19.5427886 L61.38522,7.86685714 L64.9020171,7.86685714 Z M82.9546343,7.86685714 L82.9546343,19.3435171 C82.9546343,20.0416543 83.0288457,20.54052 83.1813914,20.8359914 C83.3339371,21.1314629 83.5895543,21.2840086 83.9468686,21.2840086 C84.2533343,21.2840086 84.5488057,21.1933057 84.8264114,21.0064029 C85.1040171,20.8195 85.3142829,20.5803743 85.4503371,20.2917743 L85.4503371,7.86685714 L88.9698829,7.86685714 L88.9698829,23.4966086 L86.2185629,23.4966086 L85.9120971,21.5849771 L85.8378857,21.5849771 C85.0889,23.0321 83.9661086,23.7522257 82.4736343,23.7522257 C81.4360486,23.7522257 80.6691971,23.4114029 80.1758286,22.7311314 C79.68246,22.05086 79.4378371,20.9899114 79.4378371,19.5427886 L79.4378371,7.86685714 L82.9546343,7.86685714 Z M54.7597886,7.56039143 C55.9169371,7.56039143 56.8418314,7.79814286 57.5399686,8.27502 C58.2381057,8.75189714 58.7479657,9.49538571 59.0722971,10.5041114 C59.3952543,11.5142114 59.5546714,12.86376 59.5546714,14.5431371 L59.5546714,16.8120829 C59.5546714,18.4804657 59.3952543,19.81902 59.0832914,20.82912 C58.7713286,21.83922 58.2600943,22.5827086 57.5509629,23.0472171 C56.8473286,23.5131 55.8880771,23.751135 54.68008,23.751135 C53.4432229,23.7577229 52.46748,23.5199714 51.7638457,23.0430943 C51.0602114,22.5662171 50.5558486,21.8296 50.2603771,20.8249971 C49.9649057,19.8203943 49.81236,18.4873371 49.81236,16.8189543 L49.81236,14.5500086 C49.81236,12.8651343 49.9827714,11.5142114 50.3235943,10.4931171 C50.6644171,9.47202286 51.19764,8.72853429 51.9177657,8.26402571 C52.6378914,7.79814286 53.5861486,7.56039143 54.7597886,7.56039143 Z M107.276743,7.57138571 C108.48474,7.57138571 109.409634,7.79264571 110.056923,8.23516571 C110.704211,8.67768571 111.157726,9.36482857 111.424337,10.3007171 C111.685451,11.2366057 111.821506,12.5298086 111.821506,14.1762029 L111.821506,16.8546857 L105.927194,16.8546857 L105.93069,18.2198242 C105.940058,18.9420608 105.968423,19.5021097 106.017897,19.9056 C106.074243,20.4044657 106.199303,20.7741486 106.386206,21.0009057 C106.573109,21.2276629 106.863083,21.3472257 107.254754,21.3472257 C107.78248,21.3472257 108.145291,21.1424571 108.337691,20.7342943 C108.530091,20.3261314 108.63866,19.6444857 108.655151,18.6921057 L111.690949,18.8680143 C111.70744,19.0040686 111.714311,19.1909714 111.714311,19.4300971 C111.714311,20.87722 111.317143,21.95466 110.528303,22.6692886 C109.739463,23.3839171 108.622169,23.7412314 107.175046,23.7412314 C105.439323,23.7412314 104.224454,23.1970143 103.527691,22.1072057 C102.829554,21.0173971 102.483234,19.33802 102.483234,17.05808 L102.483234,14.3287486 C102.483234,11.9800943 102.846046,10.2718571 103.566171,9.18892 C104.286297,8.11148 105.523154,7.57138571 107.276743,7.57138571 Z M94.4848914,1.31563714 L94.4848914,9.55310571 L94.5137514,9.55310571 C94.8202171,8.95666571 95.2503686,8.47429143 95.8124514,8.11148 C96.3745343,7.74317143 96.9750971,7.56176571 97.6223857,7.56176571 C98.4552029,7.56176571 99.1079886,7.78302571 99.5848657,8.22554571 C100.060369,8.66806571 100.401191,9.38269429 100.616954,10.3694314 C100.811046,11.2802657 100.917313,12.515464 100.929271,14.0750262 L100.930291,16.9453886 C100.930291,19.2775514 100.652686,20.9899114 100.090603,22.0852171 C99.5298943,23.1805229 98.6558486,23.7302371 97.4643429,23.7302371 C96.8005629,23.7302371 96.1986257,23.5776914 95.6544086,23.2712257 C95.1770161,23.0030682 94.8048423,22.6528401 94.5369667,22.215938 L94.4285457,22.0233743 L94.3543343,22.0233743 L93.99702,23.50348 L91.09178,23.50348 L91.09178,1.31563714 L94.4848914,1.31563714 Z M50.7138914,2.09623143 L46.6624971,16.5633371 L46.6624971,23.5021057 L43.1965486,23.5021057 L43.1965486,16.5647114 L39.1905057,2.10310286 L42.6853143,2.10310286 L44.2899743,9.59695093 C44.5452176,10.8130509 44.7395966,11.8739994 44.8759257,12.7854257 L44.9776229,12.7854257 L45.0598425,12.2680836 C45.2002732,11.4367522 45.4348305,10.2409357 45.7664629,8.67768571 L47.2190829,2.09623143 L50.7138914,2.09623143 Z M80.4767971,2.10310286 L80.4767971,4.93413143 L76.9874857,4.93413143 L76.9874857,23.4979829 L73.5435257,23.4979829 L73.5435257,4.93413143 L70.0487171,4.93413143 L70.0487171,2.10310286 L80.4767971,2.10310286 Z M54.6855771,9.98325714 C54.2087,9.98325714 53.8747486,10.2443714 53.6754771,10.7611029 C53.4830771,11.2778343 53.3800057,12.0996571 53.3800057,13.2238229 L53.3800057,18.09704 C53.3800057,19.2541886 53.4707086,20.08838 53.6576114,20.5927429 C53.8445143,21.1039771 54.1853371,21.35822 54.6787057,21.35822 C55.1789457,21.35822 55.5197686,21.1026029 55.7176657,20.5927429 C55.9100657,20.0815086 56.0131371,19.2486914 56.0131371,18.09704 L56.0131371,13.2238229 C56.0131371,12.1010314 55.9169371,11.2833314 55.7176657,10.7611029 C55.5252657,10.2443714 55.1789457,9.98325714 54.6855771,9.98325714 Z M96.0323371,10.0615914 C95.6928886,10.0615914 95.3809257,10.1976457 95.0909514,10.4697543 C94.842402,10.7041682 94.6574624,10.9910854 94.5344018,11.336564 L94.47802,11.5142114 L94.47802,20.3934714 C94.63194,20.66558 94.8353343,20.8703486 95.0799571,21.0064029 C95.3287029,21.1424571 95.5953143,21.2111714 95.8852886,21.2111714 C96.2590943,21.2111714 96.5545657,21.0751171 96.7758257,20.8030086 C96.9970857,20.5309 97.1565029,20.0718886 97.2472057,19.4246 C97.3337857,18.8420403 97.3791784,18.0624492 97.3873911,17.0808176 L97.3887571,16.7447429 L97.38326,16.7447429 L97.38326,14.7245429 C97.38326,13.49868 97.3434057,12.5572943 97.2691943,11.8935143 C97.1894857,11.2352314 97.0534314,10.7583543 96.8610314,10.4807486 C96.6672571,10.2031429 96.3896514,10.0615914 96.0323371,10.0615914 Z M14.2678343,7.46419143 L14.2678343,18.16438 L23.5332686,12.8142857 L14.2678343,7.46419143 Z M107.203906,9.9489 C106.828726,9.94340286 106.55112,10.0574686 106.375211,10.2787286 C106.199303,10.4999886 106.07974,10.8628 106.017897,11.3616657 L105.984716,11.6929895 C105.945665,12.1772218 105.927194,12.8305023 105.927194,13.64298 L105.927194,14.7657714 L108.502606,14.7657714 L108.502606,13.64298 C108.502606,12.6383771 108.468249,11.8783971 108.400909,11.3616657 C108.332194,10.8449343 108.208509,10.4766257 108.0326,10.26636 C107.856691,10.0560943 107.579086,9.9489 107.203906,9.9489 Z"/>
    <path fill="#000" fill-rule="nonzero" d="M158.915529,6.00607429 L158.915529,6.00607429 C157.836714,6.00607429 156.954423,5.12378286 156.954423,4.04496857 L156.954423,3.56534286 C156.954423,2.48652857 157.836714,1.60423714 158.915529,1.60423714 L158.915529,1.60423714 C159.994343,1.60423714 160.876634,2.48652857 160.876634,3.56534286 L160.876634,4.04496857 C160.87526,5.12378286 159.994343,6.00607429 158.915529,6.00607429 Z"/>
  </g>
</svg>
