<svg width="72" height="17" viewBox="0 0 72 17" fill="none" xmlns="http://www.w3.org/2000/svg">
<path d="M20.3632 0.810374C21.3481 1.07555 22.1234 1.84992 22.385 2.8322C22.7425 4.16888 22.8319 6.59581 22.8542 7.72566L22.8612 8.42758C22.8575 9.01312 22.8171 12.2216 22.385 13.8373C22.1199 14.8222 21.3455 15.5975 20.3632 15.8591C18.7622 16.2872 12.8298 16.3308 11.6397 16.3352L10.6295 16.3315C8.71241 16.3155 3.9165 16.2375 2.4989 15.8591C1.51397 15.5939 0.73872 14.8196 0.477072 13.8373C0.0559908 12.2627 0.00693556 9.17526 0.0012207 8.47727L0.0042416 7.93611C0.0194032 6.92862 0.0954671 4.25916 0.477072 2.8322C0.742244 1.84728 1.51662 1.07202 2.4989 0.810374C4.0267 0.402608 9.47848 0.343712 11.0215 0.335205L11.8408 0.335205C13.3845 0.343712 18.8384 0.402608 20.3632 0.810374Z" fill="#FF0000"/>
<path d="M9.14673 4.90515V11.7644L15.0862 8.33477L9.14673 4.90515Z" fill="white"/>
<path fill-rule="evenodd" clip-rule="evenodd" d="M60.5689 6.24416V0.963623H58.3938V15.1869H60.2562L60.4852 14.2381H60.5328L60.6023 14.3615C60.774 14.6416 61.0126 14.8661 61.3186 15.038C61.6675 15.2345 62.0533 15.3322 62.4789 15.3322C63.2427 15.3322 63.803 14.9799 64.1624 14.2777C64.5227 13.5756 64.7007 12.4779 64.7007 10.9829L64.7 9.14288C64.6923 8.14314 64.6242 7.35133 64.4998 6.76745C64.3615 6.13492 64.143 5.67681 63.8382 5.39314C63.5325 5.10947 63.114 4.96763 62.5802 4.96763C62.1652 4.96763 61.7802 5.08392 61.4199 5.32002C61.0596 5.5526 60.7839 5.86182 60.5874 6.24416H60.5689ZM60.9574 6.83172C61.1432 6.65728 61.3432 6.57007 61.5608 6.57007C61.7899 6.57007 61.9678 6.66081 62.0921 6.83876C62.2154 7.01672 62.3026 7.32242 62.3537 7.7444C62.4013 8.16991 62.4268 8.77337 62.4268 9.5592V10.8542H62.4303L62.4295 11.0697C62.4242 11.6989 62.3951 12.1987 62.3396 12.5721C62.2815 12.9871 62.1793 13.2813 62.0374 13.4557C61.8956 13.6302 61.7062 13.7174 61.4666 13.7174C61.2807 13.7174 61.1098 13.6733 60.9503 13.5861C60.7935 13.4989 60.6631 13.3676 60.5645 13.1932V7.50125L60.6006 7.38737C60.6795 7.16591 60.798 6.98198 60.9574 6.83172ZM29.9129 10.738L32.51 1.46399H30.2697L29.3385 5.68295C29.1259 6.68506 28.9755 7.45162 28.8855 7.98454L28.8328 8.31617H28.7676C28.6802 7.73191 28.5556 7.05181 28.392 6.27224L27.3634 1.46839H25.123L27.6911 10.7388V15.186H29.9129V10.738ZM41.6052 5.16321V12.5202C41.6052 12.9677 41.6528 13.2875 41.7506 13.4769C41.8484 13.6663 42.0122 13.7641 42.2413 13.7641C42.4377 13.7641 42.6272 13.706 42.8051 13.5862C42.9831 13.4663 43.1179 13.3131 43.2051 13.1281V5.16321H45.4612V15.1825H43.6975L43.5011 13.957H43.4535C42.9734 14.8847 42.2536 15.3463 41.2969 15.3463C40.6318 15.3463 40.1402 15.1279 39.8239 14.6918C39.5076 14.2557 39.3508 13.5756 39.3508 12.6479V5.16321H41.6052ZM53.1777 5.16321V12.5202C53.1777 12.9677 53.2253 13.2875 53.3231 13.4769C53.4209 13.6663 53.5847 13.7641 53.8138 13.7641C54.0103 13.7641 54.1997 13.706 54.3776 13.5862C54.5556 13.4663 54.6904 13.3131 54.7776 13.1281V5.16321H57.0337V15.1825H55.27L55.0736 13.957H55.026C54.5459 14.8847 53.8261 15.3463 52.8694 15.3463C52.2043 15.3463 51.7127 15.1279 51.3964 14.6918C51.0802 14.2557 50.9233 13.5756 50.9233 12.6479V5.16321H53.1777ZM51.5893 1.46838V3.28318H49.3526V15.1833H47.1448V3.28318H44.9045V1.46838H51.5893ZM35.1036 4.9668C35.8454 4.9668 36.4383 5.1192 36.8858 5.4249C37.3334 5.7306 37.6602 6.2072 37.8681 6.85383C38.0751 7.50135 38.1773 8.36646 38.1773 9.443V10.8975C38.1773 11.967 38.0751 12.825 37.8752 13.4726C37.6752 14.1201 37.3475 14.5967 36.8929 14.8944C36.4418 15.1931 35.8269 15.3456 35.0525 15.3456C34.2597 15.3499 33.6342 15.1975 33.1831 14.8918C32.732 14.5861 32.4087 14.1139 32.2193 13.4699C32.0299 12.8259 31.9321 11.9714 31.9321 10.9019V9.44741C31.9321 8.36734 32.0414 7.50135 32.2598 6.84679C32.4783 6.19223 32.8201 5.71562 33.2818 5.41785C33.7434 5.1192 34.3513 4.9668 35.1036 4.9668ZM35.0562 6.5199C34.7505 6.5199 34.5364 6.68728 34.4086 7.01853C34.2853 7.34977 34.2192 7.87659 34.2192 8.59722V11.7211C34.2192 12.4629 34.2774 12.9977 34.3972 13.321C34.517 13.6487 34.7355 13.8117 35.0518 13.8117C35.3724 13.8117 35.5909 13.6478 35.7178 13.321C35.8411 12.9933 35.9072 12.4594 35.9072 11.7211V8.59722C35.9072 7.87747 35.8455 7.3533 35.7178 7.01853C35.5944 6.68728 35.3724 6.5199 35.0562 6.5199ZM68.7691 4.97375C69.5435 4.97375 70.1364 5.11559 70.5513 5.39926C70.9663 5.68294 71.257 6.12342 71.4279 6.72336C71.5953 7.3233 71.6825 8.15229 71.6825 9.2077V10.9247H67.904L67.9062 11.7998C67.9122 12.2628 67.9304 12.6218 67.9621 12.8805C67.9983 13.2003 68.0784 13.4372 68.1982 13.5826C68.3181 13.728 68.5039 13.8046 68.755 13.8046C69.0933 13.8046 69.3259 13.6733 69.4492 13.4117C69.5726 13.15 69.6422 12.7131 69.6527 12.1026L71.5988 12.2153C71.6094 12.3025 71.6138 12.4224 71.6138 12.5756C71.6138 13.5033 71.3592 14.194 70.8535 14.6521C70.3478 15.1102 69.6316 15.3392 68.7039 15.3392C67.5913 15.3392 66.8125 14.9904 66.3658 14.2918C65.9183 13.5932 65.6963 12.5166 65.6963 11.0551V9.30548C65.6963 7.79991 65.9289 6.70486 66.3905 6.01066C66.8521 5.31998 67.645 4.97375 68.7691 4.97375ZM68.7222 6.49792C68.4817 6.4944 68.3038 6.56752 68.191 6.70936C68.0782 6.85119 68.0016 7.08377 67.962 7.40356L67.9407 7.61595C67.9156 7.92636 67.9038 8.34514 67.9038 8.86597V9.58572H69.5547V8.86597C69.5547 8.22198 69.5327 7.73481 69.4896 7.40356C69.4455 7.07232 69.3662 6.83622 69.2535 6.70143C69.1407 6.56664 68.9627 6.49792 68.7222 6.49792Z" fill="white"/>
</svg>
